<?xml version="1.0" encoding="UTF-8" standalone="no"?>
<!DOCTYPE svg PUBLIC "-//W3C//DTD SVG 1.1//EN"
 "http://www.w3.org/Graphics/SVG/1.1/DTD/svg11.dtd">
<!-- Generated by graphviz version 12.1.2 (20240928.0832)
 -->
<!-- Title: public.scheduled_task_run Pages: 1 -->
<svg width="778pt" height="848pt"
 viewBox="0.00 0.00 778.03 848.40" xmlns="http://www.w3.org/2000/svg" xmlns:xlink="http://www.w3.org/1999/xlink">
<g id="graph0" class="graph" transform="scale(1 1) rotate(0) translate(4 844.4)">
<title>public.scheduled_task_run</title>
<polygon fill="white" stroke="none" points="-4,4 -4,-844.4 774.03,-844.4 774.03,4 -4,4"/>
<!-- public.scheduled_task_run -->
<g id="node1" class="node">
<title>public.scheduled_task_run</title>
<polygon fill="#efefef" stroke="none" points="46.2,-758.6 46.2,-794.2 377.14,-794.2 377.14,-758.6 46.2,-758.6"/>
<polygon fill="none" stroke="black" points="46.2,-758.6 46.2,-794.2 377.14,-794.2 377.14,-758.6 46.2,-758.6"/>
<text text-anchor="start" x="53.2" y="-772" font-family="Arial Bold" font-size="18.00">public.scheduled_task_run</text>
<text text-anchor="start" x="245.65" y="-772" font-family="Arial" font-size="14.00">    </text>
<text text-anchor="start" x="276.77" y="-772" font-family="Arial" font-size="14.00" fill="#666666">[BASE TABLE]</text>
<polygon fill="none" stroke="black" points="46.2,-727.8 46.2,-758.6 377.14,-758.6 377.14,-727.8 46.2,-727.8"/>
<text text-anchor="start" x="53.2" y="-740" font-family="Arial" font-size="14.00">id </text>
<text text-anchor="start" x="67.99" y="-740" font-family="Arial" font-size="14.00" fill="#666666">[bigint]</text>
<polygon fill="none" stroke="black" points="46.2,-697 46.2,-727.8 377.14,-727.8 377.14,-697 46.2,-697"/>
<text text-anchor="start" x="53.2" y="-709.2" font-family="Arial" font-size="14.00">task_id </text>
<text text-anchor="start" x="101.45" y="-709.2" font-family="Arial" font-size="14.00" fill="#666666">[bigint]</text>
<polygon fill="none" stroke="black" points="46.2,-666.2 46.2,-697 377.14,-697 377.14,-666.2 46.2,-666.2"/>
<text text-anchor="start" x="53.2" y="-678.4" font-family="Arial" font-size="14.00">started_at </text>
<text text-anchor="start" x="119.35" y="-678.4" font-family="Arial" font-size="14.00" fill="#666666">[timestamp with time zone]</text>
<polygon fill="none" stroke="black" points="46.2,-635.4 46.2,-666.2 377.14,-666.2 377.14,-635.4 46.2,-635.4"/>
<text text-anchor="start" x="53.2" y="-647.6" font-family="Arial" font-size="14.00">finished_at </text>
<text text-anchor="start" x="124.81" y="-647.6" font-family="Arial" font-size="14.00" fill="#666666">[timestamp with time zone]</text>
<polygon fill="none" stroke="black" points="46.2,-604.6 46.2,-635.4 377.14,-635.4 377.14,-604.6 46.2,-604.6"/>
<text text-anchor="start" x="53.2" y="-616.8" font-family="Arial" font-size="14.00">status </text>
<text text-anchor="start" x="94.44" y="-616.8" font-family="Arial" font-size="14.00" fill="#666666">[text]</text>
<polygon fill="none" stroke="black" points="46.2,-573.8 46.2,-604.6 377.14,-604.6 377.14,-573.8 46.2,-573.8"/>
<text text-anchor="start" x="53.2" y="-586" font-family="Arial" font-size="14.00">error </text>
<text text-anchor="start" x="86.65" y="-586" font-family="Arial" font-size="14.00" fill="#666666">[text]</text>
<polygon fill="none" stroke="black" points="46.2,-543 46.2,-573.8 377.14,-573.8 377.14,-543 46.2,-543"/>
<text text-anchor="start" x="53.2" y="-555.2" font-family="Arial" font-size="14.00">duration_ms </text>
<text text-anchor="start" x="134.13" y="-555.2" font-family="Arial" font-size="14.00" fill="#666666">[integer]</text>
<polygon fill="none" stroke="black" stroke-width="3" points="44.7,-541.5 44.7,-795.7 378.64,-795.7 378.64,-541.5 44.7,-541.5"/>
</g>
<!-- public.scheduled_task -->
<g id="node2" class="node">
<title>public.scheduled_task</title>
<polygon fill="#efefef" stroke="none" points="62.7,-382 62.7,-417.6 360.65,-417.6 360.65,-382 62.7,-382"/>
<polygon fill="none" stroke="black" points="62.7,-382 62.7,-417.6 360.65,-417.6 360.65,-382 62.7,-382"/>
<text text-anchor="start" x="69.7" y="-395.4" font-family="Arial Bold" font-size="18.00">public.scheduled_task</text>
<text text-anchor="start" x="229.16" y="-395.4" font-family="Arial" font-size="14.00">    </text>
<text text-anchor="start" x="260.27" y="-395.4" font-family="Arial" font-size="14.00" fill="#666666">[BASE TABLE]</text>
<polygon fill="none" stroke="black" points="62.7,-351.2 62.7,-382 360.65,-382 360.65,-351.2 62.7,-351.2"/>
<text text-anchor="start" x="69.7" y="-363.4" font-family="Arial" font-size="14.00">id </text>
<text text-anchor="start" x="84.48" y="-363.4" font-family="Arial" font-size="14.00" fill="#666666">[bigint]</text>
<polygon fill="none" stroke="black" points="62.7,-320.4 62.7,-351.2 360.65,-351.2 360.65,-320.4 62.7,-320.4"/>
<text text-anchor="start" x="69.7" y="-332.6" font-family="Arial" font-size="14.00">job_key </text>
<text text-anchor="start" x="121.84" y="-332.6" font-family="Arial" font-size="14.00" fill="#666666">[text]</text>
<polygon fill="none" stroke="black" points="62.7,-289.6 62.7,-320.4 360.65,-320.4 360.65,-289.6 62.7,-289.6"/>
<text text-anchor="start" x="69.7" y="-301.8" font-family="Arial" font-size="14.00">cron </text>
<text text-anchor="start" x="100.82" y="-301.8" font-family="Arial" font-size="14.00" fill="#666666">[text]</text>
<polygon fill="none" stroke="black" points="62.7,-258.8 62.7,-289.6 360.65,-289.6 360.65,-258.8 62.7,-258.8"/>
<text text-anchor="start" x="69.7" y="-271" font-family="Arial" font-size="14.00">timezone </text>
<text text-anchor="start" x="130.39" y="-271" font-family="Arial" font-size="14.00" fill="#666666">[text]</text>
<polygon fill="none" stroke="black" points="62.7,-228 62.7,-258.8 360.65,-258.8 360.65,-228 62.7,-228"/>
<text text-anchor="start" x="69.7" y="-240.2" font-family="Arial" font-size="14.00">enabled </text>
<text text-anchor="start" x="123.41" y="-240.2" font-family="Arial" font-size="14.00" fill="#666666">[boolean]</text>
<polygon fill="none" stroke="black" points="62.7,-197.2 62.7,-228 360.65,-228 360.65,-197.2 62.7,-197.2"/>
<text text-anchor="start" x="69.7" y="-209.4" font-family="Arial" font-size="14.00">last_run_at </text>
<text text-anchor="start" x="142.86" y="-209.4" font-family="Arial" font-size="14.00" fill="#666666">[timestamp with time zone]</text>
<polygon fill="none" stroke="black" points="62.7,-166.4 62.7,-197.2 360.65,-197.2 360.65,-166.4 62.7,-166.4"/>
<text text-anchor="start" x="69.7" y="-178.6" font-family="Arial" font-size="14.00">next_run_at </text>
<text text-anchor="start" x="147.53" y="-178.6" font-family="Arial" font-size="14.00" fill="#666666">[timestamp with time zone]</text>
<polygon fill="none" stroke="black" points="62.7,-135.6 62.7,-166.4 360.65,-166.4 360.65,-135.6 62.7,-135.6"/>
<text text-anchor="start" x="69.7" y="-147.8" font-family="Arial" font-size="14.00">last_status </text>
<text text-anchor="start" x="140.51" y="-147.8" font-family="Arial" font-size="14.00" fill="#666666">[text]</text>
<polygon fill="none" stroke="black" points="62.7,-104.8 62.7,-135.6 360.65,-135.6 360.65,-104.8 62.7,-104.8"/>
<text text-anchor="start" x="69.7" y="-117" font-family="Arial" font-size="14.00">last_error </text>
<text text-anchor="start" x="132.72" y="-117" font-family="Arial" font-size="14.00" fill="#666666">[text]</text>
<polygon fill="none" stroke="black" points="62.7,-74 62.7,-104.8 360.65,-104.8 360.65,-74 62.7,-74"/>
<text text-anchor="start" x="69.7" y="-86.2" font-family="Arial" font-size="14.00">created_at </text>
<text text-anchor="start" x="139.74" y="-86.2" font-family="Arial" font-size="14.00" fill="#666666">[timestamp with time zone]</text>
<polygon fill="none" stroke="black" points="62.7,-43.2 62.7,-74 360.65,-74 360.65,-43.2 62.7,-43.2"/>
<text text-anchor="start" x="69.7" y="-55.4" font-family="Arial" font-size="14.00">updated_at </text>
<text text-anchor="start" x="143.66" y="-55.4" font-family="Arial" font-size="14.00" fill="#666666">[timestamp with time zone]</text>
</g>
<!-- public.scheduled_task_run&#45;&gt;public.scheduled_task -->
<g id="edge1" class="edge">
<title>public.scheduled_task_run:task_id&#45;&gt;public.scheduled_task:id</title>
<path fill="none" stroke="black" d="M387.95,-710.37C453.47,-682.03 435.12,-366.6 361.65,-366.6"/>
<polygon fill="black" stroke="black" points="388.26,-710.3 377.56,-707.93 383.04,-711.39 378.8,-712.26 378.8,-712.26 378.8,-712.26 383.04,-711.39 379.38,-716.74 388.26,-710.3"/>
<text text-anchor="start" x="385.14" y="-722.4" font-family="Arial" font-size="10.00">FOREIGN KEY (task_id) REFERENCES scheduled_task(id) ON DELETE CASCADE</text>
</g>
</g>
</svg>
