<?xml version="1.0" encoding="UTF-8" standalone="no"?>
<!DOCTYPE svg PUBLIC "-//W3C//DTD SVG 1.1//EN"
 "http://www.w3.org/Graphics/SVG/1.1/DTD/svg11.dtd">
<!-- Generated by graphviz version 12.1.2 (20240928.0832)
 -->
<!-- Title: public.playlist_track Pages: 1 -->
<svg width="1009pt" height="1403pt"
 viewBox="0.00 0.00 1008.53 1402.80" xmlns="http://www.w3.org/2000/svg" xmlns:xlink="http://www.w3.org/1999/xlink">
<g id="graph0" class="graph" transform="scale(1 1) rotate(0) translate(4 1398.8)">
<title>public.playlist_track</title>
<polygon fill="white" stroke="none" points="-4,4 -4,-1398.8 1004.53,-1398.8 1004.53,4 -4,4"/>
<!-- public.playlist_track -->
<g id="node1" class="node">
<title>public.playlist_track</title>
<polygon fill="#efefef" stroke="none" points="366.19,-1313 366.19,-1348.6 652.14,-1348.6 652.14,-1313 366.19,-1313"/>
<polygon fill="none" stroke="black" points="366.19,-1313 366.19,-1348.6 652.14,-1348.6 652.14,-1313 366.19,-1313"/>
<text text-anchor="start" x="373.19" y="-1326.4" font-family="Arial Bold" font-size="18.00">public.playlist_track</text>
<text text-anchor="start" x="520.65" y="-1326.4" font-family="Arial" font-size="14.00">    </text>
<text text-anchor="start" x="551.77" y="-1326.4" font-family="Arial" font-size="14.00" fill="#666666">[BASE TABLE]</text>
<polygon fill="none" stroke="black" points="366.19,-1282.2 366.19,-1313 652.14,-1313 652.14,-1282.2 366.19,-1282.2"/>
<text text-anchor="start" x="373.19" y="-1294.4" font-family="Arial" font-size="14.00">id </text>
<text text-anchor="start" x="387.97" y="-1294.4" font-family="Arial" font-size="14.00" fill="#666666">[bigint]</text>
<polygon fill="none" stroke="black" points="366.19,-1251.4 366.19,-1282.2 652.14,-1282.2 652.14,-1251.4 366.19,-1251.4"/>
<text text-anchor="start" x="373.19" y="-1263.6" font-family="Arial" font-size="14.00">playlist_id </text>
<text text-anchor="start" x="438.55" y="-1263.6" font-family="Arial" font-size="14.00" fill="#666666">[bigint]</text>
<polygon fill="none" stroke="black" points="366.19,-1220.6 366.19,-1251.4 652.14,-1251.4 652.14,-1220.6 366.19,-1220.6"/>
<text text-anchor="start" x="373.19" y="-1232.8" font-family="Arial" font-size="14.00">track_id </text>
<text text-anchor="start" x="426.1" y="-1232.8" font-family="Arial" font-size="14.00" fill="#666666">[bigint]</text>
<polygon fill="none" stroke="black" points="366.19,-1189.8 366.19,-1220.6 652.14,-1220.6 652.14,-1189.8 366.19,-1189.8"/>
<text text-anchor="start" x="373.19" y="-1202" font-family="Arial" font-size="14.00">position </text>
<text text-anchor="start" x="425.33" y="-1202" font-family="Arial" font-size="14.00" fill="#666666">[integer]</text>
<polygon fill="none" stroke="black" stroke-width="3" points="364.69,-1188.3 364.69,-1350.1 653.64,-1350.1 653.64,-1188.3 364.69,-1188.3"/>
</g>
<!-- public.playlist -->
<g id="node2" class="node">
<title>public.playlist</title>
<polygon fill="#efefef" stroke="none" points="203.32,-628.4 203.32,-664 457,-664 457,-628.4 203.32,-628.4"/>
<polygon fill="none" stroke="black" points="203.32,-628.4 203.32,-664 457,-664 457,-628.4 203.32,-628.4"/>
<text text-anchor="start" x="216.67" y="-641.8" font-family="Arial Bold" font-size="18.00">public.playlist</text>
<text text-anchor="start" x="319.16" y="-641.8" font-family="Arial" font-size="14.00">    </text>
<text text-anchor="start" x="350.28" y="-641.8" font-family="Arial" font-size="14.00" fill="#666666">[BASE TABLE]</text>
<polygon fill="none" stroke="black" points="203.32,-597.6 203.32,-628.4 457,-628.4 457,-597.6 203.32,-597.6"/>
<text text-anchor="start" x="210.32" y="-609.8" font-family="Arial" font-size="14.00">id </text>
<text text-anchor="start" x="225.11" y="-609.8" font-family="Arial" font-size="14.00" fill="#666666">[bigint]</text>
<polygon fill="none" stroke="black" points="203.32,-566.8 203.32,-597.6 457,-597.6 457,-566.8 203.32,-566.8"/>
<text text-anchor="start" x="210.32" y="-579" font-family="Arial" font-size="14.00">user_id </text>
<text text-anchor="start" x="260.13" y="-579" font-family="Arial" font-size="14.00" fill="#666666">[bigint]</text>
<polygon fill="none" stroke="black" points="203.32,-536 203.32,-566.8 457,-566.8 457,-536 203.32,-536"/>
<text text-anchor="start" x="210.32" y="-548.2" font-family="Arial" font-size="14.00">name </text>
<text text-anchor="start" x="249.23" y="-548.2" font-family="Arial" font-size="14.00" fill="#666666">[text]</text>
<polygon fill="none" stroke="black" points="203.32,-505.2 203.32,-536 457,-536 457,-505.2 203.32,-505.2"/>
<text text-anchor="start" x="210.32" y="-517.4" font-family="Arial" font-size="14.00">description </text>
<text text-anchor="start" x="281.91" y="-517.4" font-family="Arial" font-size="14.00" fill="#666666">[text]</text>
<polygon fill="none" stroke="black" points="203.32,-474.4 203.32,-505.2 457,-505.2 457,-474.4 203.32,-474.4"/>
<text text-anchor="start" x="210.32" y="-486.6" font-family="Arial" font-size="14.00">is_public </text>
<text text-anchor="start" x="268.69" y="-486.6" font-family="Arial" font-size="14.00" fill="#666666">[boolean]</text>
<polygon fill="none" stroke="black" points="203.32,-443.6 203.32,-474.4 457,-474.4 457,-443.6 203.32,-443.6"/>
<text text-anchor="start" x="210.32" y="-455.8" font-family="Arial" font-size="14.00">updated_at </text>
<text text-anchor="start" x="284.28" y="-455.8" font-family="Arial" font-size="14.00" fill="#666666">[timestamp with time zone]</text>
</g>
<!-- public.playlist_track&#45;&gt;public.playlist -->
<g id="edge1" class="edge">
<title>public.playlist_track:playlist_id&#45;&gt;public.playlist:id</title>
<path fill="none" stroke="black" d="M355.02,-1265.56C237.71,-1234.02 601.02,-613 458,-613"/>
<polygon fill="black" stroke="black" points="354.93,-1265.55 364.31,-1271.23 360.22,-1266.19 364.52,-1266.72 364.52,-1266.72 364.52,-1266.72 360.22,-1266.19 365.4,-1262.29 354.93,-1265.55"/>
<text text-anchor="start" x="7" y="-1276.8" font-family="Arial" font-size="10.00">FOREIGN KEY (playlist_id) REFERENCES playlist(id) ON DELETE CASCADE</text>
</g>
<!-- public.track -->
<g id="node3" class="node">
<title>public.track</title>
<polygon fill="#efefef" stroke="none" points="561.32,-1028.8 561.32,-1064.4 815,-1064.4 815,-1028.8 561.32,-1028.8"/>
<polygon fill="none" stroke="black" points="561.32,-1028.8 561.32,-1064.4 815,-1064.4 815,-1028.8 561.32,-1028.8"/>
<text text-anchor="start" x="583.19" y="-1042.2" font-family="Arial Bold" font-size="18.00">public.track</text>
<text text-anchor="start" x="668.65" y="-1042.2" font-family="Arial" font-size="14.00">    </text>
<text text-anchor="start" x="699.77" y="-1042.2" font-family="Arial" font-size="14.00" fill="#666666">[BASE TABLE]</text>
<polygon fill="none" stroke="black" points="561.32,-998 561.32,-1028.8 815,-1028.8 815,-998 561.32,-998"/>
<text text-anchor="start" x="568.32" y="-1010.2" font-family="Arial" font-size="14.00">id </text>
<text text-anchor="start" x="583.11" y="-1010.2" font-family="Arial" font-size="14.00" fill="#666666">[bigint]</text>
<polygon fill="none" stroke="black" points="561.32,-967.2 561.32,-998 815,-998 815,-967.2 561.32,-967.2"/>
<text text-anchor="start" x="568.32" y="-979.4" font-family="Arial" font-size="14.00">path </text>
<text text-anchor="start" x="599.46" y="-979.4" font-family="Arial" font-size="14.00" fill="#666666">[text]</text>
<polygon fill="none" stroke="black" points="561.32,-936.4 561.32,-967.2 815,-967.2 815,-936.4 561.32,-936.4"/>
<text text-anchor="start" x="568.32" y="-948.6" font-family="Arial" font-size="14.00">updated_at </text>
<text text-anchor="start" x="642.28" y="-948.6" font-family="Arial" font-size="14.00" fill="#666666">[timestamp with time zone]</text>
<polygon fill="none" stroke="black" points="561.32,-905.6 561.32,-936.4 815,-936.4 815,-905.6 561.32,-905.6"/>
<text text-anchor="start" x="568.32" y="-917.8" font-family="Arial" font-size="14.00">title </text>
<text text-anchor="start" x="594" y="-917.8" font-family="Arial" font-size="14.00" fill="#666666">[text]</text>
<polygon fill="none" stroke="black" points="561.32,-874.8 561.32,-905.6 815,-905.6 815,-874.8 561.32,-874.8"/>
<text text-anchor="start" x="568.32" y="-887" font-family="Arial" font-size="14.00">artist </text>
<text text-anchor="start" x="602.55" y="-887" font-family="Arial" font-size="14.00" fill="#666666">[text]</text>
<polygon fill="none" stroke="black" points="561.32,-844 561.32,-874.8 815,-874.8 815,-844 561.32,-844"/>
<text text-anchor="start" x="568.32" y="-856.2" font-family="Arial" font-size="14.00">album </text>
<text text-anchor="start" x="610.34" y="-856.2" font-family="Arial" font-size="14.00" fill="#666666">[text]</text>
<polygon fill="none" stroke="black" points="561.32,-813.2 561.32,-844 815,-844 815,-813.2 561.32,-813.2"/>
<text text-anchor="start" x="568.32" y="-825.4" font-family="Arial" font-size="14.00">album_artist </text>
<text text-anchor="start" x="648.47" y="-825.4" font-family="Arial" font-size="14.00" fill="#666666">[text]</text>
<polygon fill="none" stroke="black" points="561.32,-782.4 561.32,-813.2 815,-813.2 815,-782.4 561.32,-782.4"/>
<text text-anchor="start" x="568.32" y="-794.6" font-family="Arial" font-size="14.00">track_no </text>
<text text-anchor="start" x="625.91" y="-794.6" font-family="Arial" font-size="14.00" fill="#666666">[integer]</text>
<polygon fill="none" stroke="black" points="561.32,-751.6 561.32,-782.4 815,-782.4 815,-751.6 561.32,-751.6"/>
<text text-anchor="start" x="568.32" y="-763.8" font-family="Arial" font-size="14.00">disc_no </text>
<text text-anchor="start" x="620.47" y="-763.8" font-family="Arial" font-size="14.00" fill="#666666">[integer]</text>
<polygon fill="none" stroke="black" points="561.32,-720.8 561.32,-751.6 815,-751.6 815,-720.8 561.32,-720.8"/>
<text text-anchor="start" x="568.32" y="-733" font-family="Arial" font-size="14.00">release_date </text>
<text text-anchor="start" x="653.16" y="-733" font-family="Arial" font-size="14.00" fill="#666666">[date]</text>
<polygon fill="none" stroke="black" points="561.32,-690 561.32,-720.8 815,-720.8 815,-690 561.32,-690"/>
<text text-anchor="start" x="568.32" y="-702.2" font-family="Arial" font-size="14.00">release_type </text>
<text text-anchor="start" x="652.38" y="-702.2" font-family="Arial" font-size="14.00" fill="#666666">[text]</text>
<polygon fill="none" stroke="black" points="561.32,-659.2 561.32,-690 815,-690 815,-659.2 561.32,-659.2"/>
<text text-anchor="start" x="568.32" y="-671.4" font-family="Arial" font-size="14.00">release_type_raw </text>
<text text-anchor="start" x="682.72" y="-671.4" font-family="Arial" font-size="14.00" fill="#666666">[text]</text>
<polygon fill="none" stroke="black" points="561.32,-628.4 561.32,-659.2 815,-659.2 815,-628.4 561.32,-628.4"/>
<text text-anchor="start" x="568.32" y="-640.6" font-family="Arial" font-size="14.00">release_date_raw </text>
<text text-anchor="start" x="683.51" y="-640.6" font-family="Arial" font-size="14.00" fill="#666666">[text]</text>
<polygon fill="none" stroke="black" points="561.32,-597.6 561.32,-628.4 815,-628.4 815,-597.6 561.32,-597.6"/>
<text text-anchor="start" x="568.32" y="-609.8" font-family="Arial" font-size="14.00">release_date_tag </text>
<text text-anchor="start" x="680.41" y="-609.8" font-family="Arial" font-size="14.00" fill="#666666">[text]</text>
<polygon fill="none" stroke="black" points="561.32,-566.8 561.32,-597.6 815,-597.6 815,-566.8 561.32,-566.8"/>
<text text-anchor="start" x="568.32" y="-579" font-family="Arial" font-size="14.00">duration_seconds </text>
<text text-anchor="start" x="682.73" y="-579" font-family="Arial" font-size="14.00" fill="#666666">[double precision]</text>
<polygon fill="none" stroke="black" points="561.32,-536 561.32,-566.8 815,-566.8 815,-536 561.32,-536"/>
<text text-anchor="start" x="568.32" y="-548.2" font-family="Arial" font-size="14.00">codec </text>
<text text-anchor="start" x="609.57" y="-548.2" font-family="Arial" font-size="14.00" fill="#666666">[text]</text>
<polygon fill="none" stroke="black" points="561.32,-505.2 561.32,-536 815,-536 815,-505.2 561.32,-505.2"/>
<text text-anchor="start" x="568.32" y="-517.4" font-family="Arial" font-size="14.00">sample_rate_hz </text>
<text text-anchor="start" x="671.82" y="-517.4" font-family="Arial" font-size="14.00" fill="#666666">[integer]</text>
<polygon fill="none" stroke="black" points="561.32,-474.4 561.32,-505.2 815,-505.2 815,-474.4 561.32,-474.4"/>
<text text-anchor="start" x="568.32" y="-486.6" font-family="Arial" font-size="14.00">bit_depth </text>
<text text-anchor="start" x="629.82" y="-486.6" font-family="Arial" font-size="14.00" fill="#666666">[integer]</text>
<polygon fill="none" stroke="black" points="561.32,-443.6 561.32,-474.4 815,-474.4 815,-443.6 561.32,-443.6"/>
<text text-anchor="start" x="568.32" y="-455.8" font-family="Arial" font-size="14.00">bitrate </text>
<text text-anchor="start" x="611.12" y="-455.8" font-family="Arial" font-size="14.00" fill="#666666">[integer]</text>
<polygon fill="none" stroke="black" points="561.32,-412.8 561.32,-443.6 815,-443.6 815,-412.8 561.32,-412.8"/>
<text text-anchor="start" x="568.32" y="-425" font-family="Arial" font-size="14.00">channels </text>
<text text-anchor="start" x="628.25" y="-425" font-family="Arial" font-size="14.00" fill="#666666">[integer]</text>
<polygon fill="none" stroke="black" points="561.32,-382 561.32,-412.8 815,-412.8 815,-382 561.32,-382"/>
<text text-anchor="start" x="568.32" y="-394.2" font-family="Arial" font-size="14.00">label </text>
<text text-anchor="start" x="601.79" y="-394.2" font-family="Arial" font-size="14.00" fill="#666666">[text]</text>
<polygon fill="none" stroke="black" points="561.32,-351.2 561.32,-382 815,-382 815,-351.2 561.32,-351.2"/>
<text text-anchor="start" x="568.32" y="-363.4" font-family="Arial" font-size="14.00">artist_mbid </text>
<text text-anchor="start" x="640.68" y="-363.4" font-family="Arial" font-size="14.00" fill="#666666">[text]</text>
<polygon fill="none" stroke="black" points="561.32,-320.4 561.32,-351.2 815,-351.2 815,-320.4 561.32,-320.4"/>
<text text-anchor="start" x="568.32" y="-332.6" font-family="Arial" font-size="14.00">album_artist_mbid </text>
<text text-anchor="start" x="686.6" y="-332.6" font-family="Arial" font-size="14.00" fill="#666666">[text]</text>
<polygon fill="none" stroke="black" points="561.32,-289.6 561.32,-320.4 815,-320.4 815,-289.6 561.32,-289.6"/>
<text text-anchor="start" x="568.32" y="-301.8" font-family="Arial" font-size="14.00">track_mbid </text>
<text text-anchor="start" x="640.68" y="-301.8" font-family="Arial" font-size="14.00" fill="#666666">[text]</text>
<polygon fill="none" stroke="black" points="561.32,-258.8 561.32,-289.6 815,-289.6 815,-258.8 561.32,-258.8"/>
<text text-anchor="start" x="568.32" y="-271" font-family="Arial" font-size="14.00">release_track_mbid </text>
<text text-anchor="start" x="694.38" y="-271" font-family="Arial" font-size="14.00" fill="#666666">[text]</text>
<polygon fill="none" stroke="black" points="561.32,-228 561.32,-258.8 815,-258.8 815,-228 561.32,-228"/>
<text text-anchor="start" x="568.32" y="-240.2" font-family="Arial" font-size="14.00">release_mbid </text>
<text text-anchor="start" x="656.26" y="-240.2" font-family="Arial" font-size="14.00" fill="#666666">[text]</text>
<polygon fill="none" stroke="black" points="561.32,-197.2 561.32,-228 815,-228 815,-197.2 561.32,-197.2"/>
<text text-anchor="start" x="568.32" y="-209.4" font-family="Arial" font-size="14.00">release_group_mbid </text>
<text text-anchor="start" x="699.85" y="-209.4" font-family="Arial" font-size="14.00" fill="#666666">[text]</text>
<polygon fill="none" stroke="black" points="561.32,-166.4 561.32,-197.2 815,-197.2 815,-166.4 561.32,-166.4"/>
<text text-anchor="start" x="568.32" y="-178.6" font-family="Arial" font-size="14.00">artwork_id </text>
<text text-anchor="start" x="636.79" y="-178.6" font-family="Arial" font-size="14.00" fill="#666666">[bigint]</text>
<polygon fill="none" stroke="black" points="561.32,-135.6 561.32,-166.4 815,-166.4 815,-135.6 561.32,-135.6"/>
<text text-anchor="start" x="568.32" y="-147.8" font-family="Arial" font-size="14.00">size_bytes </text>
<text text-anchor="start" x="638.36" y="-147.8" font-family="Arial" font-size="14.00" fill="#666666">[bigint]</text>
<polygon fill="none" stroke="black" points="561.32,-104.8 561.32,-135.6 815,-135.6 815,-104.8 561.32,-104.8"/>
<text text-anchor="start" x="568.32" y="-117" font-family="Arial" font-size="14.00">quick_hash </text>
<text text-anchor="start" x="643.04" y="-117" font-family="Arial" font-size="14.00" fill="#666666">[bytea]</text>
<polygon fill="none" stroke="black" points="561.32,-74 561.32,-104.8 815,-104.8 815,-74 561.32,-74"/>
<text text-anchor="start" x="568.32" y="-86.2" font-family="Arial" font-size="14.00">mtime </text>
<text text-anchor="start" x="610.32" y="-86.2" font-family="Arial" font-size="14.00" fill="#666666">[double precision]</text>
<polygon fill="none" stroke="black" points="561.32,-43.2 561.32,-74 815,-74 815,-43.2 561.32,-43.2"/>
<text text-anchor="start" x="568.32" y="-55.4" font-family="Arial" font-size="14.00">fts_vector </text>
<text text-anchor="start" x="632.9" y="-55.4" font-family="Arial" font-size="14.00" fill="#666666">[tsvector]</text>
</g>
<!-- public.playlist_track&#45;&gt;public.track -->
<g id="edge2" class="edge">
<title>public.playlist_track:track_id&#45;&gt;public.track:id</title>
<path fill="none" stroke="black" d="M663.16,-1234.52C690.64,-1225.24 673.22,-1174.27 652.14,-1143.6 627.55,-1107.82 585.91,-1143.39 561.32,-1107.6 537.61,-1073.09 518.45,-1013.4 560.32,-1013.4"/>
<polygon fill="black" stroke="black" points="663.36,-1234.49 652.81,-1231.5 658.09,-1235.27 653.8,-1235.9 653.8,-1235.9 653.8,-1235.9 658.09,-1235.27 654.13,-1240.4 663.36,-1234.49"/>
<text text-anchor="start" x="660.14" y="-1246" font-family="Arial" font-size="10.00">FOREIGN KEY (track_id) REFERENCES track(id) ON DELETE CASCADE</text>
</g>
</g>
</svg>
