<?xml version="1.0" encoding="UTF-8" standalone="no"?>
<!DOCTYPE svg PUBLIC "-//W3C//DTD SVG 1.1//EN"
 "http://www.w3.org/Graphics/SVG/1.1/DTD/svg11.dtd">
<!-- Generated by graphviz version 12.1.2 (20240928.0832)
 -->
<!-- Title: public.favorite_artist Pages: 1 -->
<svg width="1024pt" height="848pt"
 viewBox="0.00 0.00 1024.18 848.40" xmlns="http://www.w3.org/2000/svg" xmlns:xlink="http://www.w3.org/1999/xlink">
<g id="graph0" class="graph" transform="scale(1 1) rotate(0) translate(4 844.4)">
<title>public.favorite_artist</title>
<polygon fill="white" stroke="none" points="-4,4 -4,-844.4 1020.18,-844.4 1020.18,4 -4,4"/>
<!-- public.favorite_artist -->
<g id="node1" class="node">
<title>public.favorite_artist</title>
<polygon fill="#efefef" stroke="none" points="351.06,-758.6 351.06,-794.2 640,-794.2 640,-758.6 351.06,-758.6"/>
<polygon fill="none" stroke="black" points="351.06,-758.6 351.06,-794.2 640,-794.2 640,-758.6 351.06,-758.6"/>
<text text-anchor="start" x="358.06" y="-772" font-family="Arial Bold" font-size="18.00">public.favorite_artist</text>
<text text-anchor="start" x="508.51" y="-772" font-family="Arial" font-size="14.00">    </text>
<text text-anchor="start" x="539.63" y="-772" font-family="Arial" font-size="14.00" fill="#666666">[BASE TABLE]</text>
<polygon fill="none" stroke="black" points="351.06,-727.8 351.06,-758.6 640,-758.6 640,-727.8 351.06,-727.8"/>
<text text-anchor="start" x="358.06" y="-740" font-family="Arial" font-size="14.00">user_id </text>
<text text-anchor="start" x="407.87" y="-740" font-family="Arial" font-size="14.00" fill="#666666">[bigint]</text>
<polygon fill="none" stroke="black" points="351.06,-697 351.06,-727.8 640,-727.8 640,-697 351.06,-697"/>
<text text-anchor="start" x="358.06" y="-709.2" font-family="Arial" font-size="14.00">artist_mbid </text>
<text text-anchor="start" x="430.42" y="-709.2" font-family="Arial" font-size="14.00" fill="#666666">[text]</text>
<polygon fill="none" stroke="black" points="351.06,-666.2 351.06,-697 640,-697 640,-666.2 351.06,-666.2"/>
<text text-anchor="start" x="358.06" y="-678.4" font-family="Arial" font-size="14.00">created_at </text>
<text text-anchor="start" x="428.11" y="-678.4" font-family="Arial" font-size="14.00" fill="#666666">[timestamp with time zone]</text>
<polygon fill="none" stroke="black" stroke-width="3" points="349.56,-664.7 349.56,-795.7 641.5,-795.7 641.5,-664.7 349.56,-664.7"/>
</g>
<!-- public.user -->
<g id="node2" class="node">
<title>public.user</title>
<polygon fill="#efefef" stroke="none" points="145.13,-505.2 145.13,-540.8 457.93,-540.8 457.93,-505.2 145.13,-505.2"/>
<polygon fill="none" stroke="black" points="145.13,-505.2 145.13,-540.8 457.93,-540.8 457.93,-505.2 145.13,-505.2"/>
<text text-anchor="start" x="199.55" y="-518.6" font-family="Arial Bold" font-size="18.00">public.user</text>
<text text-anchor="start" x="279.02" y="-518.6" font-family="Arial" font-size="14.00">    </text>
<text text-anchor="start" x="310.14" y="-518.6" font-family="Arial" font-size="14.00" fill="#666666">[BASE TABLE]</text>
<polygon fill="none" stroke="black" points="145.13,-474.4 145.13,-505.2 457.93,-505.2 457.93,-474.4 145.13,-474.4"/>
<text text-anchor="start" x="152.13" y="-486.6" font-family="Arial" font-size="14.00">id </text>
<text text-anchor="start" x="166.91" y="-486.6" font-family="Arial" font-size="14.00" fill="#666666">[bigint]</text>
<polygon fill="none" stroke="black" points="145.13,-443.6 145.13,-474.4 457.93,-474.4 457.93,-443.6 145.13,-443.6"/>
<text text-anchor="start" x="152.13" y="-455.8" font-family="Arial" font-size="14.00">username </text>
<text text-anchor="start" x="218.27" y="-455.8" font-family="Arial" font-size="14.00" fill="#666666">[citext]</text>
<polygon fill="none" stroke="black" points="145.13,-412.8 145.13,-443.6 457.93,-443.6 457.93,-412.8 145.13,-412.8"/>
<text text-anchor="start" x="152.13" y="-425" font-family="Arial" font-size="14.00">email </text>
<text text-anchor="start" x="189.47" y="-425" font-family="Arial" font-size="14.00" fill="#666666">[citext]</text>
<polygon fill="none" stroke="black" points="145.13,-382 145.13,-412.8 457.93,-412.8 457.93,-382 145.13,-382"/>
<text text-anchor="start" x="152.13" y="-394.2" font-family="Arial" font-size="14.00">password_hash </text>
<text text-anchor="start" x="254.08" y="-394.2" font-family="Arial" font-size="14.00" fill="#666666">[text]</text>
<polygon fill="none" stroke="black" points="145.13,-351.2 145.13,-382 457.93,-382 457.93,-351.2 145.13,-351.2"/>
<text text-anchor="start" x="152.13" y="-363.4" font-family="Arial" font-size="14.00">display_name </text>
<text text-anchor="start" x="242.4" y="-363.4" font-family="Arial" font-size="14.00" fill="#666666">[text]</text>
<polygon fill="none" stroke="black" points="145.13,-320.4 145.13,-351.2 457.93,-351.2 457.93,-320.4 145.13,-320.4"/>
<text text-anchor="start" x="152.13" y="-332.6" font-family="Arial" font-size="14.00">created_at </text>
<text text-anchor="start" x="222.17" y="-332.6" font-family="Arial" font-size="14.00" fill="#666666">[timestamp with time zone]</text>
<polygon fill="none" stroke="black" points="145.13,-289.6 145.13,-320.4 457.93,-320.4 457.93,-289.6 145.13,-289.6"/>
<text text-anchor="start" x="152.13" y="-301.8" font-family="Arial" font-size="14.00">last_login_at </text>
<text text-anchor="start" x="234.63" y="-301.8" font-family="Arial" font-size="14.00" fill="#666666">[timestamp with time zone]</text>
<polygon fill="none" stroke="black" points="145.13,-258.8 145.13,-289.6 457.93,-289.6 457.93,-258.8 145.13,-258.8"/>
<text text-anchor="start" x="152.13" y="-271" font-family="Arial" font-size="14.00">is_active </text>
<text text-anchor="start" x="210.49" y="-271" font-family="Arial" font-size="14.00" fill="#666666">[boolean]</text>
<polygon fill="none" stroke="black" points="145.13,-228 145.13,-258.8 457.93,-258.8 457.93,-228 145.13,-228"/>
<text text-anchor="start" x="152.13" y="-240.2" font-family="Arial" font-size="14.00">is_admin </text>
<text text-anchor="start" x="212.04" y="-240.2" font-family="Arial" font-size="14.00" fill="#666666">[boolean]</text>
<polygon fill="none" stroke="black" points="145.13,-197.2 145.13,-228 457.93,-228 457.93,-197.2 145.13,-197.2"/>
<text text-anchor="start" x="152.13" y="-209.4" font-family="Arial" font-size="14.00">accent_color </text>
<text text-anchor="start" x="235.4" y="-209.4" font-family="Arial" font-size="14.00" fill="#666666">[text]</text>
<polygon fill="none" stroke="black" points="145.13,-166.4 145.13,-197.2 457.93,-197.2 457.93,-166.4 145.13,-166.4"/>
<text text-anchor="start" x="152.13" y="-178.6" font-family="Arial" font-size="14.00">theme_mode </text>
<text text-anchor="start" x="237.73" y="-178.6" font-family="Arial" font-size="14.00" fill="#666666">[text]</text>
<polygon fill="none" stroke="black" points="145.13,-135.6 145.13,-166.4 457.93,-166.4 457.93,-135.6 145.13,-135.6"/>
<text text-anchor="start" x="152.13" y="-147.8" font-family="Arial" font-size="14.00">lastfm_username </text>
<text text-anchor="start" x="263.4" y="-147.8" font-family="Arial" font-size="14.00" fill="#666666">[text]</text>
<polygon fill="none" stroke="black" points="145.13,-104.8 145.13,-135.6 457.93,-135.6 457.93,-104.8 145.13,-104.8"/>
<text text-anchor="start" x="152.13" y="-117" font-family="Arial" font-size="14.00">lastfm_session_key </text>
<text text-anchor="start" x="278.18" y="-117" font-family="Arial" font-size="14.00" fill="#666666">[text]</text>
<polygon fill="none" stroke="black" points="145.13,-74 145.13,-104.8 457.93,-104.8 457.93,-74 145.13,-74"/>
<text text-anchor="start" x="152.13" y="-86.2" font-family="Arial" font-size="14.00">lastfm_enabled </text>
<text text-anchor="start" x="250.97" y="-86.2" font-family="Arial" font-size="14.00" fill="#666666">[boolean]</text>
<polygon fill="none" stroke="black" points="145.13,-43.2 145.13,-74 457.93,-74 457.93,-43.2 145.13,-43.2"/>
<text text-anchor="start" x="152.13" y="-55.4" font-family="Arial" font-size="14.00">lastfm_connected_at </text>
<text text-anchor="start" x="285.21" y="-55.4" font-family="Arial" font-size="14.00" fill="#666666">[timestamp with time zone]</text>
</g>
<!-- public.favorite_artist&#45;&gt;public.user -->
<g id="edge1" class="edge">
<title>public.favorite_artist:user_id&#45;&gt;public.user:id</title>
<path fill="none" stroke="black" d="M339.91,-742.13C298.57,-732.58 321.13,-661.31 351.06,-620 380.47,-579.41 428.47,-624.55 457.93,-584 482.54,-550.13 500.8,-489.8 458.93,-489.8"/>
<polygon fill="black" stroke="black" points="339.78,-742.12 349.26,-747.64 345.09,-742.68 349.39,-743.13 349.39,-743.13 349.39,-743.13 345.09,-742.68 350.2,-738.69 339.78,-742.12"/>
<text text-anchor="start" x="7" y="-753.2" font-family="Arial" font-size="10.00">FOREIGN KEY (user_id) REFERENCES &quot;user&quot;(id) ON DELETE CASCADE</text>
</g>
<!-- public.artist -->
<g id="node3" class="node">
<title>public.artist</title>
<polygon fill="#efefef" stroke="none" points="562.69,-412.8 562.69,-448.4 816.37,-448.4 816.37,-412.8 562.69,-412.8"/>
<polygon fill="none" stroke="black" points="562.69,-412.8 562.69,-448.4 816.37,-448.4 816.37,-412.8 562.69,-412.8"/>
<text text-anchor="start" x="584.54" y="-426.2" font-family="Arial Bold" font-size="18.00">public.artist</text>
<text text-anchor="start" x="670.03" y="-426.2" font-family="Arial" font-size="14.00">    </text>
<text text-anchor="start" x="701.14" y="-426.2" font-family="Arial" font-size="14.00" fill="#666666">[BASE TABLE]</text>
<polygon fill="none" stroke="black" points="562.69,-382 562.69,-412.8 816.37,-412.8 816.37,-382 562.69,-382"/>
<text text-anchor="start" x="569.69" y="-394.2" font-family="Arial" font-size="14.00">mbid </text>
<text text-anchor="start" x="603.92" y="-394.2" font-family="Arial" font-size="14.00" fill="#666666">[text]</text>
<polygon fill="none" stroke="black" points="562.69,-351.2 562.69,-382 816.37,-382 816.37,-351.2 562.69,-351.2"/>
<text text-anchor="start" x="569.69" y="-363.4" font-family="Arial" font-size="14.00">name </text>
<text text-anchor="start" x="608.6" y="-363.4" font-family="Arial" font-size="14.00" fill="#666666">[citext]</text>
<polygon fill="none" stroke="black" points="562.69,-320.4 562.69,-351.2 816.37,-351.2 816.37,-320.4 562.69,-320.4"/>
<text text-anchor="start" x="569.69" y="-332.6" font-family="Arial" font-size="14.00">sort_name </text>
<text text-anchor="start" x="639.72" y="-332.6" font-family="Arial" font-size="14.00" fill="#666666">[text]</text>
<polygon fill="none" stroke="black" points="562.69,-289.6 562.69,-320.4 816.37,-320.4 816.37,-289.6 562.69,-289.6"/>
<text text-anchor="start" x="569.69" y="-301.8" font-family="Arial" font-size="14.00">bio </text>
<text text-anchor="start" x="592.26" y="-301.8" font-family="Arial" font-size="14.00" fill="#666666">[text]</text>
<polygon fill="none" stroke="black" points="562.69,-258.8 562.69,-289.6 816.37,-289.6 816.37,-258.8 562.69,-258.8"/>
<text text-anchor="start" x="569.69" y="-271" font-family="Arial" font-size="14.00">image_url </text>
<text text-anchor="start" x="635.05" y="-271" font-family="Arial" font-size="14.00" fill="#666666">[text]</text>
<polygon fill="none" stroke="black" points="562.69,-228 562.69,-258.8 816.37,-258.8 816.37,-228 562.69,-228"/>
<text text-anchor="start" x="569.69" y="-240.2" font-family="Arial" font-size="14.00">image_source </text>
<text text-anchor="start" x="661.52" y="-240.2" font-family="Arial" font-size="14.00" fill="#666666">[text]</text>
<polygon fill="none" stroke="black" points="562.69,-197.2 562.69,-228 816.37,-228 816.37,-197.2 562.69,-197.2"/>
<text text-anchor="start" x="569.69" y="-209.4" font-family="Arial" font-size="14.00">artwork_id </text>
<text text-anchor="start" x="638.16" y="-209.4" font-family="Arial" font-size="14.00" fill="#666666">[bigint]</text>
<polygon fill="none" stroke="black" points="562.69,-166.4 562.69,-197.2 816.37,-197.2 816.37,-166.4 562.69,-166.4"/>
<text text-anchor="start" x="569.69" y="-178.6" font-family="Arial" font-size="14.00">letter </text>
<text text-anchor="start" x="604.7" y="-178.6" font-family="Arial" font-size="14.00" fill="#666666">[text]</text>
<polygon fill="none" stroke="black" points="562.69,-135.6 562.69,-166.4 816.37,-166.4 816.37,-135.6 562.69,-135.6"/>
<text text-anchor="start" x="569.69" y="-147.8" font-family="Arial" font-size="14.00">updated_at </text>
<text text-anchor="start" x="643.65" y="-147.8" font-family="Arial" font-size="14.00" fill="#666666">[timestamp with time zone]</text>
</g>
<!-- public.favorite_artist&#45;&gt;public.artist -->
<g id="edge2" class="edge">
<title>public.favorite_artist:artist_mbid&#45;&gt;public.artist:mbid</title>
<path fill="none" stroke="black" d="M651.37,-711.75C766.32,-696.01 421.13,-397.4 561.69,-397.4"/>
<polygon fill="black" stroke="black" points="651.31,-711.76 641.05,-707.89 645.99,-712.09 641.67,-712.36 641.67,-712.36 641.67,-712.36 645.99,-712.09 641.61,-716.87 651.31,-711.76"/>
<text text-anchor="start" x="648" y="-722.4" font-family="Arial" font-size="10.00">FOREIGN KEY (artist_mbid) REFERENCES artist(mbid) ON DELETE CASCADE</text>
</g>
</g>
</svg>
