<?xml version="1.0" encoding="UTF-8" standalone="no"?>
<!DOCTYPE svg PUBLIC "-//W3C//DTD SVG 1.1//EN"
 "http://www.w3.org/Graphics/SVG/1.1/DTD/svg11.dtd">
<!-- Generated by graphviz version 12.1.2 (20240928.0832)
 -->
<!-- Title: public.album Pages: 1 -->
<svg width="883pt" height="694pt"
 viewBox="0.00 0.00 883.18 694.40" xmlns="http://www.w3.org/2000/svg" xmlns:xlink="http://www.w3.org/1999/xlink">
<g id="graph0" class="graph" transform="scale(1 1) rotate(0) translate(4 690.4)">
<title>public.album</title>
<polygon fill="white" stroke="none" points="-4,4 -4,-690.4 879.18,-690.4 879.18,4 -4,4"/>
<!-- public.album -->
<g id="node1" class="node">
<title>public.album</title>
<polygon fill="#efefef" stroke="none" points="316.49,-354.2 316.49,-389.8 570.17,-389.8 570.17,-354.2 316.49,-354.2"/>
<polygon fill="none" stroke="black" points="316.49,-354.2 316.49,-389.8 570.17,-389.8 570.17,-354.2 316.49,-354.2"/>
<text text-anchor="start" x="333.84" y="-367.6" font-family="Arial Bold" font-size="18.00">public.album</text>
<text text-anchor="start" x="428.32" y="-367.6" font-family="Arial" font-size="14.00">    </text>
<text text-anchor="start" x="459.44" y="-367.6" font-family="Arial" font-size="14.00" fill="#666666">[BASE TABLE]</text>
<polygon fill="none" stroke="black" points="316.49,-323.4 316.49,-354.2 570.17,-354.2 570.17,-323.4 316.49,-323.4"/>
<text text-anchor="start" x="323.49" y="-335.6" font-family="Arial" font-size="14.00">mbid </text>
<text text-anchor="start" x="357.72" y="-335.6" font-family="Arial" font-size="14.00" fill="#666666">[text]</text>
<polygon fill="none" stroke="black" points="316.49,-292.6 316.49,-323.4 570.17,-323.4 570.17,-292.6 316.49,-292.6"/>
<text text-anchor="start" x="323.49" y="-304.8" font-family="Arial" font-size="14.00">release_group_mbid </text>
<text text-anchor="start" x="455.02" y="-304.8" font-family="Arial" font-size="14.00" fill="#666666">[text]</text>
<polygon fill="none" stroke="black" points="316.49,-261.8 316.49,-292.6 570.17,-292.6 570.17,-261.8 316.49,-261.8"/>
<text text-anchor="start" x="323.49" y="-274" font-family="Arial" font-size="14.00">title </text>
<text text-anchor="start" x="349.16" y="-274" font-family="Arial" font-size="14.00" fill="#666666">[text]</text>
<polygon fill="none" stroke="black" points="316.49,-231 316.49,-261.8 570.17,-261.8 570.17,-231 316.49,-231"/>
<text text-anchor="start" x="323.49" y="-243.2" font-family="Arial" font-size="14.00">release_date </text>
<text text-anchor="start" x="408.33" y="-243.2" font-family="Arial" font-size="14.00" fill="#666666">[date]</text>
<polygon fill="none" stroke="black" points="316.49,-200.2 316.49,-231 570.17,-231 570.17,-200.2 316.49,-200.2"/>
<text text-anchor="start" x="323.49" y="-212.4" font-family="Arial" font-size="14.00">release_type </text>
<text text-anchor="start" x="407.54" y="-212.4" font-family="Arial" font-size="14.00" fill="#666666">[text]</text>
<polygon fill="none" stroke="black" points="316.49,-169.4 316.49,-200.2 570.17,-200.2 570.17,-169.4 316.49,-169.4"/>
<text text-anchor="start" x="323.49" y="-181.6" font-family="Arial" font-size="14.00">release_type_raw </text>
<text text-anchor="start" x="437.89" y="-181.6" font-family="Arial" font-size="14.00" fill="#666666">[text]</text>
<polygon fill="none" stroke="black" points="316.49,-138.6 316.49,-169.4 570.17,-169.4 570.17,-138.6 316.49,-138.6"/>
<text text-anchor="start" x="323.49" y="-150.8" font-family="Arial" font-size="14.00">artwork_id </text>
<text text-anchor="start" x="391.96" y="-150.8" font-family="Arial" font-size="14.00" fill="#666666">[bigint]</text>
<polygon fill="none" stroke="black" points="316.49,-107.8 316.49,-138.6 570.17,-138.6 570.17,-107.8 316.49,-107.8"/>
<text text-anchor="start" x="323.49" y="-120" font-family="Arial" font-size="14.00">description </text>
<text text-anchor="start" x="395.08" y="-120" font-family="Arial" font-size="14.00" fill="#666666">[text]</text>
<polygon fill="none" stroke="black" points="316.49,-77 316.49,-107.8 570.17,-107.8 570.17,-77 316.49,-77"/>
<text text-anchor="start" x="323.49" y="-89.2" font-family="Arial" font-size="14.00">peak_chart_position </text>
<text text-anchor="start" x="452.69" y="-89.2" font-family="Arial" font-size="14.00" fill="#666666">[integer]</text>
<polygon fill="none" stroke="black" points="316.49,-46.2 316.49,-77 570.17,-77 570.17,-46.2 316.49,-46.2"/>
<text text-anchor="start" x="323.49" y="-58.4" font-family="Arial" font-size="14.00">updated_at </text>
<text text-anchor="start" x="397.45" y="-58.4" font-family="Arial" font-size="14.00" fill="#666666">[timestamp with time zone]</text>
<polygon fill="none" stroke="black" stroke-width="3" points="314.99,-44.7 314.99,-391.3 571.67,-391.3 571.67,-44.7 314.99,-44.7"/>
</g>
<!-- public.artist_album -->
<g id="node2" class="node">
<title>public.artist_album</title>
<polygon fill="#efefef" stroke="none" points="107.35,-607.6 107.35,-643.2 385.31,-643.2 385.31,-607.6 107.35,-607.6"/>
<polygon fill="none" stroke="black" points="107.35,-607.6 107.35,-643.2 385.31,-643.2 385.31,-607.6 107.35,-607.6"/>
<text text-anchor="start" x="114.35" y="-621" font-family="Arial Bold" font-size="18.00">public.artist_album</text>
<text text-anchor="start" x="253.82" y="-621" font-family="Arial" font-size="14.00">    </text>
<text text-anchor="start" x="284.94" y="-621" font-family="Arial" font-size="14.00" fill="#666666">[BASE TABLE]</text>
<polygon fill="none" stroke="black" points="107.35,-576.8 107.35,-607.6 385.31,-607.6 385.31,-576.8 107.35,-576.8"/>
<text text-anchor="start" x="114.35" y="-589" font-family="Arial" font-size="14.00">artist_mbid </text>
<text text-anchor="start" x="186.71" y="-589" font-family="Arial" font-size="14.00" fill="#666666">[text]</text>
<polygon fill="none" stroke="black" points="107.35,-546 107.35,-576.8 385.31,-576.8 385.31,-546 107.35,-546"/>
<text text-anchor="start" x="114.35" y="-558.2" font-family="Arial" font-size="14.00">album_mbid </text>
<text text-anchor="start" x="194.5" y="-558.2" font-family="Arial" font-size="14.00" fill="#666666">[text]</text>
<polygon fill="none" stroke="black" points="107.35,-515.2 107.35,-546 385.31,-546 385.31,-515.2 107.35,-515.2"/>
<text text-anchor="start" x="114.35" y="-527.4" font-family="Arial" font-size="14.00">type </text>
<text text-anchor="start" x="144.7" y="-527.4" font-family="Arial" font-size="14.00" fill="#666666">[text]</text>
</g>
<!-- public.artist_album&#45;&gt;public.album -->
<g id="edge1" class="edge">
<title>public.artist_album:album_mbid&#45;&gt;public.album:mbid</title>
<path fill="none" stroke="black" d="M396.3,-559.88C422.14,-550.76 404.05,-502.57 385.31,-472 367.27,-442.57 334.52,-465.44 316.49,-436 293.92,-399.16 272.29,-338.8 315.49,-338.8"/>
<polygon fill="black" stroke="black" points="396.53,-559.85 385.96,-556.9 391.25,-560.65 386.97,-561.3 386.97,-561.3 386.97,-561.3 391.25,-560.65 387.32,-565.8 396.53,-559.85"/>
<text text-anchor="start" x="7" y="-571.4" font-family="Arial" font-size="10.00">FOREIGN KEY (album_mbid) REFERENCES album(mbid) ON DELETE CASCADE</text>
</g>
<!-- public.favorite_release -->
<g id="node3" class="node">
<title>public.favorite_release</title>
<polygon fill="#efefef" stroke="none" points="489.88,-607.6 489.88,-643.2 792.78,-643.2 792.78,-607.6 489.88,-607.6"/>
<polygon fill="none" stroke="black" points="489.88,-607.6 489.88,-643.2 792.78,-643.2 792.78,-607.6 489.88,-607.6"/>
<text text-anchor="start" x="496.88" y="-621" font-family="Arial Bold" font-size="18.00">public.favorite_release</text>
<text text-anchor="start" x="661.29" y="-621" font-family="Arial" font-size="14.00">    </text>
<text text-anchor="start" x="692.41" y="-621" font-family="Arial" font-size="14.00" fill="#666666">[BASE TABLE]</text>
<polygon fill="none" stroke="black" points="489.88,-576.8 489.88,-607.6 792.78,-607.6 792.78,-576.8 489.88,-576.8"/>
<text text-anchor="start" x="496.88" y="-589" font-family="Arial" font-size="14.00">user_id </text>
<text text-anchor="start" x="546.68" y="-589" font-family="Arial" font-size="14.00" fill="#666666">[bigint]</text>
<polygon fill="none" stroke="black" points="489.88,-546 489.88,-576.8 792.78,-576.8 792.78,-546 489.88,-546"/>
<text text-anchor="start" x="496.88" y="-558.2" font-family="Arial" font-size="14.00">album_mbid </text>
<text text-anchor="start" x="577.03" y="-558.2" font-family="Arial" font-size="14.00" fill="#666666">[text]</text>
<polygon fill="none" stroke="black" points="489.88,-515.2 489.88,-546 792.78,-546 792.78,-515.2 489.88,-515.2"/>
<text text-anchor="start" x="496.88" y="-527.4" font-family="Arial" font-size="14.00">created_at </text>
<text text-anchor="start" x="566.92" y="-527.4" font-family="Arial" font-size="14.00" fill="#666666">[timestamp with time zone]</text>
</g>
<!-- public.favorite_release&#45;&gt;public.album -->
<g id="edge2" class="edge">
<title>public.favorite_release:album_mbid&#45;&gt;public.album:mbid</title>
<path fill="none" stroke="black" d="M478.86,-559.87C452.87,-550.65 470.22,-501.99 489.88,-472 511.32,-439.29 548.74,-468.72 570.17,-436 593.84,-399.86 614.37,-338.8 571.17,-338.8"/>
<polygon fill="black" stroke="black" points="478.66,-559.84 487.86,-565.8 483.93,-560.64 488.21,-561.3 488.21,-561.3 488.21,-561.3 483.93,-560.64 489.23,-556.9 478.66,-559.84"/>
<text text-anchor="start" x="495.88" y="-571.4" font-family="Arial" font-size="10.00">FOREIGN KEY (album_mbid) REFERENCES album(mbid) ON DELETE CASCADE</text>
</g>
</g>
</svg>
