<?xml version="1.0" encoding="UTF-8" standalone="no"?>
<!DOCTYPE svg PUBLIC "-//W3C//DTD SVG 1.1//EN"
 "http://www.w3.org/Graphics/SVG/1.1/DTD/svg11.dtd">
<!-- Generated by graphviz version 12.1.2 (20240928.0832)
 -->
<!-- Title: public.lastfm_scrobble Pages: 1 -->
<svg width="820pt" height="941pt"
 viewBox="0.00 0.00 820.01 940.80" xmlns="http://www.w3.org/2000/svg" xmlns:xlink="http://www.w3.org/1999/xlink">
<g id="graph0" class="graph" transform="scale(1 1) rotate(0) translate(4 936.8)">
<title>public.lastfm_scrobble</title>
<polygon fill="white" stroke="none" points="-4,4 -4,-936.8 816.01,-936.8 816.01,4 -4,4"/>
<!-- public.lastfm_scrobble -->
<g id="node1" class="node">
<title>public.lastfm_scrobble</title>
<polygon fill="#efefef" stroke="none" points="69.69,-446.6 69.69,-482.2 372.64,-482.2 372.64,-446.6 69.69,-446.6"/>
<polygon fill="none" stroke="black" points="69.69,-446.6 69.69,-482.2 372.64,-482.2 372.64,-446.6 69.69,-446.6"/>
<text text-anchor="start" x="76.69" y="-460" font-family="Arial Bold" font-size="18.00">public.lastfm_scrobble</text>
<text text-anchor="start" x="241.15" y="-460" font-family="Arial" font-size="14.00">    </text>
<text text-anchor="start" x="272.27" y="-460" font-family="Arial" font-size="14.00" fill="#666666">[BASE TABLE]</text>
<polygon fill="none" stroke="black" points="69.69,-415.8 69.69,-446.6 372.64,-446.6 372.64,-415.8 69.69,-415.8"/>
<text text-anchor="start" x="76.69" y="-428" font-family="Arial" font-size="14.00">id </text>
<text text-anchor="start" x="91.48" y="-428" font-family="Arial" font-size="14.00" fill="#666666">[bigint]</text>
<polygon fill="none" stroke="black" points="69.69,-385 69.69,-415.8 372.64,-415.8 372.64,-385 69.69,-385"/>
<text text-anchor="start" x="76.69" y="-397.2" font-family="Arial" font-size="14.00">lastfm_username </text>
<text text-anchor="start" x="187.96" y="-397.2" font-family="Arial" font-size="14.00" fill="#666666">[text]</text>
<polygon fill="none" stroke="black" points="69.69,-354.2 69.69,-385 372.64,-385 372.64,-354.2 69.69,-354.2"/>
<text text-anchor="start" x="76.69" y="-366.4" font-family="Arial" font-size="14.00">played_at </text>
<text text-anchor="start" x="141.3" y="-366.4" font-family="Arial" font-size="14.00" fill="#666666">[timestamp with time zone]</text>
<polygon fill="none" stroke="black" points="69.69,-323.4 69.69,-354.2 372.64,-354.2 372.64,-323.4 69.69,-323.4"/>
<text text-anchor="start" x="76.69" y="-335.6" font-family="Arial" font-size="14.00">played_at_uts </text>
<text text-anchor="start" x="167.76" y="-335.6" font-family="Arial" font-size="14.00" fill="#666666">[bigint]</text>
<polygon fill="none" stroke="black" points="69.69,-292.6 69.69,-323.4 372.64,-323.4 372.64,-292.6 69.69,-292.6"/>
<text text-anchor="start" x="76.69" y="-304.8" font-family="Arial" font-size="14.00">track_mbid </text>
<text text-anchor="start" x="149.05" y="-304.8" font-family="Arial" font-size="14.00" fill="#666666">[text]</text>
<polygon fill="none" stroke="black" points="69.69,-261.8 69.69,-292.6 372.64,-292.6 372.64,-261.8 69.69,-261.8"/>
<text text-anchor="start" x="76.69" y="-274" font-family="Arial" font-size="14.00">track_name </text>
<text text-anchor="start" x="153.72" y="-274" font-family="Arial" font-size="14.00" fill="#666666">[text]</text>
<polygon fill="none" stroke="black" points="69.69,-231 69.69,-261.8 372.64,-261.8 372.64,-231 69.69,-231"/>
<text text-anchor="start" x="76.69" y="-243.2" font-family="Arial" font-size="14.00">track_url </text>
<text text-anchor="start" x="134.26" y="-243.2" font-family="Arial" font-size="14.00" fill="#666666">[text]</text>
<polygon fill="none" stroke="black" points="69.69,-200.2 69.69,-231 372.64,-231 372.64,-200.2 69.69,-200.2"/>
<text text-anchor="start" x="76.69" y="-212.4" font-family="Arial" font-size="14.00">artist_mbid </text>
<text text-anchor="start" x="149.05" y="-212.4" font-family="Arial" font-size="14.00" fill="#666666">[text]</text>
<polygon fill="none" stroke="black" points="69.69,-169.4 69.69,-200.2 372.64,-200.2 372.64,-169.4 69.69,-169.4"/>
<text text-anchor="start" x="76.69" y="-181.6" font-family="Arial" font-size="14.00">artist_name </text>
<text text-anchor="start" x="153.72" y="-181.6" font-family="Arial" font-size="14.00" fill="#666666">[text]</text>
<polygon fill="none" stroke="black" points="69.69,-138.6 69.69,-169.4 372.64,-169.4 372.64,-138.6 69.69,-138.6"/>
<text text-anchor="start" x="76.69" y="-150.8" font-family="Arial" font-size="14.00">artist_url </text>
<text text-anchor="start" x="134.26" y="-150.8" font-family="Arial" font-size="14.00" fill="#666666">[text]</text>
<polygon fill="none" stroke="black" points="69.69,-107.8 69.69,-138.6 372.64,-138.6 372.64,-107.8 69.69,-107.8"/>
<text text-anchor="start" x="76.69" y="-120" font-family="Arial" font-size="14.00">album_mbid </text>
<text text-anchor="start" x="156.84" y="-120" font-family="Arial" font-size="14.00" fill="#666666">[text]</text>
<polygon fill="none" stroke="black" points="69.69,-77 69.69,-107.8 372.64,-107.8 372.64,-77 69.69,-77"/>
<text text-anchor="start" x="76.69" y="-89.2" font-family="Arial" font-size="14.00">album_name </text>
<text text-anchor="start" x="161.52" y="-89.2" font-family="Arial" font-size="14.00" fill="#666666">[text]</text>
<polygon fill="none" stroke="black" points="69.69,-46.2 69.69,-77 372.64,-77 372.64,-46.2 69.69,-46.2"/>
<text text-anchor="start" x="76.69" y="-58.4" font-family="Arial" font-size="14.00">created_at </text>
<text text-anchor="start" x="146.74" y="-58.4" font-family="Arial" font-size="14.00" fill="#666666">[timestamp with time zone]</text>
<polygon fill="none" stroke="black" stroke-width="3" points="68.19,-44.7 68.19,-483.7 374.14,-483.7 374.14,-44.7 68.19,-44.7"/>
</g>
<!-- public.lastfm_scrobble_match -->
<g id="node2" class="node">
<title>public.lastfm_scrobble_match</title>
<polygon fill="#efefef" stroke="none" points="43.2,-854 43.2,-889.6 399.13,-889.6 399.13,-854 43.2,-854"/>
<polygon fill="none" stroke="black" points="43.2,-854 43.2,-889.6 399.13,-889.6 399.13,-854 43.2,-854"/>
<text text-anchor="start" x="50.2" y="-867.4" font-family="Arial Bold" font-size="18.00">public.lastfm_scrobble_match</text>
<text text-anchor="start" x="267.64" y="-867.4" font-family="Arial" font-size="14.00">    </text>
<text text-anchor="start" x="298.76" y="-867.4" font-family="Arial" font-size="14.00" fill="#666666">[BASE TABLE]</text>
<polygon fill="none" stroke="black" points="43.2,-823.2 43.2,-854 399.13,-854 399.13,-823.2 43.2,-823.2"/>
<text text-anchor="start" x="50.2" y="-835.4" font-family="Arial" font-size="14.00">id </text>
<text text-anchor="start" x="64.99" y="-835.4" font-family="Arial" font-size="14.00" fill="#666666">[bigint]</text>
<polygon fill="none" stroke="black" points="43.2,-792.4 43.2,-823.2 399.13,-823.2 399.13,-792.4 43.2,-792.4"/>
<text text-anchor="start" x="50.2" y="-804.6" font-family="Arial" font-size="14.00">scrobble_id </text>
<text text-anchor="start" x="125.69" y="-804.6" font-family="Arial" font-size="14.00" fill="#666666">[bigint]</text>
<polygon fill="none" stroke="black" points="43.2,-761.6 43.2,-792.4 399.13,-792.4 399.13,-761.6 43.2,-761.6"/>
<text text-anchor="start" x="50.2" y="-773.8" font-family="Arial" font-size="14.00">track_id </text>
<text text-anchor="start" x="103.11" y="-773.8" font-family="Arial" font-size="14.00" fill="#666666">[bigint]</text>
<polygon fill="none" stroke="black" points="43.2,-730.8 43.2,-761.6 399.13,-761.6 399.13,-730.8 43.2,-730.8"/>
<text text-anchor="start" x="50.2" y="-743" font-family="Arial" font-size="14.00">match_score </text>
<text text-anchor="start" x="134.23" y="-743" font-family="Arial" font-size="14.00" fill="#666666">[double precision]</text>
<polygon fill="none" stroke="black" points="43.2,-700 43.2,-730.8 399.13,-730.8 399.13,-700 43.2,-700"/>
<text text-anchor="start" x="50.2" y="-712.2" font-family="Arial" font-size="14.00">match_method </text>
<text text-anchor="start" x="146.7" y="-712.2" font-family="Arial" font-size="14.00" fill="#666666">[text]</text>
<polygon fill="none" stroke="black" points="43.2,-669.2 43.2,-700 399.13,-700 399.13,-669.2 43.2,-669.2"/>
<text text-anchor="start" x="50.2" y="-681.4" font-family="Arial" font-size="14.00">match_reason </text>
<text text-anchor="start" x="142.81" y="-681.4" font-family="Arial" font-size="14.00" fill="#666666">[text]</text>
<polygon fill="none" stroke="black" points="43.2,-638.4 43.2,-669.2 399.13,-669.2 399.13,-638.4 43.2,-638.4"/>
<text text-anchor="start" x="50.2" y="-650.6" font-family="Arial" font-size="14.00">cache_key </text>
<text text-anchor="start" x="121.02" y="-650.6" font-family="Arial" font-size="14.00" fill="#666666">[text]</text>
<polygon fill="none" stroke="black" points="43.2,-607.6 43.2,-638.4 399.13,-638.4 399.13,-607.6 43.2,-607.6"/>
<text text-anchor="start" x="50.2" y="-619.8" font-family="Arial" font-size="14.00">matched_at </text>
<text text-anchor="start" x="127.25" y="-619.8" font-family="Arial" font-size="14.00" fill="#666666">[timestamp with time zone]</text>
</g>
<!-- public.lastfm_scrobble_match&#45;&gt;public.lastfm_scrobble -->
<g id="edge1" class="edge">
<title>public.lastfm_scrobble_match:scrobble_id&#45;&gt;public.lastfm_scrobble:id</title>
<path fill="none" stroke="black" d="M410.34,-805.77C481.64,-776.13 453.93,-431.2 373.64,-431.2"/>
<polygon fill="black" stroke="black" points="410.27,-805.79 399.58,-803.32 405.03,-806.83 400.79,-807.67 400.79,-807.67 400.79,-807.67 405.03,-806.83 401.33,-812.15 410.27,-805.79"/>
<text text-anchor="start" x="407.13" y="-817.8" font-family="Arial" font-size="10.00">FOREIGN KEY (scrobble_id) REFERENCES lastfm_scrobble(id) ON DELETE CASCADE</text>
</g>
</g>
</svg>
