<?xml version="1.0" encoding="UTF-8" standalone="no"?>
<!DOCTYPE svg PUBLIC "-//W3C//DTD SVG 1.1//EN"
 "http://www.w3.org/Graphics/SVG/1.1/DTD/svg11.dtd">
<!-- Generated by graphviz version 12.1.2 (20240928.0832)
 -->
<!-- Title: public.artwork Pages: 1 -->
<svg width="694pt" height="879pt"
 viewBox="0.00 0.00 693.77 879.20" xmlns="http://www.w3.org/2000/svg" xmlns:xlink="http://www.w3.org/1999/xlink">
<g id="graph0" class="graph" transform="scale(1 1) rotate(0) translate(4 875.2)">
<title>public.artwork</title>
<polygon fill="white" stroke="none" points="-4,4 -4,-875.2 689.77,-875.2 689.77,4 -4,4"/>
<!-- public.artwork -->
<g id="node1" class="node">
<title>public.artwork</title>
<polygon fill="#efefef" stroke="none" points="51.57,-446.6 51.57,-482.2 306.79,-482.2 306.79,-446.6 51.57,-446.6"/>
<polygon fill="none" stroke="black" points="51.57,-446.6 51.57,-482.2 306.79,-482.2 306.79,-446.6 51.57,-446.6"/>
<text text-anchor="start" x="64.2" y="-460" font-family="Arial Bold" font-size="18.00">public.artwork</text>
<text text-anchor="start" x="169.67" y="-460" font-family="Arial" font-size="14.00">    </text>
<text text-anchor="start" x="200.78" y="-460" font-family="Arial" font-size="14.00" fill="#666666">[BASE TABLE]</text>
<polygon fill="none" stroke="black" points="51.57,-415.8 51.57,-446.6 306.79,-446.6 306.79,-415.8 51.57,-415.8"/>
<text text-anchor="start" x="58.57" y="-428" font-family="Arial" font-size="14.00">id </text>
<text text-anchor="start" x="73.35" y="-428" font-family="Arial" font-size="14.00" fill="#666666">[bigint]</text>
<polygon fill="none" stroke="black" points="51.57,-385 51.57,-415.8 306.79,-415.8 306.79,-385 51.57,-385"/>
<text text-anchor="start" x="58.57" y="-397.2" font-family="Arial" font-size="14.00">sha1 </text>
<text text-anchor="start" x="92.81" y="-397.2" font-family="Arial" font-size="14.00" fill="#666666">[text]</text>
<polygon fill="none" stroke="black" points="51.57,-354.2 51.57,-385 306.79,-385 306.79,-354.2 51.57,-354.2"/>
<text text-anchor="start" x="58.57" y="-366.4" font-family="Arial" font-size="14.00">type </text>
<text text-anchor="start" x="88.92" y="-366.4" font-family="Arial" font-size="14.00" fill="#666666">[text]</text>
<polygon fill="none" stroke="black" points="51.57,-323.4 51.57,-354.2 306.79,-354.2 306.79,-323.4 51.57,-323.4"/>
<text text-anchor="start" x="58.57" y="-335.6" font-family="Arial" font-size="14.00">mime </text>
<text text-anchor="start" x="96.68" y="-335.6" font-family="Arial" font-size="14.00" fill="#666666">[text]</text>
<polygon fill="none" stroke="black" points="51.57,-292.6 51.57,-323.4 306.79,-323.4 306.79,-292.6 51.57,-292.6"/>
<text text-anchor="start" x="58.57" y="-304.8" font-family="Arial" font-size="14.00">width </text>
<text text-anchor="start" x="95.14" y="-304.8" font-family="Arial" font-size="14.00" fill="#666666">[integer]</text>
<polygon fill="none" stroke="black" points="51.57,-261.8 51.57,-292.6 306.79,-292.6 306.79,-261.8 51.57,-261.8"/>
<text text-anchor="start" x="58.57" y="-274" font-family="Arial" font-size="14.00">height </text>
<text text-anchor="start" x="100.6" y="-274" font-family="Arial" font-size="14.00" fill="#666666">[integer]</text>
<polygon fill="none" stroke="black" points="51.57,-231 51.57,-261.8 306.79,-261.8 306.79,-231 51.57,-231"/>
<text text-anchor="start" x="58.57" y="-243.2" font-family="Arial" font-size="14.00">path_on_disk </text>
<text text-anchor="start" x="145.74" y="-243.2" font-family="Arial" font-size="14.00" fill="#666666">[text]</text>
<polygon fill="none" stroke="black" points="51.57,-200.2 51.57,-231 306.79,-231 306.79,-200.2 51.57,-200.2"/>
<text text-anchor="start" x="58.57" y="-212.4" font-family="Arial" font-size="14.00">filesize_bytes </text>
<text text-anchor="start" x="146.5" y="-212.4" font-family="Arial" font-size="14.00" fill="#666666">[bigint]</text>
<polygon fill="none" stroke="black" points="51.57,-169.4 51.57,-200.2 306.79,-200.2 306.79,-169.4 51.57,-169.4"/>
<text text-anchor="start" x="58.57" y="-181.6" font-family="Arial" font-size="14.00">image_format </text>
<text text-anchor="start" x="148.05" y="-181.6" font-family="Arial" font-size="14.00" fill="#666666">[text]</text>
<polygon fill="none" stroke="black" points="51.57,-138.6 51.57,-169.4 306.79,-169.4 306.79,-138.6 51.57,-138.6"/>
<text text-anchor="start" x="58.57" y="-150.8" font-family="Arial" font-size="14.00">source </text>
<text text-anchor="start" x="104.48" y="-150.8" font-family="Arial" font-size="14.00" fill="#666666">[text]</text>
<polygon fill="none" stroke="black" points="51.57,-107.8 51.57,-138.6 306.79,-138.6 306.79,-107.8 51.57,-107.8"/>
<text text-anchor="start" x="58.57" y="-120" font-family="Arial" font-size="14.00">source_url </text>
<text text-anchor="start" x="127.82" y="-120" font-family="Arial" font-size="14.00" fill="#666666">[text]</text>
<polygon fill="none" stroke="black" points="51.57,-77 51.57,-107.8 306.79,-107.8 306.79,-77 51.57,-77"/>
<text text-anchor="start" x="58.57" y="-89.2" font-family="Arial" font-size="14.00">checked_at </text>
<text text-anchor="start" x="134.06" y="-89.2" font-family="Arial" font-size="14.00" fill="#666666">[timestamp with time zone]</text>
<polygon fill="none" stroke="black" points="51.57,-46.2 51.57,-77 306.79,-77 306.79,-46.2 51.57,-46.2"/>
<text text-anchor="start" x="58.57" y="-58.4" font-family="Arial" font-size="14.00">check_errors </text>
<text text-anchor="start" x="143.37" y="-58.4" font-family="Arial" font-size="14.00" fill="#666666">[text]</text>
<polygon fill="none" stroke="black" stroke-width="3" points="50.07,-44.7 50.07,-483.7 308.29,-483.7 308.29,-44.7 50.07,-44.7"/>
</g>
<!-- public.image_map -->
<g id="node2" class="node">
<title>public.image_map</title>
<polygon fill="#efefef" stroke="none" points="43.2,-792.4 43.2,-828 315.15,-828 315.15,-792.4 43.2,-792.4"/>
<polygon fill="none" stroke="black" points="43.2,-792.4 43.2,-828 315.15,-828 315.15,-792.4 43.2,-792.4"/>
<text text-anchor="start" x="50.2" y="-805.8" font-family="Arial Bold" font-size="18.00">public.image_map</text>
<text text-anchor="start" x="183.66" y="-805.8" font-family="Arial" font-size="14.00">    </text>
<text text-anchor="start" x="214.78" y="-805.8" font-family="Arial" font-size="14.00" fill="#666666">[BASE TABLE]</text>
<polygon fill="none" stroke="black" points="43.2,-761.6 43.2,-792.4 315.15,-792.4 315.15,-761.6 43.2,-761.6"/>
<text text-anchor="start" x="50.2" y="-773.8" font-family="Arial" font-size="14.00">artwork_id </text>
<text text-anchor="start" x="118.67" y="-773.8" font-family="Arial" font-size="14.00" fill="#666666">[bigint]</text>
<polygon fill="none" stroke="black" points="43.2,-730.8 43.2,-761.6 315.15,-761.6 315.15,-730.8 43.2,-730.8"/>
<text text-anchor="start" x="50.2" y="-743" font-family="Arial" font-size="14.00">entity_type </text>
<text text-anchor="start" x="121.8" y="-743" font-family="Arial" font-size="14.00" fill="#666666">[text]</text>
<polygon fill="none" stroke="black" points="43.2,-700 43.2,-730.8 315.15,-730.8 315.15,-700 43.2,-700"/>
<text text-anchor="start" x="50.2" y="-712.2" font-family="Arial" font-size="14.00">entity_id </text>
<text text-anchor="start" x="106.23" y="-712.2" font-family="Arial" font-size="14.00" fill="#666666">[text]</text>
<polygon fill="none" stroke="black" points="43.2,-669.2 43.2,-700 315.15,-700 315.15,-669.2 43.2,-669.2"/>
<text text-anchor="start" x="50.2" y="-681.4" font-family="Arial" font-size="14.00">image_type </text>
<text text-anchor="start" x="126.47" y="-681.4" font-family="Arial" font-size="14.00" fill="#666666">[text]</text>
<polygon fill="none" stroke="black" points="43.2,-638.4 43.2,-669.2 315.15,-669.2 315.15,-638.4 43.2,-638.4"/>
<text text-anchor="start" x="50.2" y="-650.6" font-family="Arial" font-size="14.00">score </text>
<text text-anchor="start" x="88.32" y="-650.6" font-family="Arial" font-size="14.00" fill="#666666">[double precision]</text>
<polygon fill="none" stroke="black" points="43.2,-607.6 43.2,-638.4 315.15,-638.4 315.15,-607.6 43.2,-607.6"/>
<text text-anchor="start" x="50.2" y="-619.8" font-family="Arial" font-size="14.00">created_at </text>
<text text-anchor="start" x="120.25" y="-619.8" font-family="Arial" font-size="14.00" fill="#666666">[timestamp with time zone]</text>
</g>
<!-- public.image_map&#45;&gt;public.artwork -->
<g id="edge1" class="edge">
<title>public.image_map:artwork_id&#45;&gt;public.artwork:id</title>
<path fill="none" stroke="black" d="M326,-774.97C392.13,-746.63 381.2,-431.2 307.79,-431.2"/>
<polygon fill="black" stroke="black" points="326.27,-774.91 315.57,-772.53 321.05,-775.99 316.81,-776.86 316.81,-776.86 316.81,-776.86 321.05,-775.99 317.39,-781.34 326.27,-774.91"/>
<text text-anchor="start" x="323.15" y="-787" font-family="Arial" font-size="10.00">FOREIGN KEY (artwork_id) REFERENCES artwork(id) ON DELETE CASCADE</text>
</g>
</g>
</svg>
