<?xml version="1.0" encoding="UTF-8" standalone="no"?>
<!DOCTYPE svg PUBLIC "-//W3C//DTD SVG 1.1//EN"
 "http://www.w3.org/Graphics/SVG/1.1/DTD/svg11.dtd">
<!-- Generated by graphviz version 12.1.2 (20240928.0832)
 -->
<!-- Title: public.image_map Pages: 1 -->
<svg width="697pt" height="879pt"
 viewBox="0.00 0.00 696.77 879.20" xmlns="http://www.w3.org/2000/svg" xmlns:xlink="http://www.w3.org/1999/xlink">
<g id="graph0" class="graph" transform="scale(1 1) rotate(0) translate(4 875.2)">
<title>public.image_map</title>
<polygon fill="white" stroke="none" points="-4,4 -4,-875.2 692.77,-875.2 692.77,4 -4,4"/>
<!-- public.image_map -->
<g id="node1" class="node">
<title>public.image_map</title>
<polygon fill="#efefef" stroke="none" points="46.2,-789.4 46.2,-825 318.15,-825 318.15,-789.4 46.2,-789.4"/>
<polygon fill="none" stroke="black" points="46.2,-789.4 46.2,-825 318.15,-825 318.15,-789.4 46.2,-789.4"/>
<text text-anchor="start" x="53.2" y="-802.8" font-family="Arial Bold" font-size="18.00">public.image_map</text>
<text text-anchor="start" x="186.66" y="-802.8" font-family="Arial" font-size="14.00">    </text>
<text text-anchor="start" x="217.78" y="-802.8" font-family="Arial" font-size="14.00" fill="#666666">[BASE TABLE]</text>
<polygon fill="none" stroke="black" points="46.2,-758.6 46.2,-789.4 318.15,-789.4 318.15,-758.6 46.2,-758.6"/>
<text text-anchor="start" x="53.2" y="-770.8" font-family="Arial" font-size="14.00">artwork_id </text>
<text text-anchor="start" x="121.67" y="-770.8" font-family="Arial" font-size="14.00" fill="#666666">[bigint]</text>
<polygon fill="none" stroke="black" points="46.2,-727.8 46.2,-758.6 318.15,-758.6 318.15,-727.8 46.2,-727.8"/>
<text text-anchor="start" x="53.2" y="-740" font-family="Arial" font-size="14.00">entity_type </text>
<text text-anchor="start" x="124.8" y="-740" font-family="Arial" font-size="14.00" fill="#666666">[text]</text>
<polygon fill="none" stroke="black" points="46.2,-697 46.2,-727.8 318.15,-727.8 318.15,-697 46.2,-697"/>
<text text-anchor="start" x="53.2" y="-709.2" font-family="Arial" font-size="14.00">entity_id </text>
<text text-anchor="start" x="109.23" y="-709.2" font-family="Arial" font-size="14.00" fill="#666666">[text]</text>
<polygon fill="none" stroke="black" points="46.2,-666.2 46.2,-697 318.15,-697 318.15,-666.2 46.2,-666.2"/>
<text text-anchor="start" x="53.2" y="-678.4" font-family="Arial" font-size="14.00">image_type </text>
<text text-anchor="start" x="129.47" y="-678.4" font-family="Arial" font-size="14.00" fill="#666666">[text]</text>
<polygon fill="none" stroke="black" points="46.2,-635.4 46.2,-666.2 318.15,-666.2 318.15,-635.4 46.2,-635.4"/>
<text text-anchor="start" x="53.2" y="-647.6" font-family="Arial" font-size="14.00">score </text>
<text text-anchor="start" x="91.32" y="-647.6" font-family="Arial" font-size="14.00" fill="#666666">[double precision]</text>
<polygon fill="none" stroke="black" points="46.2,-604.6 46.2,-635.4 318.15,-635.4 318.15,-604.6 46.2,-604.6"/>
<text text-anchor="start" x="53.2" y="-616.8" font-family="Arial" font-size="14.00">created_at </text>
<text text-anchor="start" x="123.25" y="-616.8" font-family="Arial" font-size="14.00" fill="#666666">[timestamp with time zone]</text>
<polygon fill="none" stroke="black" stroke-width="3" points="44.7,-603.1 44.7,-826.5 319.65,-826.5 319.65,-603.1 44.7,-603.1"/>
</g>
<!-- public.artwork -->
<g id="node2" class="node">
<title>public.artwork</title>
<polygon fill="#efefef" stroke="none" points="54.57,-443.6 54.57,-479.2 309.79,-479.2 309.79,-443.6 54.57,-443.6"/>
<polygon fill="none" stroke="black" points="54.57,-443.6 54.57,-479.2 309.79,-479.2 309.79,-443.6 54.57,-443.6"/>
<text text-anchor="start" x="67.2" y="-457" font-family="Arial Bold" font-size="18.00">public.artwork</text>
<text text-anchor="start" x="172.67" y="-457" font-family="Arial" font-size="14.00">    </text>
<text text-anchor="start" x="203.78" y="-457" font-family="Arial" font-size="14.00" fill="#666666">[BASE TABLE]</text>
<polygon fill="none" stroke="black" points="54.57,-412.8 54.57,-443.6 309.79,-443.6 309.79,-412.8 54.57,-412.8"/>
<text text-anchor="start" x="61.57" y="-425" font-family="Arial" font-size="14.00">id </text>
<text text-anchor="start" x="76.35" y="-425" font-family="Arial" font-size="14.00" fill="#666666">[bigint]</text>
<polygon fill="none" stroke="black" points="54.57,-382 54.57,-412.8 309.79,-412.8 309.79,-382 54.57,-382"/>
<text text-anchor="start" x="61.57" y="-394.2" font-family="Arial" font-size="14.00">sha1 </text>
<text text-anchor="start" x="95.81" y="-394.2" font-family="Arial" font-size="14.00" fill="#666666">[text]</text>
<polygon fill="none" stroke="black" points="54.57,-351.2 54.57,-382 309.79,-382 309.79,-351.2 54.57,-351.2"/>
<text text-anchor="start" x="61.57" y="-363.4" font-family="Arial" font-size="14.00">type </text>
<text text-anchor="start" x="91.92" y="-363.4" font-family="Arial" font-size="14.00" fill="#666666">[text]</text>
<polygon fill="none" stroke="black" points="54.57,-320.4 54.57,-351.2 309.79,-351.2 309.79,-320.4 54.57,-320.4"/>
<text text-anchor="start" x="61.57" y="-332.6" font-family="Arial" font-size="14.00">mime </text>
<text text-anchor="start" x="99.68" y="-332.6" font-family="Arial" font-size="14.00" fill="#666666">[text]</text>
<polygon fill="none" stroke="black" points="54.57,-289.6 54.57,-320.4 309.79,-320.4 309.79,-289.6 54.57,-289.6"/>
<text text-anchor="start" x="61.57" y="-301.8" font-family="Arial" font-size="14.00">width </text>
<text text-anchor="start" x="98.14" y="-301.8" font-family="Arial" font-size="14.00" fill="#666666">[integer]</text>
<polygon fill="none" stroke="black" points="54.57,-258.8 54.57,-289.6 309.79,-289.6 309.79,-258.8 54.57,-258.8"/>
<text text-anchor="start" x="61.57" y="-271" font-family="Arial" font-size="14.00">height </text>
<text text-anchor="start" x="103.6" y="-271" font-family="Arial" font-size="14.00" fill="#666666">[integer]</text>
<polygon fill="none" stroke="black" points="54.57,-228 54.57,-258.8 309.79,-258.8 309.79,-228 54.57,-228"/>
<text text-anchor="start" x="61.57" y="-240.2" font-family="Arial" font-size="14.00">path_on_disk </text>
<text text-anchor="start" x="148.74" y="-240.2" font-family="Arial" font-size="14.00" fill="#666666">[text]</text>
<polygon fill="none" stroke="black" points="54.57,-197.2 54.57,-228 309.79,-228 309.79,-197.2 54.57,-197.2"/>
<text text-anchor="start" x="61.57" y="-209.4" font-family="Arial" font-size="14.00">filesize_bytes </text>
<text text-anchor="start" x="149.5" y="-209.4" font-family="Arial" font-size="14.00" fill="#666666">[bigint]</text>
<polygon fill="none" stroke="black" points="54.57,-166.4 54.57,-197.2 309.79,-197.2 309.79,-166.4 54.57,-166.4"/>
<text text-anchor="start" x="61.57" y="-178.6" font-family="Arial" font-size="14.00">image_format </text>
<text text-anchor="start" x="151.05" y="-178.6" font-family="Arial" font-size="14.00" fill="#666666">[text]</text>
<polygon fill="none" stroke="black" points="54.57,-135.6 54.57,-166.4 309.79,-166.4 309.79,-135.6 54.57,-135.6"/>
<text text-anchor="start" x="61.57" y="-147.8" font-family="Arial" font-size="14.00">source </text>
<text text-anchor="start" x="107.48" y="-147.8" font-family="Arial" font-size="14.00" fill="#666666">[text]</text>
<polygon fill="none" stroke="black" points="54.57,-104.8 54.57,-135.6 309.79,-135.6 309.79,-104.8 54.57,-104.8"/>
<text text-anchor="start" x="61.57" y="-117" font-family="Arial" font-size="14.00">source_url </text>
<text text-anchor="start" x="130.82" y="-117" font-family="Arial" font-size="14.00" fill="#666666">[text]</text>
<polygon fill="none" stroke="black" points="54.57,-74 54.57,-104.8 309.79,-104.8 309.79,-74 54.57,-74"/>
<text text-anchor="start" x="61.57" y="-86.2" font-family="Arial" font-size="14.00">checked_at </text>
<text text-anchor="start" x="137.06" y="-86.2" font-family="Arial" font-size="14.00" fill="#666666">[timestamp with time zone]</text>
<polygon fill="none" stroke="black" points="54.57,-43.2 54.57,-74 309.79,-74 309.79,-43.2 54.57,-43.2"/>
<text text-anchor="start" x="61.57" y="-55.4" font-family="Arial" font-size="14.00">check_errors </text>
<text text-anchor="start" x="146.37" y="-55.4" font-family="Arial" font-size="14.00" fill="#666666">[text]</text>
</g>
<!-- public.image_map&#45;&gt;public.artwork -->
<g id="edge1" class="edge">
<title>public.image_map:artwork_id&#45;&gt;public.artwork:id</title>
<path fill="none" stroke="black" d="M329,-771.97C395.13,-743.63 384.2,-428.2 310.79,-428.2"/>
<polygon fill="black" stroke="black" points="329.27,-771.91 318.57,-769.53 324.05,-772.99 319.81,-773.86 319.81,-773.86 319.81,-773.86 324.05,-772.99 320.39,-778.34 329.27,-771.91"/>
<text text-anchor="start" x="326.15" y="-784" font-family="Arial" font-size="10.00">FOREIGN KEY (artwork_id) REFERENCES artwork(id) ON DELETE CASCADE</text>
</g>
</g>
</svg>
