<?xml version="1.0" encoding="UTF-8" standalone="no"?>
<!DOCTYPE svg PUBLIC "-//W3C//DTD SVG 1.1//EN"
 "http://www.w3.org/Graphics/SVG/1.1/DTD/svg11.dtd">
<!-- Generated by graphviz version 12.1.2 (20240928.0832)
 -->
<!-- Title: public.artist_album Pages: 1 -->
<svg width="1049pt" height="694pt"
 viewBox="0.00 0.00 1049.45 694.40" xmlns="http://www.w3.org/2000/svg" xmlns:xlink="http://www.w3.org/1999/xlink">
<g id="graph0" class="graph" transform="scale(1 1) rotate(0) translate(4 690.4)">
<title>public.artist_album</title>
<polygon fill="white" stroke="none" points="-4,4 -4,-690.4 1045.45,-690.4 1045.45,4 -4,4"/>
<!-- public.artist_album -->
<g id="node1" class="node">
<title>public.artist_album</title>
<polygon fill="#efefef" stroke="none" points="376.18,-604.6 376.18,-640.2 654.14,-640.2 654.14,-604.6 376.18,-604.6"/>
<polygon fill="none" stroke="black" points="376.18,-604.6 376.18,-640.2 654.14,-640.2 654.14,-604.6 376.18,-604.6"/>
<text text-anchor="start" x="383.18" y="-618" font-family="Arial Bold" font-size="18.00">public.artist_album</text>
<text text-anchor="start" x="522.65" y="-618" font-family="Arial" font-size="14.00">    </text>
<text text-anchor="start" x="553.77" y="-618" font-family="Arial" font-size="14.00" fill="#666666">[BASE TABLE]</text>
<polygon fill="none" stroke="black" points="376.18,-573.8 376.18,-604.6 654.14,-604.6 654.14,-573.8 376.18,-573.8"/>
<text text-anchor="start" x="383.18" y="-586" font-family="Arial" font-size="14.00">artist_mbid </text>
<text text-anchor="start" x="455.54" y="-586" font-family="Arial" font-size="14.00" fill="#666666">[text]</text>
<polygon fill="none" stroke="black" points="376.18,-543 376.18,-573.8 654.14,-573.8 654.14,-543 376.18,-543"/>
<text text-anchor="start" x="383.18" y="-555.2" font-family="Arial" font-size="14.00">album_mbid </text>
<text text-anchor="start" x="463.33" y="-555.2" font-family="Arial" font-size="14.00" fill="#666666">[text]</text>
<polygon fill="none" stroke="black" points="376.18,-512.2 376.18,-543 654.14,-543 654.14,-512.2 376.18,-512.2"/>
<text text-anchor="start" x="383.18" y="-524.4" font-family="Arial" font-size="14.00">type </text>
<text text-anchor="start" x="413.53" y="-524.4" font-family="Arial" font-size="14.00" fill="#666666">[text]</text>
<polygon fill="none" stroke="black" stroke-width="3" points="374.68,-510.7 374.68,-641.7 655.64,-641.7 655.64,-510.7 374.68,-510.7"/>
</g>
<!-- public.artist -->
<g id="node2" class="node">
<title>public.artist</title>
<polygon fill="#efefef" stroke="none" points="209.32,-335.8 209.32,-371.4 463,-371.4 463,-335.8 209.32,-335.8"/>
<polygon fill="none" stroke="black" points="209.32,-335.8 209.32,-371.4 463,-371.4 463,-335.8 209.32,-335.8"/>
<text text-anchor="start" x="231.17" y="-349.2" font-family="Arial Bold" font-size="18.00">public.artist</text>
<text text-anchor="start" x="316.65" y="-349.2" font-family="Arial" font-size="14.00">    </text>
<text text-anchor="start" x="347.77" y="-349.2" font-family="Arial" font-size="14.00" fill="#666666">[BASE TABLE]</text>
<polygon fill="none" stroke="black" points="209.32,-305 209.32,-335.8 463,-335.8 463,-305 209.32,-305"/>
<text text-anchor="start" x="216.32" y="-317.2" font-family="Arial" font-size="14.00">mbid </text>
<text text-anchor="start" x="250.55" y="-317.2" font-family="Arial" font-size="14.00" fill="#666666">[text]</text>
<polygon fill="none" stroke="black" points="209.32,-274.2 209.32,-305 463,-305 463,-274.2 209.32,-274.2"/>
<text text-anchor="start" x="216.32" y="-286.4" font-family="Arial" font-size="14.00">name </text>
<text text-anchor="start" x="255.23" y="-286.4" font-family="Arial" font-size="14.00" fill="#666666">[citext]</text>
<polygon fill="none" stroke="black" points="209.32,-243.4 209.32,-274.2 463,-274.2 463,-243.4 209.32,-243.4"/>
<text text-anchor="start" x="216.32" y="-255.6" font-family="Arial" font-size="14.00">sort_name </text>
<text text-anchor="start" x="286.35" y="-255.6" font-family="Arial" font-size="14.00" fill="#666666">[text]</text>
<polygon fill="none" stroke="black" points="209.32,-212.6 209.32,-243.4 463,-243.4 463,-212.6 209.32,-212.6"/>
<text text-anchor="start" x="216.32" y="-224.8" font-family="Arial" font-size="14.00">bio </text>
<text text-anchor="start" x="238.89" y="-224.8" font-family="Arial" font-size="14.00" fill="#666666">[text]</text>
<polygon fill="none" stroke="black" points="209.32,-181.8 209.32,-212.6 463,-212.6 463,-181.8 209.32,-181.8"/>
<text text-anchor="start" x="216.32" y="-194" font-family="Arial" font-size="14.00">image_url </text>
<text text-anchor="start" x="281.68" y="-194" font-family="Arial" font-size="14.00" fill="#666666">[text]</text>
<polygon fill="none" stroke="black" points="209.32,-151 209.32,-181.8 463,-181.8 463,-151 209.32,-151"/>
<text text-anchor="start" x="216.32" y="-163.2" font-family="Arial" font-size="14.00">image_source </text>
<text text-anchor="start" x="308.14" y="-163.2" font-family="Arial" font-size="14.00" fill="#666666">[text]</text>
<polygon fill="none" stroke="black" points="209.32,-120.2 209.32,-151 463,-151 463,-120.2 209.32,-120.2"/>
<text text-anchor="start" x="216.32" y="-132.4" font-family="Arial" font-size="14.00">artwork_id </text>
<text text-anchor="start" x="284.79" y="-132.4" font-family="Arial" font-size="14.00" fill="#666666">[bigint]</text>
<polygon fill="none" stroke="black" points="209.32,-89.4 209.32,-120.2 463,-120.2 463,-89.4 209.32,-89.4"/>
<text text-anchor="start" x="216.32" y="-101.6" font-family="Arial" font-size="14.00">letter </text>
<text text-anchor="start" x="251.33" y="-101.6" font-family="Arial" font-size="14.00" fill="#666666">[text]</text>
<polygon fill="none" stroke="black" points="209.32,-58.6 209.32,-89.4 463,-89.4 463,-58.6 209.32,-58.6"/>
<text text-anchor="start" x="216.32" y="-70.8" font-family="Arial" font-size="14.00">updated_at </text>
<text text-anchor="start" x="290.28" y="-70.8" font-family="Arial" font-size="14.00" fill="#666666">[timestamp with time zone]</text>
</g>
<!-- public.artist_album&#45;&gt;public.artist -->
<g id="edge1" class="edge">
<title>public.artist_album:artist_mbid&#45;&gt;public.artist:mbid</title>
<path fill="none" stroke="black" d="M364.83,-588.11C324.41,-578.69 350.79,-510.12 376.18,-466 398.54,-427.13 440.58,-453.44 463,-414.6 483.93,-378.34 505.87,-320.4 464,-320.4"/>
<polygon fill="black" stroke="black" points="364.9,-588.12 374.37,-593.64 370.2,-588.68 374.51,-589.13 374.51,-589.13 374.51,-589.13 370.2,-588.68 375.31,-584.69 364.9,-588.12"/>
<text text-anchor="start" x="7" y="-599.2" font-family="Arial" font-size="10.00">FOREIGN KEY (artist_mbid) REFERENCES artist(mbid) ON DELETE CASCADE</text>
</g>
<!-- public.album -->
<g id="node3" class="node">
<title>public.album</title>
<polygon fill="#efefef" stroke="none" points="567.32,-351.2 567.32,-386.8 821,-386.8 821,-351.2 567.32,-351.2"/>
<polygon fill="none" stroke="black" points="567.32,-351.2 567.32,-386.8 821,-386.8 821,-351.2 567.32,-351.2"/>
<text text-anchor="start" x="584.67" y="-364.6" font-family="Arial Bold" font-size="18.00">public.album</text>
<text text-anchor="start" x="679.15" y="-364.6" font-family="Arial" font-size="14.00">    </text>
<text text-anchor="start" x="710.27" y="-364.6" font-family="Arial" font-size="14.00" fill="#666666">[BASE TABLE]</text>
<polygon fill="none" stroke="black" points="567.32,-320.4 567.32,-351.2 821,-351.2 821,-320.4 567.32,-320.4"/>
<text text-anchor="start" x="574.32" y="-332.6" font-family="Arial" font-size="14.00">mbid </text>
<text text-anchor="start" x="608.55" y="-332.6" font-family="Arial" font-size="14.00" fill="#666666">[text]</text>
<polygon fill="none" stroke="black" points="567.32,-289.6 567.32,-320.4 821,-320.4 821,-289.6 567.32,-289.6"/>
<text text-anchor="start" x="574.32" y="-301.8" font-family="Arial" font-size="14.00">release_group_mbid </text>
<text text-anchor="start" x="705.85" y="-301.8" font-family="Arial" font-size="14.00" fill="#666666">[text]</text>
<polygon fill="none" stroke="black" points="567.32,-258.8 567.32,-289.6 821,-289.6 821,-258.8 567.32,-258.8"/>
<text text-anchor="start" x="574.32" y="-271" font-family="Arial" font-size="14.00">title </text>
<text text-anchor="start" x="599.99" y="-271" font-family="Arial" font-size="14.00" fill="#666666">[text]</text>
<polygon fill="none" stroke="black" points="567.32,-228 567.32,-258.8 821,-258.8 821,-228 567.32,-228"/>
<text text-anchor="start" x="574.32" y="-240.2" font-family="Arial" font-size="14.00">release_date </text>
<text text-anchor="start" x="659.16" y="-240.2" font-family="Arial" font-size="14.00" fill="#666666">[date]</text>
<polygon fill="none" stroke="black" points="567.32,-197.2 567.32,-228 821,-228 821,-197.2 567.32,-197.2"/>
<text text-anchor="start" x="574.32" y="-209.4" font-family="Arial" font-size="14.00">release_type </text>
<text text-anchor="start" x="658.37" y="-209.4" font-family="Arial" font-size="14.00" fill="#666666">[text]</text>
<polygon fill="none" stroke="black" points="567.32,-166.4 567.32,-197.2 821,-197.2 821,-166.4 567.32,-166.4"/>
<text text-anchor="start" x="574.32" y="-178.6" font-family="Arial" font-size="14.00">release_type_raw </text>
<text text-anchor="start" x="688.72" y="-178.6" font-family="Arial" font-size="14.00" fill="#666666">[text]</text>
<polygon fill="none" stroke="black" points="567.32,-135.6 567.32,-166.4 821,-166.4 821,-135.6 567.32,-135.6"/>
<text text-anchor="start" x="574.32" y="-147.8" font-family="Arial" font-size="14.00">artwork_id </text>
<text text-anchor="start" x="642.79" y="-147.8" font-family="Arial" font-size="14.00" fill="#666666">[bigint]</text>
<polygon fill="none" stroke="black" points="567.32,-104.8 567.32,-135.6 821,-135.6 821,-104.8 567.32,-104.8"/>
<text text-anchor="start" x="574.32" y="-117" font-family="Arial" font-size="14.00">description </text>
<text text-anchor="start" x="645.91" y="-117" font-family="Arial" font-size="14.00" fill="#666666">[text]</text>
<polygon fill="none" stroke="black" points="567.32,-74 567.32,-104.8 821,-104.8 821,-74 567.32,-74"/>
<text text-anchor="start" x="574.32" y="-86.2" font-family="Arial" font-size="14.00">peak_chart_position </text>
<text text-anchor="start" x="703.52" y="-86.2" font-family="Arial" font-size="14.00" fill="#666666">[integer]</text>
<polygon fill="none" stroke="black" points="567.32,-43.2 567.32,-74 821,-74 821,-43.2 567.32,-43.2"/>
<text text-anchor="start" x="574.32" y="-55.4" font-family="Arial" font-size="14.00">updated_at </text>
<text text-anchor="start" x="648.28" y="-55.4" font-family="Arial" font-size="14.00" fill="#666666">[timestamp with time zone]</text>
</g>
<!-- public.artist_album&#45;&gt;public.album -->
<g id="edge2" class="edge">
<title>public.artist_album:album_mbid&#45;&gt;public.album:mbid</title>
<path fill="none" stroke="black" d="M665.15,-556.93C692.6,-547.67 674.98,-496.84 654.14,-466 630.75,-431.39 590.7,-464.61 567.32,-430 543.88,-395.31 524.45,-335.8 566.32,-335.8"/>
<polygon fill="black" stroke="black" points="665.36,-556.9 654.82,-553.9 660.09,-557.67 655.8,-558.3 655.8,-558.3 655.8,-558.3 660.09,-557.67 656.12,-562.8 665.36,-556.9"/>
<text text-anchor="start" x="662.14" y="-568.4" font-family="Arial" font-size="10.00">FOREIGN KEY (album_mbid) REFERENCES album(mbid) ON DELETE CASCADE</text>
</g>
</g>
</svg>
