<?xml version="1.0" encoding="UTF-8" standalone="no"?>
<!DOCTYPE svg PUBLIC "-//W3C//DTD SVG 1.1//EN"
 "http://www.w3.org/Graphics/SVG/1.1/DTD/svg11.dtd">
<!-- Generated by graphviz version 12.1.2 (20240928.0832)
 -->
<!-- Title: public.lastfm_skip_artist Pages: 1 -->
<svg width="417pt" height="228pt"
 viewBox="0.00 0.00 417.37 228.40" xmlns="http://www.w3.org/2000/svg" xmlns:xlink="http://www.w3.org/1999/xlink">
<g id="graph0" class="graph" transform="scale(1 1) rotate(0) translate(4 224.4)">
<title>public.lastfm_skip_artist</title>
<polygon fill="white" stroke="none" points="-4,4 -4,-224.4 413.37,-224.4 413.37,4 -4,4"/>
<!-- public.lastfm_skip_artist -->
<g id="node1" class="node">
<title>public.lastfm_skip_artist</title>
<polygon fill="#efefef" stroke="none" points="46.2,-138.6 46.2,-174.2 363.17,-174.2 363.17,-138.6 46.2,-138.6"/>
<polygon fill="none" stroke="black" points="46.2,-138.6 46.2,-174.2 363.17,-174.2 363.17,-138.6 46.2,-138.6"/>
<text text-anchor="start" x="53.2" y="-152" font-family="Arial Bold" font-size="18.00">public.lastfm_skip_artist</text>
<text text-anchor="start" x="231.68" y="-152" font-family="Arial" font-size="14.00">    </text>
<text text-anchor="start" x="262.8" y="-152" font-family="Arial" font-size="14.00" fill="#666666">[BASE TABLE]</text>
<polygon fill="none" stroke="black" points="46.2,-107.8 46.2,-138.6 363.17,-138.6 363.17,-107.8 46.2,-107.8"/>
<text text-anchor="start" x="53.2" y="-120" font-family="Arial" font-size="14.00">artist_name </text>
<text text-anchor="start" x="130.23" y="-120" font-family="Arial" font-size="14.00" fill="#666666">[text]</text>
<polygon fill="none" stroke="black" points="46.2,-77 46.2,-107.8 363.17,-107.8 363.17,-77 46.2,-77"/>
<text text-anchor="start" x="53.2" y="-89.2" font-family="Arial" font-size="14.00">reason </text>
<text text-anchor="start" x="99.9" y="-89.2" font-family="Arial" font-size="14.00" fill="#666666">[text]</text>
<polygon fill="none" stroke="black" points="46.2,-46.2 46.2,-77 363.17,-77 363.17,-46.2 46.2,-46.2"/>
<text text-anchor="start" x="53.2" y="-58.4" font-family="Arial" font-size="14.00">added_at </text>
<text text-anchor="start" x="115.48" y="-58.4" font-family="Arial" font-size="14.00" fill="#666666">[timestamp with time zone]</text>
<polygon fill="none" stroke="black" stroke-width="3" points="44.7,-44.7 44.7,-175.7 364.67,-175.7 364.67,-44.7 44.7,-44.7"/>
</g>
</g>
</svg>
