<?xml version="1.0" encoding="UTF-8" standalone="no"?>
<!DOCTYPE svg PUBLIC "-//W3C//DTD SVG 1.1//EN"
 "http://www.w3.org/Graphics/SVG/1.1/DTD/svg11.dtd">
<!-- Generated by graphviz version 12.1.2 (20240928.0832)
 -->
<!-- Title: public.combined_playback_history Pages: 1 -->
<svg width="443pt" height="475pt"
 viewBox="0.00 0.00 442.52 474.80" xmlns="http://www.w3.org/2000/svg" xmlns:xlink="http://www.w3.org/1999/xlink">
<g id="graph0" class="graph" transform="scale(1 1) rotate(0) translate(4 470.8)">
<title>public.combined_playback_history</title>
<polygon fill="white" stroke="none" points="-4,4 -4,-470.8 438.52,-470.8 438.52,4 -4,4"/>
<!-- public.combined_playback_history -->
<g id="node1" class="node">
<title>public.combined_playback_history</title>
<polygon fill="#efefef" stroke="none" points="46.2,-385 46.2,-420.6 388.32,-420.6 388.32,-385 46.2,-385"/>
<polygon fill="none" stroke="black" points="46.2,-385 46.2,-420.6 388.32,-420.6 388.32,-385 46.2,-385"/>
<text text-anchor="start" x="53.2" y="-398.4" font-family="Arial Bold" font-size="18.00">public.combined_playback_history</text>
<text text-anchor="start" x="306.64" y="-398.4" font-family="Arial" font-size="14.00">    </text>
<text text-anchor="start" x="337.76" y="-398.4" font-family="Arial" font-size="14.00" fill="#666666">[VIEW]</text>
<polygon fill="none" stroke="black" points="46.2,-354.2 46.2,-385 388.32,-385 388.32,-354.2 46.2,-354.2"/>
<text text-anchor="start" x="53.2" y="-366.4" font-family="Arial" font-size="14.00">source </text>
<text text-anchor="start" x="99.11" y="-366.4" font-family="Arial" font-size="14.00" fill="#666666">[text]</text>
<polygon fill="none" stroke="black" points="46.2,-323.4 46.2,-354.2 388.32,-354.2 388.32,-323.4 46.2,-323.4"/>
<text text-anchor="start" x="53.2" y="-335.6" font-family="Arial" font-size="14.00">source_id </text>
<text text-anchor="start" x="117.79" y="-335.6" font-family="Arial" font-size="14.00" fill="#666666">[bigint]</text>
<polygon fill="none" stroke="black" points="46.2,-292.6 46.2,-323.4 388.32,-323.4 388.32,-292.6 46.2,-292.6"/>
<text text-anchor="start" x="53.2" y="-304.8" font-family="Arial" font-size="14.00">track_id </text>
<text text-anchor="start" x="106.11" y="-304.8" font-family="Arial" font-size="14.00" fill="#666666">[bigint]</text>
<polygon fill="none" stroke="black" points="46.2,-261.8 46.2,-292.6 388.32,-292.6 388.32,-261.8 46.2,-261.8"/>
<text text-anchor="start" x="53.2" y="-274" font-family="Arial" font-size="14.00">played_at </text>
<text text-anchor="start" x="117.81" y="-274" font-family="Arial" font-size="14.00" fill="#666666">[timestamp with time zone]</text>
<polygon fill="none" stroke="black" points="46.2,-231 46.2,-261.8 388.32,-261.8 388.32,-231 46.2,-231"/>
<text text-anchor="start" x="53.2" y="-243.2" font-family="Arial" font-size="14.00">user_id </text>
<text text-anchor="start" x="103.01" y="-243.2" font-family="Arial" font-size="14.00" fill="#666666">[bigint]</text>
<polygon fill="none" stroke="black" points="46.2,-200.2 46.2,-231 388.32,-231 388.32,-200.2 46.2,-200.2"/>
<text text-anchor="start" x="53.2" y="-212.4" font-family="Arial" font-size="14.00">lastfm_username </text>
<text text-anchor="start" x="164.47" y="-212.4" font-family="Arial" font-size="14.00" fill="#666666">[text]</text>
<polygon fill="none" stroke="black" points="46.2,-169.4 46.2,-200.2 388.32,-200.2 388.32,-169.4 46.2,-169.4"/>
<text text-anchor="start" x="53.2" y="-181.6" font-family="Arial" font-size="14.00">client_id </text>
<text text-anchor="start" x="108.45" y="-181.6" font-family="Arial" font-size="14.00" fill="#666666">[text]</text>
<polygon fill="none" stroke="black" points="46.2,-138.6 46.2,-169.4 388.32,-169.4 388.32,-138.6 46.2,-138.6"/>
<text text-anchor="start" x="53.2" y="-150.8" font-family="Arial" font-size="14.00">hostname </text>
<text text-anchor="start" x="118.57" y="-150.8" font-family="Arial" font-size="14.00" fill="#666666">[text]</text>
<polygon fill="none" stroke="black" points="46.2,-107.8 46.2,-138.6 388.32,-138.6 388.32,-107.8 46.2,-107.8"/>
<text text-anchor="start" x="53.2" y="-120" font-family="Arial" font-size="14.00">client_ip </text>
<text text-anchor="start" x="108.45" y="-120" font-family="Arial" font-size="14.00" fill="#666666">[text]</text>
<polygon fill="none" stroke="black" points="46.2,-77 46.2,-107.8 388.32,-107.8 388.32,-77 46.2,-77"/>
<text text-anchor="start" x="53.2" y="-89.2" font-family="Arial" font-size="14.00">match_score </text>
<text text-anchor="start" x="137.23" y="-89.2" font-family="Arial" font-size="14.00" fill="#666666">[double precision]</text>
<polygon fill="none" stroke="black" points="46.2,-46.2 46.2,-77 388.32,-77 388.32,-46.2 46.2,-46.2"/>
<text text-anchor="start" x="53.2" y="-58.4" font-family="Arial" font-size="14.00">match_method </text>
<text text-anchor="start" x="149.7" y="-58.4" font-family="Arial" font-size="14.00" fill="#666666">[text]</text>
<polygon fill="none" stroke="black" stroke-width="3" points="44.7,-44.7 44.7,-422.1 389.82,-422.1 389.82,-44.7 44.7,-44.7"/>
</g>
</g>
</svg>
