<?xml version="1.0" encoding="UTF-8" standalone="no"?>
<!DOCTYPE svg PUBLIC "-//W3C//DTD SVG 1.1//EN"
 "http://www.w3.org/Graphics/SVG/1.1/DTD/svg11.dtd">
<!-- Generated by graphviz version 12.1.2 (20240928.0832)
 -->
<!-- Title: public.track_artist Pages: 1 -->
<svg width="1002pt" height="1341pt"
 viewBox="0.00 0.00 1001.52 1341.20" xmlns="http://www.w3.org/2000/svg" xmlns:xlink="http://www.w3.org/1999/xlink">
<g id="graph0" class="graph" transform="scale(1 1) rotate(0) translate(4 1337.2)">
<title>public.track_artist</title>
<polygon fill="white" stroke="none" points="-4,4 -4,-1337.2 997.52,-1337.2 997.52,4 -4,4"/>
<!-- public.track_artist -->
<g id="node1" class="node">
<title>public.track_artist</title>
<polygon fill="#efefef" stroke="none" points="348.39,-1251.4 348.39,-1287 617.34,-1287 617.34,-1251.4 348.39,-1251.4"/>
<polygon fill="none" stroke="black" points="348.39,-1251.4 348.39,-1287 617.34,-1287 617.34,-1251.4 348.39,-1251.4"/>
<text text-anchor="start" x="355.39" y="-1264.8" font-family="Arial Bold" font-size="18.00">public.track_artist</text>
<text text-anchor="start" x="485.85" y="-1264.8" font-family="Arial" font-size="14.00">    </text>
<text text-anchor="start" x="516.97" y="-1264.8" font-family="Arial" font-size="14.00" fill="#666666">[BASE TABLE]</text>
<polygon fill="none" stroke="black" points="348.39,-1220.6 348.39,-1251.4 617.34,-1251.4 617.34,-1220.6 348.39,-1220.6"/>
<text text-anchor="start" x="355.39" y="-1232.8" font-family="Arial" font-size="14.00">track_id </text>
<text text-anchor="start" x="408.3" y="-1232.8" font-family="Arial" font-size="14.00" fill="#666666">[bigint]</text>
<polygon fill="none" stroke="black" points="348.39,-1189.8 348.39,-1220.6 617.34,-1220.6 617.34,-1189.8 348.39,-1189.8"/>
<text text-anchor="start" x="355.39" y="-1202" font-family="Arial" font-size="14.00">artist_mbid </text>
<text text-anchor="start" x="427.75" y="-1202" font-family="Arial" font-size="14.00" fill="#666666">[text]</text>
<polygon fill="none" stroke="black" stroke-width="3" points="346.89,-1188.3 346.89,-1288.5 618.84,-1288.5 618.84,-1188.3 346.89,-1188.3"/>
</g>
<!-- public.track -->
<g id="node2" class="node">
<title>public.track</title>
<polygon fill="#efefef" stroke="none" points="177.03,-1028.8 177.03,-1064.4 430.71,-1064.4 430.71,-1028.8 177.03,-1028.8"/>
<polygon fill="none" stroke="black" points="177.03,-1028.8 177.03,-1064.4 430.71,-1064.4 430.71,-1028.8 177.03,-1028.8"/>
<text text-anchor="start" x="198.89" y="-1042.2" font-family="Arial Bold" font-size="18.00">public.track</text>
<text text-anchor="start" x="284.35" y="-1042.2" font-family="Arial" font-size="14.00">    </text>
<text text-anchor="start" x="315.47" y="-1042.2" font-family="Arial" font-size="14.00" fill="#666666">[BASE TABLE]</text>
<polygon fill="none" stroke="black" points="177.03,-998 177.03,-1028.8 430.71,-1028.8 430.71,-998 177.03,-998"/>
<text text-anchor="start" x="184.03" y="-1010.2" font-family="Arial" font-size="14.00">id </text>
<text text-anchor="start" x="198.81" y="-1010.2" font-family="Arial" font-size="14.00" fill="#666666">[bigint]</text>
<polygon fill="none" stroke="black" points="177.03,-967.2 177.03,-998 430.71,-998 430.71,-967.2 177.03,-967.2"/>
<text text-anchor="start" x="184.03" y="-979.4" font-family="Arial" font-size="14.00">path </text>
<text text-anchor="start" x="215.16" y="-979.4" font-family="Arial" font-size="14.00" fill="#666666">[text]</text>
<polygon fill="none" stroke="black" points="177.03,-936.4 177.03,-967.2 430.71,-967.2 430.71,-936.4 177.03,-936.4"/>
<text text-anchor="start" x="184.03" y="-948.6" font-family="Arial" font-size="14.00">updated_at </text>
<text text-anchor="start" x="257.98" y="-948.6" font-family="Arial" font-size="14.00" fill="#666666">[timestamp with time zone]</text>
<polygon fill="none" stroke="black" points="177.03,-905.6 177.03,-936.4 430.71,-936.4 430.71,-905.6 177.03,-905.6"/>
<text text-anchor="start" x="184.03" y="-917.8" font-family="Arial" font-size="14.00">title </text>
<text text-anchor="start" x="209.7" y="-917.8" font-family="Arial" font-size="14.00" fill="#666666">[text]</text>
<polygon fill="none" stroke="black" points="177.03,-874.8 177.03,-905.6 430.71,-905.6 430.71,-874.8 177.03,-874.8"/>
<text text-anchor="start" x="184.03" y="-887" font-family="Arial" font-size="14.00">artist </text>
<text text-anchor="start" x="218.25" y="-887" font-family="Arial" font-size="14.00" fill="#666666">[text]</text>
<polygon fill="none" stroke="black" points="177.03,-844 177.03,-874.8 430.71,-874.8 430.71,-844 177.03,-844"/>
<text text-anchor="start" x="184.03" y="-856.2" font-family="Arial" font-size="14.00">album </text>
<text text-anchor="start" x="226.05" y="-856.2" font-family="Arial" font-size="14.00" fill="#666666">[text]</text>
<polygon fill="none" stroke="black" points="177.03,-813.2 177.03,-844 430.71,-844 430.71,-813.2 177.03,-813.2"/>
<text text-anchor="start" x="184.03" y="-825.4" font-family="Arial" font-size="14.00">album_artist </text>
<text text-anchor="start" x="264.17" y="-825.4" font-family="Arial" font-size="14.00" fill="#666666">[text]</text>
<polygon fill="none" stroke="black" points="177.03,-782.4 177.03,-813.2 430.71,-813.2 430.71,-782.4 177.03,-782.4"/>
<text text-anchor="start" x="184.03" y="-794.6" font-family="Arial" font-size="14.00">track_no </text>
<text text-anchor="start" x="241.61" y="-794.6" font-family="Arial" font-size="14.00" fill="#666666">[integer]</text>
<polygon fill="none" stroke="black" points="177.03,-751.6 177.03,-782.4 430.71,-782.4 430.71,-751.6 177.03,-751.6"/>
<text text-anchor="start" x="184.03" y="-763.8" font-family="Arial" font-size="14.00">disc_no </text>
<text text-anchor="start" x="236.17" y="-763.8" font-family="Arial" font-size="14.00" fill="#666666">[integer]</text>
<polygon fill="none" stroke="black" points="177.03,-720.8 177.03,-751.6 430.71,-751.6 430.71,-720.8 177.03,-720.8"/>
<text text-anchor="start" x="184.03" y="-733" font-family="Arial" font-size="14.00">release_date </text>
<text text-anchor="start" x="268.87" y="-733" font-family="Arial" font-size="14.00" fill="#666666">[date]</text>
<polygon fill="none" stroke="black" points="177.03,-690 177.03,-720.8 430.71,-720.8 430.71,-690 177.03,-690"/>
<text text-anchor="start" x="184.03" y="-702.2" font-family="Arial" font-size="14.00">release_type </text>
<text text-anchor="start" x="268.08" y="-702.2" font-family="Arial" font-size="14.00" fill="#666666">[text]</text>
<polygon fill="none" stroke="black" points="177.03,-659.2 177.03,-690 430.71,-690 430.71,-659.2 177.03,-659.2"/>
<text text-anchor="start" x="184.03" y="-671.4" font-family="Arial" font-size="14.00">release_type_raw </text>
<text text-anchor="start" x="298.42" y="-671.4" font-family="Arial" font-size="14.00" fill="#666666">[text]</text>
<polygon fill="none" stroke="black" points="177.03,-628.4 177.03,-659.2 430.71,-659.2 430.71,-628.4 177.03,-628.4"/>
<text text-anchor="start" x="184.03" y="-640.6" font-family="Arial" font-size="14.00">release_date_raw </text>
<text text-anchor="start" x="299.21" y="-640.6" font-family="Arial" font-size="14.00" fill="#666666">[text]</text>
<polygon fill="none" stroke="black" points="177.03,-597.6 177.03,-628.4 430.71,-628.4 430.71,-597.6 177.03,-597.6"/>
<text text-anchor="start" x="184.03" y="-609.8" font-family="Arial" font-size="14.00">release_date_tag </text>
<text text-anchor="start" x="296.11" y="-609.8" font-family="Arial" font-size="14.00" fill="#666666">[text]</text>
<polygon fill="none" stroke="black" points="177.03,-566.8 177.03,-597.6 430.71,-597.6 430.71,-566.8 177.03,-566.8"/>
<text text-anchor="start" x="184.03" y="-579" font-family="Arial" font-size="14.00">duration_seconds </text>
<text text-anchor="start" x="298.44" y="-579" font-family="Arial" font-size="14.00" fill="#666666">[double precision]</text>
<polygon fill="none" stroke="black" points="177.03,-536 177.03,-566.8 430.71,-566.8 430.71,-536 177.03,-536"/>
<text text-anchor="start" x="184.03" y="-548.2" font-family="Arial" font-size="14.00">codec </text>
<text text-anchor="start" x="225.27" y="-548.2" font-family="Arial" font-size="14.00" fill="#666666">[text]</text>
<polygon fill="none" stroke="black" points="177.03,-505.2 177.03,-536 430.71,-536 430.71,-505.2 177.03,-505.2"/>
<text text-anchor="start" x="184.03" y="-517.4" font-family="Arial" font-size="14.00">sample_rate_hz </text>
<text text-anchor="start" x="287.53" y="-517.4" font-family="Arial" font-size="14.00" fill="#666666">[integer]</text>
<polygon fill="none" stroke="black" points="177.03,-474.4 177.03,-505.2 430.71,-505.2 430.71,-474.4 177.03,-474.4"/>
<text text-anchor="start" x="184.03" y="-486.6" font-family="Arial" font-size="14.00">bit_depth </text>
<text text-anchor="start" x="245.52" y="-486.6" font-family="Arial" font-size="14.00" fill="#666666">[integer]</text>
<polygon fill="none" stroke="black" points="177.03,-443.6 177.03,-474.4 430.71,-474.4 430.71,-443.6 177.03,-443.6"/>
<text text-anchor="start" x="184.03" y="-455.8" font-family="Arial" font-size="14.00">bitrate </text>
<text text-anchor="start" x="226.83" y="-455.8" font-family="Arial" font-size="14.00" fill="#666666">[integer]</text>
<polygon fill="none" stroke="black" points="177.03,-412.8 177.03,-443.6 430.71,-443.6 430.71,-412.8 177.03,-412.8"/>
<text text-anchor="start" x="184.03" y="-425" font-family="Arial" font-size="14.00">channels </text>
<text text-anchor="start" x="243.96" y="-425" font-family="Arial" font-size="14.00" fill="#666666">[integer]</text>
<polygon fill="none" stroke="black" points="177.03,-382 177.03,-412.8 430.71,-412.8 430.71,-382 177.03,-382"/>
<text text-anchor="start" x="184.03" y="-394.2" font-family="Arial" font-size="14.00">label </text>
<text text-anchor="start" x="217.49" y="-394.2" font-family="Arial" font-size="14.00" fill="#666666">[text]</text>
<polygon fill="none" stroke="black" points="177.03,-351.2 177.03,-382 430.71,-382 430.71,-351.2 177.03,-351.2"/>
<text text-anchor="start" x="184.03" y="-363.4" font-family="Arial" font-size="14.00">artist_mbid </text>
<text text-anchor="start" x="256.38" y="-363.4" font-family="Arial" font-size="14.00" fill="#666666">[text]</text>
<polygon fill="none" stroke="black" points="177.03,-320.4 177.03,-351.2 430.71,-351.2 430.71,-320.4 177.03,-320.4"/>
<text text-anchor="start" x="184.03" y="-332.6" font-family="Arial" font-size="14.00">album_artist_mbid </text>
<text text-anchor="start" x="302.3" y="-332.6" font-family="Arial" font-size="14.00" fill="#666666">[text]</text>
<polygon fill="none" stroke="black" points="177.03,-289.6 177.03,-320.4 430.71,-320.4 430.71,-289.6 177.03,-289.6"/>
<text text-anchor="start" x="184.03" y="-301.8" font-family="Arial" font-size="14.00">track_mbid </text>
<text text-anchor="start" x="256.38" y="-301.8" font-family="Arial" font-size="14.00" fill="#666666">[text]</text>
<polygon fill="none" stroke="black" points="177.03,-258.8 177.03,-289.6 430.71,-289.6 430.71,-258.8 177.03,-258.8"/>
<text text-anchor="start" x="184.03" y="-271" font-family="Arial" font-size="14.00">release_track_mbid </text>
<text text-anchor="start" x="310.09" y="-271" font-family="Arial" font-size="14.00" fill="#666666">[text]</text>
<polygon fill="none" stroke="black" points="177.03,-228 177.03,-258.8 430.71,-258.8 430.71,-228 177.03,-228"/>
<text text-anchor="start" x="184.03" y="-240.2" font-family="Arial" font-size="14.00">release_mbid </text>
<text text-anchor="start" x="271.96" y="-240.2" font-family="Arial" font-size="14.00" fill="#666666">[text]</text>
<polygon fill="none" stroke="black" points="177.03,-197.2 177.03,-228 430.71,-228 430.71,-197.2 177.03,-197.2"/>
<text text-anchor="start" x="184.03" y="-209.4" font-family="Arial" font-size="14.00">release_group_mbid </text>
<text text-anchor="start" x="315.56" y="-209.4" font-family="Arial" font-size="14.00" fill="#666666">[text]</text>
<polygon fill="none" stroke="black" points="177.03,-166.4 177.03,-197.2 430.71,-197.2 430.71,-166.4 177.03,-166.4"/>
<text text-anchor="start" x="184.03" y="-178.6" font-family="Arial" font-size="14.00">artwork_id </text>
<text text-anchor="start" x="252.49" y="-178.6" font-family="Arial" font-size="14.00" fill="#666666">[bigint]</text>
<polygon fill="none" stroke="black" points="177.03,-135.6 177.03,-166.4 430.71,-166.4 430.71,-135.6 177.03,-135.6"/>
<text text-anchor="start" x="184.03" y="-147.8" font-family="Arial" font-size="14.00">size_bytes </text>
<text text-anchor="start" x="254.06" y="-147.8" font-family="Arial" font-size="14.00" fill="#666666">[bigint]</text>
<polygon fill="none" stroke="black" points="177.03,-104.8 177.03,-135.6 430.71,-135.6 430.71,-104.8 177.03,-104.8"/>
<text text-anchor="start" x="184.03" y="-117" font-family="Arial" font-size="14.00">quick_hash </text>
<text text-anchor="start" x="258.74" y="-117" font-family="Arial" font-size="14.00" fill="#666666">[bytea]</text>
<polygon fill="none" stroke="black" points="177.03,-74 177.03,-104.8 430.71,-104.8 430.71,-74 177.03,-74"/>
<text text-anchor="start" x="184.03" y="-86.2" font-family="Arial" font-size="14.00">mtime </text>
<text text-anchor="start" x="226.03" y="-86.2" font-family="Arial" font-size="14.00" fill="#666666">[double precision]</text>
<polygon fill="none" stroke="black" points="177.03,-43.2 177.03,-74 430.71,-74 430.71,-43.2 177.03,-43.2"/>
<text text-anchor="start" x="184.03" y="-55.4" font-family="Arial" font-size="14.00">fts_vector </text>
<text text-anchor="start" x="248.6" y="-55.4" font-family="Arial" font-size="14.00" fill="#666666">[tsvector]</text>
</g>
<!-- public.track_artist&#45;&gt;public.track -->
<g id="edge1" class="edge">
<title>public.track_artist:track_id&#45;&gt;public.track:id</title>
<path fill="none" stroke="black" d="M337.39,-1234.53C309.99,-1225.31 327.85,-1174.64 348.39,-1143.6 370.43,-1110.3 408.67,-1140.9 430.71,-1107.6 453.81,-1072.68 473.58,-1013.4 431.71,-1013.4"/>
<polygon fill="black" stroke="black" points="337.17,-1234.5 346.41,-1240.4 342.45,-1235.28 346.73,-1235.9 346.73,-1235.9 346.73,-1235.9 342.45,-1235.28 347.72,-1231.5 337.17,-1234.5"/>
<text text-anchor="start" x="7" y="-1246" font-family="Arial" font-size="10.00">FOREIGN KEY (track_id) REFERENCES track(id) ON DELETE CASCADE</text>
</g>
<!-- public.artist -->
<g id="node3" class="node">
<title>public.artist</title>
<polygon fill="#efefef" stroke="none" points="535.03,-674.6 535.03,-710.2 788.71,-710.2 788.71,-674.6 535.03,-674.6"/>
<polygon fill="none" stroke="black" points="535.03,-674.6 535.03,-710.2 788.71,-710.2 788.71,-674.6 535.03,-674.6"/>
<text text-anchor="start" x="556.88" y="-688" font-family="Arial Bold" font-size="18.00">public.artist</text>
<text text-anchor="start" x="642.36" y="-688" font-family="Arial" font-size="14.00">    </text>
<text text-anchor="start" x="673.48" y="-688" font-family="Arial" font-size="14.00" fill="#666666">[BASE TABLE]</text>
<polygon fill="none" stroke="black" points="535.03,-643.8 535.03,-674.6 788.71,-674.6 788.71,-643.8 535.03,-643.8"/>
<text text-anchor="start" x="542.03" y="-656" font-family="Arial" font-size="14.00">mbid </text>
<text text-anchor="start" x="576.26" y="-656" font-family="Arial" font-size="14.00" fill="#666666">[text]</text>
<polygon fill="none" stroke="black" points="535.03,-613 535.03,-643.8 788.71,-643.8 788.71,-613 535.03,-613"/>
<text text-anchor="start" x="542.03" y="-625.2" font-family="Arial" font-size="14.00">name </text>
<text text-anchor="start" x="580.94" y="-625.2" font-family="Arial" font-size="14.00" fill="#666666">[citext]</text>
<polygon fill="none" stroke="black" points="535.03,-582.2 535.03,-613 788.71,-613 788.71,-582.2 535.03,-582.2"/>
<text text-anchor="start" x="542.03" y="-594.4" font-family="Arial" font-size="14.00">sort_name </text>
<text text-anchor="start" x="612.06" y="-594.4" font-family="Arial" font-size="14.00" fill="#666666">[text]</text>
<polygon fill="none" stroke="black" points="535.03,-551.4 535.03,-582.2 788.71,-582.2 788.71,-551.4 535.03,-551.4"/>
<text text-anchor="start" x="542.03" y="-563.6" font-family="Arial" font-size="14.00">bio </text>
<text text-anchor="start" x="564.6" y="-563.6" font-family="Arial" font-size="14.00" fill="#666666">[text]</text>
<polygon fill="none" stroke="black" points="535.03,-520.6 535.03,-551.4 788.71,-551.4 788.71,-520.6 535.03,-520.6"/>
<text text-anchor="start" x="542.03" y="-532.8" font-family="Arial" font-size="14.00">image_url </text>
<text text-anchor="start" x="607.39" y="-532.8" font-family="Arial" font-size="14.00" fill="#666666">[text]</text>
<polygon fill="none" stroke="black" points="535.03,-489.8 535.03,-520.6 788.71,-520.6 788.71,-489.8 535.03,-489.8"/>
<text text-anchor="start" x="542.03" y="-502" font-family="Arial" font-size="14.00">image_source </text>
<text text-anchor="start" x="633.85" y="-502" font-family="Arial" font-size="14.00" fill="#666666">[text]</text>
<polygon fill="none" stroke="black" points="535.03,-459 535.03,-489.8 788.71,-489.8 788.71,-459 535.03,-459"/>
<text text-anchor="start" x="542.03" y="-471.2" font-family="Arial" font-size="14.00">artwork_id </text>
<text text-anchor="start" x="610.49" y="-471.2" font-family="Arial" font-size="14.00" fill="#666666">[bigint]</text>
<polygon fill="none" stroke="black" points="535.03,-428.2 535.03,-459 788.71,-459 788.71,-428.2 535.03,-428.2"/>
<text text-anchor="start" x="542.03" y="-440.4" font-family="Arial" font-size="14.00">letter </text>
<text text-anchor="start" x="577.04" y="-440.4" font-family="Arial" font-size="14.00" fill="#666666">[text]</text>
<polygon fill="none" stroke="black" points="535.03,-397.4 535.03,-428.2 788.71,-428.2 788.71,-397.4 535.03,-397.4"/>
<text text-anchor="start" x="542.03" y="-409.6" font-family="Arial" font-size="14.00">updated_at </text>
<text text-anchor="start" x="615.98" y="-409.6" font-family="Arial" font-size="14.00" fill="#666666">[timestamp with time zone]</text>
</g>
<!-- public.track_artist&#45;&gt;public.artist -->
<g id="edge2" class="edge">
<title>public.track_artist:artist_mbid&#45;&gt;public.artist:mbid</title>
<path fill="none" stroke="black" d="M628.55,-1203.63C720.94,-1171.61 415.09,-659.2 534.03,-659.2"/>
<polygon fill="black" stroke="black" points="628.55,-1203.63 617.99,-1200.7 623.28,-1204.44 619,-1205.1 619,-1205.1 619,-1205.1 623.28,-1204.44 619.35,-1209.6 628.55,-1203.63"/>
<text text-anchor="start" x="625.34" y="-1215.2" font-family="Arial" font-size="10.00">FOREIGN KEY (artist_mbid) REFERENCES artist(mbid) ON DELETE CASCADE</text>
</g>
</g>
</svg>
