<?xml version="1.0" encoding="UTF-8" standalone="no"?>
<!DOCTYPE svg PUBLIC "-//W3C//DTD SVG 1.1//EN"
 "http://www.w3.org/Graphics/SVG/1.1/DTD/svg11.dtd">
<!-- Generated by graphviz version 12.1.2 (20240928.0832)
 -->
<!-- Title: public.scheduled_task Pages: 1 -->
<svg width="775pt" height="848pt"
 viewBox="0.00 0.00 775.03 848.40" xmlns="http://www.w3.org/2000/svg" xmlns:xlink="http://www.w3.org/1999/xlink">
<g id="graph0" class="graph" transform="scale(1 1) rotate(0) translate(4 844.4)">
<title>public.scheduled_task</title>
<polygon fill="white" stroke="none" points="-4,4 -4,-844.4 771.03,-844.4 771.03,4 -4,4"/>
<!-- public.scheduled_task -->
<g id="node1" class="node">
<title>public.scheduled_task</title>
<polygon fill="#efefef" stroke="none" points="59.7,-385 59.7,-420.6 357.65,-420.6 357.65,-385 59.7,-385"/>
<polygon fill="none" stroke="black" points="59.7,-385 59.7,-420.6 357.65,-420.6 357.65,-385 59.7,-385"/>
<text text-anchor="start" x="66.7" y="-398.4" font-family="Arial Bold" font-size="18.00">public.scheduled_task</text>
<text text-anchor="start" x="226.16" y="-398.4" font-family="Arial" font-size="14.00">    </text>
<text text-anchor="start" x="257.27" y="-398.4" font-family="Arial" font-size="14.00" fill="#666666">[BASE TABLE]</text>
<polygon fill="none" stroke="black" points="59.7,-354.2 59.7,-385 357.65,-385 357.65,-354.2 59.7,-354.2"/>
<text text-anchor="start" x="66.7" y="-366.4" font-family="Arial" font-size="14.00">id </text>
<text text-anchor="start" x="81.48" y="-366.4" font-family="Arial" font-size="14.00" fill="#666666">[bigint]</text>
<polygon fill="none" stroke="black" points="59.7,-323.4 59.7,-354.2 357.65,-354.2 357.65,-323.4 59.7,-323.4"/>
<text text-anchor="start" x="66.7" y="-335.6" font-family="Arial" font-size="14.00">job_key </text>
<text text-anchor="start" x="118.84" y="-335.6" font-family="Arial" font-size="14.00" fill="#666666">[text]</text>
<polygon fill="none" stroke="black" points="59.7,-292.6 59.7,-323.4 357.65,-323.4 357.65,-292.6 59.7,-292.6"/>
<text text-anchor="start" x="66.7" y="-304.8" font-family="Arial" font-size="14.00">cron </text>
<text text-anchor="start" x="97.82" y="-304.8" font-family="Arial" font-size="14.00" fill="#666666">[text]</text>
<polygon fill="none" stroke="black" points="59.7,-261.8 59.7,-292.6 357.65,-292.6 357.65,-261.8 59.7,-261.8"/>
<text text-anchor="start" x="66.7" y="-274" font-family="Arial" font-size="14.00">timezone </text>
<text text-anchor="start" x="127.39" y="-274" font-family="Arial" font-size="14.00" fill="#666666">[text]</text>
<polygon fill="none" stroke="black" points="59.7,-231 59.7,-261.8 357.65,-261.8 357.65,-231 59.7,-231"/>
<text text-anchor="start" x="66.7" y="-243.2" font-family="Arial" font-size="14.00">enabled </text>
<text text-anchor="start" x="120.41" y="-243.2" font-family="Arial" font-size="14.00" fill="#666666">[boolean]</text>
<polygon fill="none" stroke="black" points="59.7,-200.2 59.7,-231 357.65,-231 357.65,-200.2 59.7,-200.2"/>
<text text-anchor="start" x="66.7" y="-212.4" font-family="Arial" font-size="14.00">last_run_at </text>
<text text-anchor="start" x="139.86" y="-212.4" font-family="Arial" font-size="14.00" fill="#666666">[timestamp with time zone]</text>
<polygon fill="none" stroke="black" points="59.7,-169.4 59.7,-200.2 357.65,-200.2 357.65,-169.4 59.7,-169.4"/>
<text text-anchor="start" x="66.7" y="-181.6" font-family="Arial" font-size="14.00">next_run_at </text>
<text text-anchor="start" x="144.53" y="-181.6" font-family="Arial" font-size="14.00" fill="#666666">[timestamp with time zone]</text>
<polygon fill="none" stroke="black" points="59.7,-138.6 59.7,-169.4 357.65,-169.4 357.65,-138.6 59.7,-138.6"/>
<text text-anchor="start" x="66.7" y="-150.8" font-family="Arial" font-size="14.00">last_status </text>
<text text-anchor="start" x="137.51" y="-150.8" font-family="Arial" font-size="14.00" fill="#666666">[text]</text>
<polygon fill="none" stroke="black" points="59.7,-107.8 59.7,-138.6 357.65,-138.6 357.65,-107.8 59.7,-107.8"/>
<text text-anchor="start" x="66.7" y="-120" font-family="Arial" font-size="14.00">last_error </text>
<text text-anchor="start" x="129.72" y="-120" font-family="Arial" font-size="14.00" fill="#666666">[text]</text>
<polygon fill="none" stroke="black" points="59.7,-77 59.7,-107.8 357.65,-107.8 357.65,-77 59.7,-77"/>
<text text-anchor="start" x="66.7" y="-89.2" font-family="Arial" font-size="14.00">created_at </text>
<text text-anchor="start" x="136.74" y="-89.2" font-family="Arial" font-size="14.00" fill="#666666">[timestamp with time zone]</text>
<polygon fill="none" stroke="black" points="59.7,-46.2 59.7,-77 357.65,-77 357.65,-46.2 59.7,-46.2"/>
<text text-anchor="start" x="66.7" y="-58.4" font-family="Arial" font-size="14.00">updated_at </text>
<text text-anchor="start" x="140.66" y="-58.4" font-family="Arial" font-size="14.00" fill="#666666">[timestamp with time zone]</text>
<polygon fill="none" stroke="black" stroke-width="3" points="58.2,-44.7 58.2,-422.1 359.15,-422.1 359.15,-44.7 58.2,-44.7"/>
</g>
<!-- public.scheduled_task_run -->
<g id="node2" class="node">
<title>public.scheduled_task_run</title>
<polygon fill="#efefef" stroke="none" points="43.2,-761.6 43.2,-797.2 374.14,-797.2 374.14,-761.6 43.2,-761.6"/>
<polygon fill="none" stroke="black" points="43.2,-761.6 43.2,-797.2 374.14,-797.2 374.14,-761.6 43.2,-761.6"/>
<text text-anchor="start" x="50.2" y="-775" font-family="Arial Bold" font-size="18.00">public.scheduled_task_run</text>
<text text-anchor="start" x="242.65" y="-775" font-family="Arial" font-size="14.00">    </text>
<text text-anchor="start" x="273.77" y="-775" font-family="Arial" font-size="14.00" fill="#666666">[BASE TABLE]</text>
<polygon fill="none" stroke="black" points="43.2,-730.8 43.2,-761.6 374.14,-761.6 374.14,-730.8 43.2,-730.8"/>
<text text-anchor="start" x="50.2" y="-743" font-family="Arial" font-size="14.00">id </text>
<text text-anchor="start" x="64.99" y="-743" font-family="Arial" font-size="14.00" fill="#666666">[bigint]</text>
<polygon fill="none" stroke="black" points="43.2,-700 43.2,-730.8 374.14,-730.8 374.14,-700 43.2,-700"/>
<text text-anchor="start" x="50.2" y="-712.2" font-family="Arial" font-size="14.00">task_id </text>
<text text-anchor="start" x="98.45" y="-712.2" font-family="Arial" font-size="14.00" fill="#666666">[bigint]</text>
<polygon fill="none" stroke="black" points="43.2,-669.2 43.2,-700 374.14,-700 374.14,-669.2 43.2,-669.2"/>
<text text-anchor="start" x="50.2" y="-681.4" font-family="Arial" font-size="14.00">started_at </text>
<text text-anchor="start" x="116.35" y="-681.4" font-family="Arial" font-size="14.00" fill="#666666">[timestamp with time zone]</text>
<polygon fill="none" stroke="black" points="43.2,-638.4 43.2,-669.2 374.14,-669.2 374.14,-638.4 43.2,-638.4"/>
<text text-anchor="start" x="50.2" y="-650.6" font-family="Arial" font-size="14.00">finished_at </text>
<text text-anchor="start" x="121.81" y="-650.6" font-family="Arial" font-size="14.00" fill="#666666">[timestamp with time zone]</text>
<polygon fill="none" stroke="black" points="43.2,-607.6 43.2,-638.4 374.14,-638.4 374.14,-607.6 43.2,-607.6"/>
<text text-anchor="start" x="50.2" y="-619.8" font-family="Arial" font-size="14.00">status </text>
<text text-anchor="start" x="91.44" y="-619.8" font-family="Arial" font-size="14.00" fill="#666666">[text]</text>
<polygon fill="none" stroke="black" points="43.2,-576.8 43.2,-607.6 374.14,-607.6 374.14,-576.8 43.2,-576.8"/>
<text text-anchor="start" x="50.2" y="-589" font-family="Arial" font-size="14.00">error </text>
<text text-anchor="start" x="83.65" y="-589" font-family="Arial" font-size="14.00" fill="#666666">[text]</text>
<polygon fill="none" stroke="black" points="43.2,-546 43.2,-576.8 374.14,-576.8 374.14,-546 43.2,-546"/>
<text text-anchor="start" x="50.2" y="-558.2" font-family="Arial" font-size="14.00">duration_ms </text>
<text text-anchor="start" x="131.13" y="-558.2" font-family="Arial" font-size="14.00" fill="#666666">[integer]</text>
</g>
<!-- public.scheduled_task_run&#45;&gt;public.scheduled_task -->
<g id="edge1" class="edge">
<title>public.scheduled_task_run:task_id&#45;&gt;public.scheduled_task:id</title>
<path fill="none" stroke="black" d="M384.95,-713.37C450.47,-685.03 432.12,-369.6 358.65,-369.6"/>
<polygon fill="black" stroke="black" points="385.26,-713.3 374.56,-710.93 380.04,-714.39 375.8,-715.26 375.8,-715.26 375.8,-715.26 380.04,-714.39 376.38,-719.74 385.26,-713.3"/>
<text text-anchor="start" x="382.14" y="-725.4" font-family="Arial" font-size="10.00">FOREIGN KEY (task_id) REFERENCES scheduled_task(id) ON DELETE CASCADE</text>
</g>
</g>
</svg>
