<?xml version="1.0" encoding="UTF-8" standalone="no"?>
<!DOCTYPE svg PUBLIC "-//W3C//DTD SVG 1.1//EN"
 "http://www.w3.org/Graphics/SVG/1.1/DTD/svg11.dtd">
<!-- Generated by graphviz version 12.1.2 (20240928.0832)
 -->
<!-- Title: public.missing_album Pages: 1 -->
<svg width="728pt" height="818pt"
 viewBox="0.00 0.00 728.36 817.60" xmlns="http://www.w3.org/2000/svg" xmlns:xlink="http://www.w3.org/1999/xlink">
<g id="graph0" class="graph" transform="scale(1 1) rotate(0) translate(4 813.6)">
<title>public.missing_album</title>
<polygon fill="white" stroke="none" points="-4,4 -4,-813.6 724.36,-813.6 724.36,4 -4,4"/>
<!-- public.missing_album -->
<g id="node1" class="node">
<title>public.missing_album</title>
<polygon fill="#efefef" stroke="none" points="46.2,-727.8 46.2,-763.4 344.18,-763.4 344.18,-727.8 46.2,-727.8"/>
<polygon fill="none" stroke="black" points="46.2,-727.8 46.2,-763.4 344.18,-763.4 344.18,-727.8 46.2,-727.8"/>
<text text-anchor="start" x="53.2" y="-741.2" font-family="Arial Bold" font-size="18.00">public.missing_album</text>
<text text-anchor="start" x="212.7" y="-741.2" font-family="Arial" font-size="14.00">    </text>
<text text-anchor="start" x="243.81" y="-741.2" font-family="Arial" font-size="14.00" fill="#666666">[BASE TABLE]</text>
<polygon fill="none" stroke="black" points="46.2,-697 46.2,-727.8 344.18,-727.8 344.18,-697 46.2,-697"/>
<text text-anchor="start" x="53.2" y="-709.2" font-family="Arial" font-size="14.00">id </text>
<text text-anchor="start" x="67.99" y="-709.2" font-family="Arial" font-size="14.00" fill="#666666">[bigint]</text>
<polygon fill="none" stroke="black" points="46.2,-666.2 46.2,-697 344.18,-697 344.18,-666.2 46.2,-666.2"/>
<text text-anchor="start" x="53.2" y="-678.4" font-family="Arial" font-size="14.00">artist_mbid </text>
<text text-anchor="start" x="125.56" y="-678.4" font-family="Arial" font-size="14.00" fill="#666666">[text]</text>
<polygon fill="none" stroke="black" points="46.2,-635.4 46.2,-666.2 344.18,-666.2 344.18,-635.4 46.2,-635.4"/>
<text text-anchor="start" x="53.2" y="-647.6" font-family="Arial" font-size="14.00">release_group_mbid </text>
<text text-anchor="start" x="184.73" y="-647.6" font-family="Arial" font-size="14.00" fill="#666666">[text]</text>
<polygon fill="none" stroke="black" points="46.2,-604.6 46.2,-635.4 344.18,-635.4 344.18,-604.6 46.2,-604.6"/>
<text text-anchor="start" x="53.2" y="-616.8" font-family="Arial" font-size="14.00">title </text>
<text text-anchor="start" x="78.88" y="-616.8" font-family="Arial" font-size="14.00" fill="#666666">[text]</text>
<polygon fill="none" stroke="black" points="46.2,-573.8 46.2,-604.6 344.18,-604.6 344.18,-573.8 46.2,-573.8"/>
<text text-anchor="start" x="53.2" y="-586" font-family="Arial" font-size="14.00">release_date </text>
<text text-anchor="start" x="138.04" y="-586" font-family="Arial" font-size="14.00" fill="#666666">[text]</text>
<polygon fill="none" stroke="black" points="46.2,-543 46.2,-573.8 344.18,-573.8 344.18,-543 46.2,-543"/>
<text text-anchor="start" x="53.2" y="-555.2" font-family="Arial" font-size="14.00">primary_type </text>
<text text-anchor="start" x="138.01" y="-555.2" font-family="Arial" font-size="14.00" fill="#666666">[text]</text>
<polygon fill="none" stroke="black" points="46.2,-512.2 46.2,-543 344.18,-543 344.18,-512.2 46.2,-512.2"/>
<text text-anchor="start" x="53.2" y="-524.4" font-family="Arial" font-size="14.00">musicbrainz_url </text>
<text text-anchor="start" x="155.12" y="-524.4" font-family="Arial" font-size="14.00" fill="#666666">[text]</text>
<polygon fill="none" stroke="black" points="46.2,-481.4 46.2,-512.2 344.18,-512.2 344.18,-481.4 46.2,-481.4"/>
<text text-anchor="start" x="53.2" y="-493.6" font-family="Arial" font-size="14.00">updated_at </text>
<text text-anchor="start" x="127.16" y="-493.6" font-family="Arial" font-size="14.00" fill="#666666">[timestamp with time zone]</text>
<polygon fill="none" stroke="black" stroke-width="3" points="44.7,-479.9 44.7,-764.9 345.68,-764.9 345.68,-479.9 44.7,-479.9"/>
</g>
<!-- public.artist -->
<g id="node2" class="node">
<title>public.artist</title>
<polygon fill="#efefef" stroke="none" points="68.35,-320.4 68.35,-356 322.03,-356 322.03,-320.4 68.35,-320.4"/>
<polygon fill="none" stroke="black" points="68.35,-320.4 68.35,-356 322.03,-356 322.03,-320.4 68.35,-320.4"/>
<text text-anchor="start" x="90.21" y="-333.8" font-family="Arial Bold" font-size="18.00">public.artist</text>
<text text-anchor="start" x="175.69" y="-333.8" font-family="Arial" font-size="14.00">    </text>
<text text-anchor="start" x="206.81" y="-333.8" font-family="Arial" font-size="14.00" fill="#666666">[BASE TABLE]</text>
<polygon fill="none" stroke="black" points="68.35,-289.6 68.35,-320.4 322.03,-320.4 322.03,-289.6 68.35,-289.6"/>
<text text-anchor="start" x="75.35" y="-301.8" font-family="Arial" font-size="14.00">mbid </text>
<text text-anchor="start" x="109.59" y="-301.8" font-family="Arial" font-size="14.00" fill="#666666">[text]</text>
<polygon fill="none" stroke="black" points="68.35,-258.8 68.35,-289.6 322.03,-289.6 322.03,-258.8 68.35,-258.8"/>
<text text-anchor="start" x="75.35" y="-271" font-family="Arial" font-size="14.00">name </text>
<text text-anchor="start" x="114.26" y="-271" font-family="Arial" font-size="14.00" fill="#666666">[citext]</text>
<polygon fill="none" stroke="black" points="68.35,-228 68.35,-258.8 322.03,-258.8 322.03,-228 68.35,-228"/>
<text text-anchor="start" x="75.35" y="-240.2" font-family="Arial" font-size="14.00">sort_name </text>
<text text-anchor="start" x="145.39" y="-240.2" font-family="Arial" font-size="14.00" fill="#666666">[text]</text>
<polygon fill="none" stroke="black" points="68.35,-197.2 68.35,-228 322.03,-228 322.03,-197.2 68.35,-197.2"/>
<text text-anchor="start" x="75.35" y="-209.4" font-family="Arial" font-size="14.00">bio </text>
<text text-anchor="start" x="97.92" y="-209.4" font-family="Arial" font-size="14.00" fill="#666666">[text]</text>
<polygon fill="none" stroke="black" points="68.35,-166.4 68.35,-197.2 322.03,-197.2 322.03,-166.4 68.35,-166.4"/>
<text text-anchor="start" x="75.35" y="-178.6" font-family="Arial" font-size="14.00">image_url </text>
<text text-anchor="start" x="140.72" y="-178.6" font-family="Arial" font-size="14.00" fill="#666666">[text]</text>
<polygon fill="none" stroke="black" points="68.35,-135.6 68.35,-166.4 322.03,-166.4 322.03,-135.6 68.35,-135.6"/>
<text text-anchor="start" x="75.35" y="-147.8" font-family="Arial" font-size="14.00">image_source </text>
<text text-anchor="start" x="167.18" y="-147.8" font-family="Arial" font-size="14.00" fill="#666666">[text]</text>
<polygon fill="none" stroke="black" points="68.35,-104.8 68.35,-135.6 322.03,-135.6 322.03,-104.8 68.35,-104.8"/>
<text text-anchor="start" x="75.35" y="-117" font-family="Arial" font-size="14.00">artwork_id </text>
<text text-anchor="start" x="143.82" y="-117" font-family="Arial" font-size="14.00" fill="#666666">[bigint]</text>
<polygon fill="none" stroke="black" points="68.35,-74 68.35,-104.8 322.03,-104.8 322.03,-74 68.35,-74"/>
<text text-anchor="start" x="75.35" y="-86.2" font-family="Arial" font-size="14.00">letter </text>
<text text-anchor="start" x="110.37" y="-86.2" font-family="Arial" font-size="14.00" fill="#666666">[text]</text>
<polygon fill="none" stroke="black" points="68.35,-43.2 68.35,-74 322.03,-74 322.03,-43.2 68.35,-43.2"/>
<text text-anchor="start" x="75.35" y="-55.4" font-family="Arial" font-size="14.00">updated_at </text>
<text text-anchor="start" x="149.31" y="-55.4" font-family="Arial" font-size="14.00" fill="#666666">[timestamp with time zone]</text>
</g>
<!-- public.missing_album&#45;&gt;public.artist -->
<g id="edge1" class="edge">
<title>public.missing_album:artist_mbid&#45;&gt;public.artist:mbid</title>
<path fill="none" stroke="black" d="M355.41,-679.57C427,-649.93 403.26,-305 323.03,-305"/>
<polygon fill="black" stroke="black" points="355.32,-679.59 344.64,-677.12 350.09,-680.63 345.84,-681.47 345.84,-681.47 345.84,-681.47 350.09,-680.63 346.39,-685.95 355.32,-679.59"/>
<text text-anchor="start" x="352.18" y="-691.6" font-family="Arial" font-size="10.00">FOREIGN KEY (artist_mbid) REFERENCES artist(mbid) ON DELETE CASCADE</text>
</g>
</g>
</svg>
