<?xml version="1.0" encoding="UTF-8" standalone="no"?>
<!DOCTYPE svg PUBLIC "-//W3C//DTD SVG 1.1//EN"
 "http://www.w3.org/Graphics/SVG/1.1/DTD/svg11.dtd">
<!-- Generated by graphviz version 12.1.2 (20240928.0832)
 -->
<!-- Title: public.session Pages: 1 -->
<svg width="684pt" height="972pt"
 viewBox="0.00 0.00 683.55 971.60" xmlns="http://www.w3.org/2000/svg" xmlns:xlink="http://www.w3.org/1999/xlink">
<g id="graph0" class="graph" transform="scale(1 1) rotate(0) translate(4 967.6)">
<title>public.session</title>
<polygon fill="white" stroke="none" points="-4,4 -4,-967.6 679.55,-967.6 679.55,4 -4,4"/>
<!-- public.session -->
<g id="node1" class="node">
<title>public.session</title>
<polygon fill="#efefef" stroke="none" points="74.72,-881.8 74.72,-917.4 324.49,-917.4 324.49,-881.8 74.72,-881.8"/>
<polygon fill="none" stroke="black" points="74.72,-881.8 74.72,-917.4 324.49,-917.4 324.49,-881.8 74.72,-881.8"/>
<text text-anchor="start" x="86.61" y="-895.2" font-family="Arial Bold" font-size="18.00">public.session</text>
<text text-anchor="start" x="188.11" y="-895.2" font-family="Arial" font-size="14.00">    </text>
<text text-anchor="start" x="219.22" y="-895.2" font-family="Arial" font-size="14.00" fill="#666666">[BASE TABLE]</text>
<polygon fill="none" stroke="black" points="74.72,-851 74.72,-881.8 324.49,-881.8 324.49,-851 74.72,-851"/>
<text text-anchor="start" x="81.72" y="-863.2" font-family="Arial" font-size="14.00">id </text>
<text text-anchor="start" x="96.5" y="-863.2" font-family="Arial" font-size="14.00" fill="#666666">[bigint]</text>
<polygon fill="none" stroke="black" points="74.72,-820.2 74.72,-851 324.49,-851 324.49,-820.2 74.72,-820.2"/>
<text text-anchor="start" x="81.72" y="-832.4" font-family="Arial" font-size="14.00">user_id </text>
<text text-anchor="start" x="131.52" y="-832.4" font-family="Arial" font-size="14.00" fill="#666666">[bigint]</text>
<polygon fill="none" stroke="black" points="74.72,-789.4 74.72,-820.2 324.49,-820.2 324.49,-789.4 74.72,-789.4"/>
<text text-anchor="start" x="81.72" y="-801.6" font-family="Arial" font-size="14.00">token </text>
<text text-anchor="start" x="119.85" y="-801.6" font-family="Arial" font-size="14.00" fill="#666666">[text]</text>
<polygon fill="none" stroke="black" points="74.72,-758.6 74.72,-789.4 324.49,-789.4 324.49,-758.6 74.72,-758.6"/>
<text text-anchor="start" x="81.72" y="-770.8" font-family="Arial" font-size="14.00">created_at </text>
<text text-anchor="start" x="151.76" y="-770.8" font-family="Arial" font-size="14.00" fill="#666666">[timestamp with time zone]</text>
<polygon fill="none" stroke="black" points="74.72,-727.8 74.72,-758.6 324.49,-758.6 324.49,-727.8 74.72,-727.8"/>
<text text-anchor="start" x="81.72" y="-740" font-family="Arial" font-size="14.00">expires_at </text>
<text text-anchor="start" x="150.2" y="-740" font-family="Arial" font-size="14.00" fill="#666666">[timestamp with time zone]</text>
<polygon fill="none" stroke="black" points="74.72,-697 74.72,-727.8 324.49,-727.8 324.49,-697 74.72,-697"/>
<text text-anchor="start" x="81.72" y="-709.2" font-family="Arial" font-size="14.00">user_agent </text>
<text text-anchor="start" x="155.66" y="-709.2" font-family="Arial" font-size="14.00" fill="#666666">[text]</text>
<polygon fill="none" stroke="black" points="74.72,-666.2 74.72,-697 324.49,-697 324.49,-666.2 74.72,-666.2"/>
<text text-anchor="start" x="81.72" y="-678.4" font-family="Arial" font-size="14.00">ip </text>
<text text-anchor="start" x="96.5" y="-678.4" font-family="Arial" font-size="14.00" fill="#666666">[text]</text>
<polygon fill="none" stroke="black" stroke-width="3" points="73.22,-664.7 73.22,-918.9 325.99,-918.9 325.99,-664.7 73.22,-664.7"/>
</g>
<!-- public.user -->
<g id="node2" class="node">
<title>public.user</title>
<polygon fill="#efefef" stroke="none" points="43.2,-505.2 43.2,-540.8 356.01,-540.8 356.01,-505.2 43.2,-505.2"/>
<polygon fill="none" stroke="black" points="43.2,-505.2 43.2,-540.8 356.01,-540.8 356.01,-505.2 43.2,-505.2"/>
<text text-anchor="start" x="97.62" y="-518.6" font-family="Arial Bold" font-size="18.00">public.user</text>
<text text-anchor="start" x="177.1" y="-518.6" font-family="Arial" font-size="14.00">    </text>
<text text-anchor="start" x="208.22" y="-518.6" font-family="Arial" font-size="14.00" fill="#666666">[BASE TABLE]</text>
<polygon fill="none" stroke="black" points="43.2,-474.4 43.2,-505.2 356.01,-505.2 356.01,-474.4 43.2,-474.4"/>
<text text-anchor="start" x="50.2" y="-486.6" font-family="Arial" font-size="14.00">id </text>
<text text-anchor="start" x="64.99" y="-486.6" font-family="Arial" font-size="14.00" fill="#666666">[bigint]</text>
<polygon fill="none" stroke="black" points="43.2,-443.6 43.2,-474.4 356.01,-474.4 356.01,-443.6 43.2,-443.6"/>
<text text-anchor="start" x="50.2" y="-455.8" font-family="Arial" font-size="14.00">username </text>
<text text-anchor="start" x="116.34" y="-455.8" font-family="Arial" font-size="14.00" fill="#666666">[citext]</text>
<polygon fill="none" stroke="black" points="43.2,-412.8 43.2,-443.6 356.01,-443.6 356.01,-412.8 43.2,-412.8"/>
<text text-anchor="start" x="50.2" y="-425" font-family="Arial" font-size="14.00">email </text>
<text text-anchor="start" x="87.54" y="-425" font-family="Arial" font-size="14.00" fill="#666666">[citext]</text>
<polygon fill="none" stroke="black" points="43.2,-382 43.2,-412.8 356.01,-412.8 356.01,-382 43.2,-382"/>
<text text-anchor="start" x="50.2" y="-394.2" font-family="Arial" font-size="14.00">password_hash </text>
<text text-anchor="start" x="152.15" y="-394.2" font-family="Arial" font-size="14.00" fill="#666666">[text]</text>
<polygon fill="none" stroke="black" points="43.2,-351.2 43.2,-382 356.01,-382 356.01,-351.2 43.2,-351.2"/>
<text text-anchor="start" x="50.2" y="-363.4" font-family="Arial" font-size="14.00">display_name </text>
<text text-anchor="start" x="140.48" y="-363.4" font-family="Arial" font-size="14.00" fill="#666666">[text]</text>
<polygon fill="none" stroke="black" points="43.2,-320.4 43.2,-351.2 356.01,-351.2 356.01,-320.4 43.2,-320.4"/>
<text text-anchor="start" x="50.2" y="-332.6" font-family="Arial" font-size="14.00">created_at </text>
<text text-anchor="start" x="120.25" y="-332.6" font-family="Arial" font-size="14.00" fill="#666666">[timestamp with time zone]</text>
<polygon fill="none" stroke="black" points="43.2,-289.6 43.2,-320.4 356.01,-320.4 356.01,-289.6 43.2,-289.6"/>
<text text-anchor="start" x="50.2" y="-301.8" font-family="Arial" font-size="14.00">last_login_at </text>
<text text-anchor="start" x="132.7" y="-301.8" font-family="Arial" font-size="14.00" fill="#666666">[timestamp with time zone]</text>
<polygon fill="none" stroke="black" points="43.2,-258.8 43.2,-289.6 356.01,-289.6 356.01,-258.8 43.2,-258.8"/>
<text text-anchor="start" x="50.2" y="-271" font-family="Arial" font-size="14.00">is_active </text>
<text text-anchor="start" x="108.56" y="-271" font-family="Arial" font-size="14.00" fill="#666666">[boolean]</text>
<polygon fill="none" stroke="black" points="43.2,-228 43.2,-258.8 356.01,-258.8 356.01,-228 43.2,-228"/>
<text text-anchor="start" x="50.2" y="-240.2" font-family="Arial" font-size="14.00">is_admin </text>
<text text-anchor="start" x="110.12" y="-240.2" font-family="Arial" font-size="14.00" fill="#666666">[boolean]</text>
<polygon fill="none" stroke="black" points="43.2,-197.2 43.2,-228 356.01,-228 356.01,-197.2 43.2,-197.2"/>
<text text-anchor="start" x="50.2" y="-209.4" font-family="Arial" font-size="14.00">accent_color </text>
<text text-anchor="start" x="133.47" y="-209.4" font-family="Arial" font-size="14.00" fill="#666666">[text]</text>
<polygon fill="none" stroke="black" points="43.2,-166.4 43.2,-197.2 356.01,-197.2 356.01,-166.4 43.2,-166.4"/>
<text text-anchor="start" x="50.2" y="-178.6" font-family="Arial" font-size="14.00">theme_mode </text>
<text text-anchor="start" x="135.81" y="-178.6" font-family="Arial" font-size="14.00" fill="#666666">[text]</text>
<polygon fill="none" stroke="black" points="43.2,-135.6 43.2,-166.4 356.01,-166.4 356.01,-135.6 43.2,-135.6"/>
<text text-anchor="start" x="50.2" y="-147.8" font-family="Arial" font-size="14.00">lastfm_username </text>
<text text-anchor="start" x="161.47" y="-147.8" font-family="Arial" font-size="14.00" fill="#666666">[text]</text>
<polygon fill="none" stroke="black" points="43.2,-104.8 43.2,-135.6 356.01,-135.6 356.01,-104.8 43.2,-104.8"/>
<text text-anchor="start" x="50.2" y="-117" font-family="Arial" font-size="14.00">lastfm_session_key </text>
<text text-anchor="start" x="176.25" y="-117" font-family="Arial" font-size="14.00" fill="#666666">[text]</text>
<polygon fill="none" stroke="black" points="43.2,-74 43.2,-104.8 356.01,-104.8 356.01,-74 43.2,-74"/>
<text text-anchor="start" x="50.2" y="-86.2" font-family="Arial" font-size="14.00">lastfm_enabled </text>
<text text-anchor="start" x="149.04" y="-86.2" font-family="Arial" font-size="14.00" fill="#666666">[boolean]</text>
<polygon fill="none" stroke="black" points="43.2,-43.2 43.2,-74 356.01,-74 356.01,-43.2 43.2,-43.2"/>
<text text-anchor="start" x="50.2" y="-55.4" font-family="Arial" font-size="14.00">lastfm_connected_at </text>
<text text-anchor="start" x="183.28" y="-55.4" font-family="Arial" font-size="14.00" fill="#666666">[timestamp with time zone]</text>
</g>
<!-- public.session&#45;&gt;public.user -->
<g id="edge1" class="edge">
<title>public.session:user_id&#45;&gt;public.user:id</title>
<path fill="none" stroke="black" d="M335.61,-833.57C405.26,-805.23 430.7,-489.8 357.01,-489.8"/>
<polygon fill="black" stroke="black" points="335.62,-833.57 324.93,-831.12 330.39,-834.62 326.14,-835.47 326.14,-835.47 326.14,-835.47 330.39,-834.62 326.7,-839.95 335.62,-833.57"/>
<text text-anchor="start" x="332.49" y="-845.6" font-family="Arial" font-size="10.00">FOREIGN KEY (user_id) REFERENCES &quot;user&quot;(id) ON DELETE CASCADE</text>
</g>
</g>
</svg>
