<?xml version="1.0" encoding="UTF-8" standalone="no"?>
<!DOCTYPE svg PUBLIC "-//W3C//DTD SVG 1.1//EN"
 "http://www.w3.org/Graphics/SVG/1.1/DTD/svg11.dtd">
<!-- Generated by graphviz version 12.1.2 (20240928.0832)
 -->
<!-- Title: public.track Pages: 1 -->
<svg width="2024pt" height="1649pt"
 viewBox="0.00 0.00 2024.09 1649.20" xmlns="http://www.w3.org/2000/svg" xmlns:xlink="http://www.w3.org/1999/xlink">
<g id="graph0" class="graph" transform="scale(1 1) rotate(0) translate(4 1645.2)">
<title>public.track</title>
<polygon fill="white" stroke="none" points="-4,4 -4,-1645.2 2020.09,-1645.2 2020.09,4 -4,4"/>
<!-- public.track -->
<g id="node1" class="node">
<title>public.track</title>
<polygon fill="#efefef" stroke="none" points="868.08,-1031.8 868.08,-1067.4 1121.76,-1067.4 1121.76,-1031.8 868.08,-1031.8"/>
<polygon fill="none" stroke="black" points="868.08,-1031.8 868.08,-1067.4 1121.76,-1067.4 1121.76,-1031.8 868.08,-1031.8"/>
<text text-anchor="start" x="889.94" y="-1045.2" font-family="Arial Bold" font-size="18.00">public.track</text>
<text text-anchor="start" x="975.41" y="-1045.2" font-family="Arial" font-size="14.00">    </text>
<text text-anchor="start" x="1006.53" y="-1045.2" font-family="Arial" font-size="14.00" fill="#666666">[BASE TABLE]</text>
<polygon fill="none" stroke="black" points="868.08,-1001 868.08,-1031.8 1121.76,-1031.8 1121.76,-1001 868.08,-1001"/>
<text text-anchor="start" x="875.08" y="-1013.2" font-family="Arial" font-size="14.00">id </text>
<text text-anchor="start" x="889.87" y="-1013.2" font-family="Arial" font-size="14.00" fill="#666666">[bigint]</text>
<polygon fill="none" stroke="black" points="868.08,-970.2 868.08,-1001 1121.76,-1001 1121.76,-970.2 868.08,-970.2"/>
<text text-anchor="start" x="875.08" y="-982.4" font-family="Arial" font-size="14.00">path </text>
<text text-anchor="start" x="906.22" y="-982.4" font-family="Arial" font-size="14.00" fill="#666666">[text]</text>
<polygon fill="none" stroke="black" points="868.08,-939.4 868.08,-970.2 1121.76,-970.2 1121.76,-939.4 868.08,-939.4"/>
<text text-anchor="start" x="875.08" y="-951.6" font-family="Arial" font-size="14.00">updated_at </text>
<text text-anchor="start" x="949.04" y="-951.6" font-family="Arial" font-size="14.00" fill="#666666">[timestamp with time zone]</text>
<polygon fill="none" stroke="black" points="868.08,-908.6 868.08,-939.4 1121.76,-939.4 1121.76,-908.6 868.08,-908.6"/>
<text text-anchor="start" x="875.08" y="-920.8" font-family="Arial" font-size="14.00">title </text>
<text text-anchor="start" x="900.76" y="-920.8" font-family="Arial" font-size="14.00" fill="#666666">[text]</text>
<polygon fill="none" stroke="black" points="868.08,-877.8 868.08,-908.6 1121.76,-908.6 1121.76,-877.8 868.08,-877.8"/>
<text text-anchor="start" x="875.08" y="-890" font-family="Arial" font-size="14.00">artist </text>
<text text-anchor="start" x="909.31" y="-890" font-family="Arial" font-size="14.00" fill="#666666">[text]</text>
<polygon fill="none" stroke="black" points="868.08,-847 868.08,-877.8 1121.76,-877.8 1121.76,-847 868.08,-847"/>
<text text-anchor="start" x="875.08" y="-859.2" font-family="Arial" font-size="14.00">album </text>
<text text-anchor="start" x="917.1" y="-859.2" font-family="Arial" font-size="14.00" fill="#666666">[text]</text>
<polygon fill="none" stroke="black" points="868.08,-816.2 868.08,-847 1121.76,-847 1121.76,-816.2 868.08,-816.2"/>
<text text-anchor="start" x="875.08" y="-828.4" font-family="Arial" font-size="14.00">album_artist </text>
<text text-anchor="start" x="955.22" y="-828.4" font-family="Arial" font-size="14.00" fill="#666666">[text]</text>
<polygon fill="none" stroke="black" points="868.08,-785.4 868.08,-816.2 1121.76,-816.2 1121.76,-785.4 868.08,-785.4"/>
<text text-anchor="start" x="875.08" y="-797.6" font-family="Arial" font-size="14.00">track_no </text>
<text text-anchor="start" x="932.67" y="-797.6" font-family="Arial" font-size="14.00" fill="#666666">[integer]</text>
<polygon fill="none" stroke="black" points="868.08,-754.6 868.08,-785.4 1121.76,-785.4 1121.76,-754.6 868.08,-754.6"/>
<text text-anchor="start" x="875.08" y="-766.8" font-family="Arial" font-size="14.00">disc_no </text>
<text text-anchor="start" x="927.22" y="-766.8" font-family="Arial" font-size="14.00" fill="#666666">[integer]</text>
<polygon fill="none" stroke="black" points="868.08,-723.8 868.08,-754.6 1121.76,-754.6 1121.76,-723.8 868.08,-723.8"/>
<text text-anchor="start" x="875.08" y="-736" font-family="Arial" font-size="14.00">release_date </text>
<text text-anchor="start" x="959.92" y="-736" font-family="Arial" font-size="14.00" fill="#666666">[date]</text>
<polygon fill="none" stroke="black" points="868.08,-693 868.08,-723.8 1121.76,-723.8 1121.76,-693 868.08,-693"/>
<text text-anchor="start" x="875.08" y="-705.2" font-family="Arial" font-size="14.00">release_type </text>
<text text-anchor="start" x="959.13" y="-705.2" font-family="Arial" font-size="14.00" fill="#666666">[text]</text>
<polygon fill="none" stroke="black" points="868.08,-662.2 868.08,-693 1121.76,-693 1121.76,-662.2 868.08,-662.2"/>
<text text-anchor="start" x="875.08" y="-674.4" font-family="Arial" font-size="14.00">release_type_raw </text>
<text text-anchor="start" x="989.48" y="-674.4" font-family="Arial" font-size="14.00" fill="#666666">[text]</text>
<polygon fill="none" stroke="black" points="868.08,-631.4 868.08,-662.2 1121.76,-662.2 1121.76,-631.4 868.08,-631.4"/>
<text text-anchor="start" x="875.08" y="-643.6" font-family="Arial" font-size="14.00">release_date_raw </text>
<text text-anchor="start" x="990.27" y="-643.6" font-family="Arial" font-size="14.00" fill="#666666">[text]</text>
<polygon fill="none" stroke="black" points="868.08,-600.6 868.08,-631.4 1121.76,-631.4 1121.76,-600.6 868.08,-600.6"/>
<text text-anchor="start" x="875.08" y="-612.8" font-family="Arial" font-size="14.00">release_date_tag </text>
<text text-anchor="start" x="987.17" y="-612.8" font-family="Arial" font-size="14.00" fill="#666666">[text]</text>
<polygon fill="none" stroke="black" points="868.08,-569.8 868.08,-600.6 1121.76,-600.6 1121.76,-569.8 868.08,-569.8"/>
<text text-anchor="start" x="875.08" y="-582" font-family="Arial" font-size="14.00">duration_seconds </text>
<text text-anchor="start" x="989.49" y="-582" font-family="Arial" font-size="14.00" fill="#666666">[double precision]</text>
<polygon fill="none" stroke="black" points="868.08,-539 868.08,-569.8 1121.76,-569.8 1121.76,-539 868.08,-539"/>
<text text-anchor="start" x="875.08" y="-551.2" font-family="Arial" font-size="14.00">codec </text>
<text text-anchor="start" x="916.33" y="-551.2" font-family="Arial" font-size="14.00" fill="#666666">[text]</text>
<polygon fill="none" stroke="black" points="868.08,-508.2 868.08,-539 1121.76,-539 1121.76,-508.2 868.08,-508.2"/>
<text text-anchor="start" x="875.08" y="-520.4" font-family="Arial" font-size="14.00">sample_rate_hz </text>
<text text-anchor="start" x="978.58" y="-520.4" font-family="Arial" font-size="14.00" fill="#666666">[integer]</text>
<polygon fill="none" stroke="black" points="868.08,-477.4 868.08,-508.2 1121.76,-508.2 1121.76,-477.4 868.08,-477.4"/>
<text text-anchor="start" x="875.08" y="-489.6" font-family="Arial" font-size="14.00">bit_depth </text>
<text text-anchor="start" x="936.58" y="-489.6" font-family="Arial" font-size="14.00" fill="#666666">[integer]</text>
<polygon fill="none" stroke="black" points="868.08,-446.6 868.08,-477.4 1121.76,-477.4 1121.76,-446.6 868.08,-446.6"/>
<text text-anchor="start" x="875.08" y="-458.8" font-family="Arial" font-size="14.00">bitrate </text>
<text text-anchor="start" x="917.88" y="-458.8" font-family="Arial" font-size="14.00" fill="#666666">[integer]</text>
<polygon fill="none" stroke="black" points="868.08,-415.8 868.08,-446.6 1121.76,-446.6 1121.76,-415.8 868.08,-415.8"/>
<text text-anchor="start" x="875.08" y="-428" font-family="Arial" font-size="14.00">channels </text>
<text text-anchor="start" x="935.01" y="-428" font-family="Arial" font-size="14.00" fill="#666666">[integer]</text>
<polygon fill="none" stroke="black" points="868.08,-385 868.08,-415.8 1121.76,-415.8 1121.76,-385 868.08,-385"/>
<text text-anchor="start" x="875.08" y="-397.2" font-family="Arial" font-size="14.00">label </text>
<text text-anchor="start" x="908.55" y="-397.2" font-family="Arial" font-size="14.00" fill="#666666">[text]</text>
<polygon fill="none" stroke="black" points="868.08,-354.2 868.08,-385 1121.76,-385 1121.76,-354.2 868.08,-354.2"/>
<text text-anchor="start" x="875.08" y="-366.4" font-family="Arial" font-size="14.00">artist_mbid </text>
<text text-anchor="start" x="947.44" y="-366.4" font-family="Arial" font-size="14.00" fill="#666666">[text]</text>
<polygon fill="none" stroke="black" points="868.08,-323.4 868.08,-354.2 1121.76,-354.2 1121.76,-323.4 868.08,-323.4"/>
<text text-anchor="start" x="875.08" y="-335.6" font-family="Arial" font-size="14.00">album_artist_mbid </text>
<text text-anchor="start" x="993.36" y="-335.6" font-family="Arial" font-size="14.00" fill="#666666">[text]</text>
<polygon fill="none" stroke="black" points="868.08,-292.6 868.08,-323.4 1121.76,-323.4 1121.76,-292.6 868.08,-292.6"/>
<text text-anchor="start" x="875.08" y="-304.8" font-family="Arial" font-size="14.00">track_mbid </text>
<text text-anchor="start" x="947.44" y="-304.8" font-family="Arial" font-size="14.00" fill="#666666">[text]</text>
<polygon fill="none" stroke="black" points="868.08,-261.8 868.08,-292.6 1121.76,-292.6 1121.76,-261.8 868.08,-261.8"/>
<text text-anchor="start" x="875.08" y="-274" font-family="Arial" font-size="14.00">release_track_mbid </text>
<text text-anchor="start" x="1001.14" y="-274" font-family="Arial" font-size="14.00" fill="#666666">[text]</text>
<polygon fill="none" stroke="black" points="868.08,-231 868.08,-261.8 1121.76,-261.8 1121.76,-231 868.08,-231"/>
<text text-anchor="start" x="875.08" y="-243.2" font-family="Arial" font-size="14.00">release_mbid </text>
<text text-anchor="start" x="963.02" y="-243.2" font-family="Arial" font-size="14.00" fill="#666666">[text]</text>
<polygon fill="none" stroke="black" points="868.08,-200.2 868.08,-231 1121.76,-231 1121.76,-200.2 868.08,-200.2"/>
<text text-anchor="start" x="875.08" y="-212.4" font-family="Arial" font-size="14.00">release_group_mbid </text>
<text text-anchor="start" x="1006.61" y="-212.4" font-family="Arial" font-size="14.00" fill="#666666">[text]</text>
<polygon fill="none" stroke="black" points="868.08,-169.4 868.08,-200.2 1121.76,-200.2 1121.76,-169.4 868.08,-169.4"/>
<text text-anchor="start" x="875.08" y="-181.6" font-family="Arial" font-size="14.00">artwork_id </text>
<text text-anchor="start" x="943.55" y="-181.6" font-family="Arial" font-size="14.00" fill="#666666">[bigint]</text>
<polygon fill="none" stroke="black" points="868.08,-138.6 868.08,-169.4 1121.76,-169.4 1121.76,-138.6 868.08,-138.6"/>
<text text-anchor="start" x="875.08" y="-150.8" font-family="Arial" font-size="14.00">size_bytes </text>
<text text-anchor="start" x="945.11" y="-150.8" font-family="Arial" font-size="14.00" fill="#666666">[bigint]</text>
<polygon fill="none" stroke="black" points="868.08,-107.8 868.08,-138.6 1121.76,-138.6 1121.76,-107.8 868.08,-107.8"/>
<text text-anchor="start" x="875.08" y="-120" font-family="Arial" font-size="14.00">quick_hash </text>
<text text-anchor="start" x="949.8" y="-120" font-family="Arial" font-size="14.00" fill="#666666">[bytea]</text>
<polygon fill="none" stroke="black" points="868.08,-77 868.08,-107.8 1121.76,-107.8 1121.76,-77 868.08,-77"/>
<text text-anchor="start" x="875.08" y="-89.2" font-family="Arial" font-size="14.00">mtime </text>
<text text-anchor="start" x="917.08" y="-89.2" font-family="Arial" font-size="14.00" fill="#666666">[double precision]</text>
<polygon fill="none" stroke="black" points="868.08,-46.2 868.08,-77 1121.76,-77 1121.76,-46.2 868.08,-46.2"/>
<text text-anchor="start" x="875.08" y="-58.4" font-family="Arial" font-size="14.00">fts_vector </text>
<text text-anchor="start" x="939.66" y="-58.4" font-family="Arial" font-size="14.00" fill="#666666">[tsvector]</text>
<polygon fill="none" stroke="black" stroke-width="3" points="866.58,-44.7 866.58,-1068.9 1123.26,-1068.9 1123.26,-44.7 866.58,-44.7"/>
</g>
<!-- public.track_artist -->
<g id="node2" class="node">
<title>public.track_artist</title>
<polygon fill="#efefef" stroke="none" points="77.45,-1408.4 77.45,-1444 346.39,-1444 346.39,-1408.4 77.45,-1408.4"/>
<polygon fill="none" stroke="black" points="77.45,-1408.4 77.45,-1444 346.39,-1444 346.39,-1408.4 77.45,-1408.4"/>
<text text-anchor="start" x="84.45" y="-1421.8" font-family="Arial Bold" font-size="18.00">public.track_artist</text>
<text text-anchor="start" x="214.9" y="-1421.8" font-family="Arial" font-size="14.00">    </text>
<text text-anchor="start" x="246.02" y="-1421.8" font-family="Arial" font-size="14.00" fill="#666666">[BASE TABLE]</text>
<polygon fill="none" stroke="black" points="77.45,-1377.6 77.45,-1408.4 346.39,-1408.4 346.39,-1377.6 77.45,-1377.6"/>
<text text-anchor="start" x="84.45" y="-1389.8" font-family="Arial" font-size="14.00">track_id </text>
<text text-anchor="start" x="137.36" y="-1389.8" font-family="Arial" font-size="14.00" fill="#666666">[bigint]</text>
<polygon fill="none" stroke="black" points="77.45,-1346.8 77.45,-1377.6 346.39,-1377.6 346.39,-1346.8 77.45,-1346.8"/>
<text text-anchor="start" x="84.45" y="-1359" font-family="Arial" font-size="14.00">artist_mbid </text>
<text text-anchor="start" x="156.81" y="-1359" font-family="Arial" font-size="14.00" fill="#666666">[text]</text>
</g>
<!-- public.track_artist&#45;&gt;public.track -->
<g id="edge1" class="edge">
<title>public.track_artist:track_id&#45;&gt;public.track:id</title>
<path fill="none" stroke="black" d="M357.61,-1392.47C449.27,-1382.29 325.96,-1227.74 398.92,-1149.6 472.74,-1070.54 758.92,-1016.4 867.08,-1016.4"/>
<polygon fill="black" stroke="black" points="357.71,-1392.47 347.5,-1388.49 352.39,-1392.74 348.06,-1392.97 348.06,-1392.97 348.06,-1392.97 352.39,-1392.74 347.96,-1397.48 357.71,-1392.47"/>
<text text-anchor="start" x="7" y="-1403" font-family="Arial" font-size="10.00">FOREIGN KEY (track_id) REFERENCES track(id) ON DELETE CASCADE</text>
</g>
<!-- public.playback_history -->
<g id="node3" class="node">
<title>public.playback_history</title>
<polygon fill="#efefef" stroke="none" points="450.95,-1485.4 450.95,-1521 762.9,-1521 762.9,-1485.4 450.95,-1485.4"/>
<polygon fill="none" stroke="black" points="450.95,-1485.4 450.95,-1521 762.9,-1521 762.9,-1485.4 450.95,-1485.4"/>
<text text-anchor="start" x="457.95" y="-1498.8" font-family="Arial Bold" font-size="18.00">public.playback_history</text>
<text text-anchor="start" x="631.41" y="-1498.8" font-family="Arial" font-size="14.00">    </text>
<text text-anchor="start" x="662.52" y="-1498.8" font-family="Arial" font-size="14.00" fill="#666666">[BASE TABLE]</text>
<polygon fill="none" stroke="black" points="450.95,-1454.6 450.95,-1485.4 762.9,-1485.4 762.9,-1454.6 450.95,-1454.6"/>
<text text-anchor="start" x="457.95" y="-1466.8" font-family="Arial" font-size="14.00">id </text>
<text text-anchor="start" x="472.73" y="-1466.8" font-family="Arial" font-size="14.00" fill="#666666">[bigint]</text>
<polygon fill="none" stroke="black" points="450.95,-1423.8 450.95,-1454.6 762.9,-1454.6 762.9,-1423.8 450.95,-1423.8"/>
<text text-anchor="start" x="457.95" y="-1436" font-family="Arial" font-size="14.00">track_id </text>
<text text-anchor="start" x="510.86" y="-1436" font-family="Arial" font-size="14.00" fill="#666666">[bigint]</text>
<polygon fill="none" stroke="black" points="450.95,-1393 450.95,-1423.8 762.9,-1423.8 762.9,-1393 450.95,-1393"/>
<text text-anchor="start" x="457.95" y="-1405.2" font-family="Arial" font-size="14.00">timestamp </text>
<text text-anchor="start" x="526.41" y="-1405.2" font-family="Arial" font-size="14.00" fill="#666666">[timestamp with time zone]</text>
<polygon fill="none" stroke="black" points="450.95,-1362.2 450.95,-1393 762.9,-1393 762.9,-1362.2 450.95,-1362.2"/>
<text text-anchor="start" x="457.95" y="-1374.4" font-family="Arial" font-size="14.00">client_ip </text>
<text text-anchor="start" x="513.2" y="-1374.4" font-family="Arial" font-size="14.00" fill="#666666">[text]</text>
<polygon fill="none" stroke="black" points="450.95,-1331.4 450.95,-1362.2 762.9,-1362.2 762.9,-1331.4 450.95,-1331.4"/>
<text text-anchor="start" x="457.95" y="-1343.6" font-family="Arial" font-size="14.00">hostname </text>
<text text-anchor="start" x="523.32" y="-1343.6" font-family="Arial" font-size="14.00" fill="#666666">[text]</text>
<polygon fill="none" stroke="black" points="450.95,-1300.6 450.95,-1331.4 762.9,-1331.4 762.9,-1300.6 450.95,-1300.6"/>
<text text-anchor="start" x="457.95" y="-1312.8" font-family="Arial" font-size="14.00">client_id </text>
<text text-anchor="start" x="513.2" y="-1312.8" font-family="Arial" font-size="14.00" fill="#666666">[text]</text>
<polygon fill="none" stroke="black" points="450.95,-1269.8 450.95,-1300.6 762.9,-1300.6 762.9,-1269.8 450.95,-1269.8"/>
<text text-anchor="start" x="457.95" y="-1282" font-family="Arial" font-size="14.00">user_id </text>
<text text-anchor="start" x="507.75" y="-1282" font-family="Arial" font-size="14.00" fill="#666666">[bigint]</text>
</g>
<!-- public.playback_history&#45;&gt;public.track -->
<g id="edge2" class="edge">
<title>public.playback_history:track_id&#45;&gt;public.track:id</title>
<path fill="none" stroke="black" d="M774.09,-1437.09C825.78,-1414.05 798.25,-1208.95 814.92,-1149.6 832.11,-1088.39 803.5,-1016.4 867.08,-1016.4"/>
<polygon fill="black" stroke="black" points="774.02,-1437.1 763.31,-1434.73 768.79,-1438.19 764.55,-1439.06 764.55,-1439.06 764.55,-1439.06 768.79,-1438.19 765.14,-1443.54 774.02,-1437.1"/>
<text text-anchor="start" x="770.9" y="-1449.2" font-family="Arial" font-size="10.00">FOREIGN KEY (track_id) REFERENCES track(id) ON DELETE CASCADE</text>
</g>
<!-- public.top_track -->
<g id="node4" class="node">
<title>public.top_track</title>
<polygon fill="#efefef" stroke="none" points="866.94,-1562.4 866.94,-1598 1122.9,-1598 1122.9,-1562.4 866.94,-1562.4"/>
<polygon fill="none" stroke="black" points="866.94,-1562.4 866.94,-1598 1122.9,-1598 1122.9,-1562.4 866.94,-1562.4"/>
<text text-anchor="start" x="873.94" y="-1575.8" font-family="Arial Bold" font-size="18.00">public.top_track</text>
<text text-anchor="start" x="991.41" y="-1575.8" font-family="Arial" font-size="14.00">    </text>
<text text-anchor="start" x="1022.53" y="-1575.8" font-family="Arial" font-size="14.00" fill="#666666">[BASE TABLE]</text>
<polygon fill="none" stroke="black" points="866.94,-1531.6 866.94,-1562.4 1122.9,-1562.4 1122.9,-1531.6 866.94,-1531.6"/>
<text text-anchor="start" x="873.94" y="-1543.8" font-family="Arial" font-size="14.00">id </text>
<text text-anchor="start" x="888.73" y="-1543.8" font-family="Arial" font-size="14.00" fill="#666666">[bigint]</text>
<polygon fill="none" stroke="black" points="866.94,-1500.8 866.94,-1531.6 1122.9,-1531.6 1122.9,-1500.8 866.94,-1500.8"/>
<text text-anchor="start" x="873.94" y="-1513" font-family="Arial" font-size="14.00">artist_mbid </text>
<text text-anchor="start" x="946.3" y="-1513" font-family="Arial" font-size="14.00" fill="#666666">[text]</text>
<polygon fill="none" stroke="black" points="866.94,-1470 866.94,-1500.8 1122.9,-1500.8 1122.9,-1470 866.94,-1470"/>
<text text-anchor="start" x="873.94" y="-1482.2" font-family="Arial" font-size="14.00">type </text>
<text text-anchor="start" x="904.29" y="-1482.2" font-family="Arial" font-size="14.00" fill="#666666">[text]</text>
<polygon fill="none" stroke="black" points="866.94,-1439.2 866.94,-1470 1122.9,-1470 1122.9,-1439.2 866.94,-1439.2"/>
<text text-anchor="start" x="873.94" y="-1451.4" font-family="Arial" font-size="14.00">track_id </text>
<text text-anchor="start" x="926.85" y="-1451.4" font-family="Arial" font-size="14.00" fill="#666666">[bigint]</text>
<polygon fill="none" stroke="black" points="866.94,-1408.4 866.94,-1439.2 1122.9,-1439.2 1122.9,-1408.4 866.94,-1408.4"/>
<text text-anchor="start" x="873.94" y="-1420.6" font-family="Arial" font-size="14.00">external_name </text>
<text text-anchor="start" x="970.45" y="-1420.6" font-family="Arial" font-size="14.00" fill="#666666">[text]</text>
<polygon fill="none" stroke="black" points="866.94,-1377.6 866.94,-1408.4 1122.9,-1408.4 1122.9,-1377.6 866.94,-1377.6"/>
<text text-anchor="start" x="873.94" y="-1389.8" font-family="Arial" font-size="14.00">external_album </text>
<text text-anchor="start" x="973.56" y="-1389.8" font-family="Arial" font-size="14.00" fill="#666666">[text]</text>
<polygon fill="none" stroke="black" points="866.94,-1346.8 866.94,-1377.6 1122.9,-1377.6 1122.9,-1346.8 866.94,-1346.8"/>
<text text-anchor="start" x="873.94" y="-1359" font-family="Arial" font-size="14.00">external_date </text>
<text text-anchor="start" x="962.67" y="-1359" font-family="Arial" font-size="14.00" fill="#666666">[text]</text>
<polygon fill="none" stroke="black" points="866.94,-1316 866.94,-1346.8 1122.9,-1346.8 1122.9,-1316 866.94,-1316"/>
<text text-anchor="start" x="873.94" y="-1328.2" font-family="Arial" font-size="14.00">external_duration_ms </text>
<text text-anchor="start" x="1012.47" y="-1328.2" font-family="Arial" font-size="14.00" fill="#666666">[integer]</text>
<polygon fill="none" stroke="black" points="866.94,-1285.2 866.94,-1316 1122.9,-1316 1122.9,-1285.2 866.94,-1285.2"/>
<text text-anchor="start" x="873.94" y="-1297.4" font-family="Arial" font-size="14.00">external_mbid </text>
<text text-anchor="start" x="965.77" y="-1297.4" font-family="Arial" font-size="14.00" fill="#666666">[text]</text>
<polygon fill="none" stroke="black" points="866.94,-1254.4 866.94,-1285.2 1122.9,-1285.2 1122.9,-1254.4 866.94,-1254.4"/>
<text text-anchor="start" x="873.94" y="-1266.6" font-family="Arial" font-size="14.00">popularity </text>
<text text-anchor="start" x="938.54" y="-1266.6" font-family="Arial" font-size="14.00" fill="#666666">[integer]</text>
<polygon fill="none" stroke="black" points="866.94,-1223.6 866.94,-1254.4 1122.9,-1254.4 1122.9,-1223.6 866.94,-1223.6"/>
<text text-anchor="start" x="873.94" y="-1235.8" font-family="Arial" font-size="14.00">rank </text>
<text text-anchor="start" x="905.07" y="-1235.8" font-family="Arial" font-size="14.00" fill="#666666">[integer]</text>
<polygon fill="none" stroke="black" points="866.94,-1192.8 866.94,-1223.6 1122.9,-1223.6 1122.9,-1192.8 866.94,-1192.8"/>
<text text-anchor="start" x="873.94" y="-1205" font-family="Arial" font-size="14.00">updated_at </text>
<text text-anchor="start" x="947.9" y="-1205" font-family="Arial" font-size="14.00" fill="#666666">[timestamp with time zone]</text>
</g>
<!-- public.top_track&#45;&gt;public.track -->
<g id="edge3" class="edge">
<title>public.top_track:track_id&#45;&gt;public.track:id</title>
<path fill="none" stroke="black" d="M1132.69,-1449.37C1172.24,-1399.93 1168.31,-1016.4 1122.76,-1016.4"/>
<polygon fill="black" stroke="black" points="1132.78,-1449.32 1121.89,-1450.56 1128.2,-1452.05 1124.47,-1454.26 1124.47,-1454.26 1124.47,-1454.26 1128.2,-1452.05 1126.49,-1458.3 1132.78,-1449.32"/>
<text text-anchor="start" x="1130.9" y="-1464.6" font-family="Arial" font-size="10.00">FOREIGN KEY (track_id) REFERENCES track(id) ON DELETE SET NULL</text>
</g>
<!-- public.playlist_track -->
<g id="node5" class="node">
<title>public.playlist_track</title>
<polygon fill="#efefef" stroke="none" points="1226.94,-1439.2 1226.94,-1474.8 1512.9,-1474.8 1512.9,-1439.2 1226.94,-1439.2"/>
<polygon fill="none" stroke="black" points="1226.94,-1439.2 1226.94,-1474.8 1512.9,-1474.8 1512.9,-1439.2 1226.94,-1439.2"/>
<text text-anchor="start" x="1233.94" y="-1452.6" font-family="Arial Bold" font-size="18.00">public.playlist_track</text>
<text text-anchor="start" x="1381.41" y="-1452.6" font-family="Arial" font-size="14.00">    </text>
<text text-anchor="start" x="1412.52" y="-1452.6" font-family="Arial" font-size="14.00" fill="#666666">[BASE TABLE]</text>
<polygon fill="none" stroke="black" points="1226.94,-1408.4 1226.94,-1439.2 1512.9,-1439.2 1512.9,-1408.4 1226.94,-1408.4"/>
<text text-anchor="start" x="1233.94" y="-1420.6" font-family="Arial" font-size="14.00">id </text>
<text text-anchor="start" x="1248.73" y="-1420.6" font-family="Arial" font-size="14.00" fill="#666666">[bigint]</text>
<polygon fill="none" stroke="black" points="1226.94,-1377.6 1226.94,-1408.4 1512.9,-1408.4 1512.9,-1377.6 1226.94,-1377.6"/>
<text text-anchor="start" x="1233.94" y="-1389.8" font-family="Arial" font-size="14.00">playlist_id </text>
<text text-anchor="start" x="1299.31" y="-1389.8" font-family="Arial" font-size="14.00" fill="#666666">[bigint]</text>
<polygon fill="none" stroke="black" points="1226.94,-1346.8 1226.94,-1377.6 1512.9,-1377.6 1512.9,-1346.8 1226.94,-1346.8"/>
<text text-anchor="start" x="1233.94" y="-1359" font-family="Arial" font-size="14.00">track_id </text>
<text text-anchor="start" x="1286.85" y="-1359" font-family="Arial" font-size="14.00" fill="#666666">[bigint]</text>
<polygon fill="none" stroke="black" points="1226.94,-1316 1226.94,-1346.8 1512.9,-1346.8 1512.9,-1316 1226.94,-1316"/>
<text text-anchor="start" x="1233.94" y="-1328.2" font-family="Arial" font-size="14.00">position </text>
<text text-anchor="start" x="1286.09" y="-1328.2" font-family="Arial" font-size="14.00" fill="#666666">[integer]</text>
</g>
<!-- public.playlist_track&#45;&gt;public.track -->
<g id="edge4" class="edge">
<title>public.playlist_track:track_id&#45;&gt;public.track:id</title>
<path fill="none" stroke="black" d="M1216.09,-1359.57C1179.01,-1338.18 1188.4,-1192.51 1174.92,-1149.6 1155.87,-1088.95 1186.34,-1016.4 1122.76,-1016.4"/>
<polygon fill="black" stroke="black" points="1215.96,-1359.53 1224.46,-1366.46 1221.11,-1360.91 1225.3,-1362.03 1225.3,-1362.03 1225.3,-1362.03 1221.11,-1360.91 1226.78,-1357.77 1215.96,-1359.53"/>
<text text-anchor="start" x="1232.94" y="-1372.2" font-family="Arial" font-size="10.00">FOREIGN KEY (track_id) REFERENCES track(id) ON DELETE CASCADE</text>
</g>
<!-- public.lastfm_scrobble_match -->
<g id="node6" class="node">
<title>public.lastfm_scrobble_match</title>
<polygon fill="#efefef" stroke="none" points="1616.96,-1500.8 1616.96,-1536.4 1972.89,-1536.4 1972.89,-1500.8 1616.96,-1500.8"/>
<polygon fill="none" stroke="black" points="1616.96,-1500.8 1616.96,-1536.4 1972.89,-1536.4 1972.89,-1500.8 1616.96,-1500.8"/>
<text text-anchor="start" x="1623.96" y="-1514.2" font-family="Arial Bold" font-size="18.00">public.lastfm_scrobble_match</text>
<text text-anchor="start" x="1841.4" y="-1514.2" font-family="Arial" font-size="14.00">    </text>
<text text-anchor="start" x="1872.51" y="-1514.2" font-family="Arial" font-size="14.00" fill="#666666">[BASE TABLE]</text>
<polygon fill="none" stroke="black" points="1616.96,-1470 1616.96,-1500.8 1972.89,-1500.8 1972.89,-1470 1616.96,-1470"/>
<text text-anchor="start" x="1623.96" y="-1482.2" font-family="Arial" font-size="14.00">id </text>
<text text-anchor="start" x="1638.74" y="-1482.2" font-family="Arial" font-size="14.00" fill="#666666">[bigint]</text>
<polygon fill="none" stroke="black" points="1616.96,-1439.2 1616.96,-1470 1972.89,-1470 1972.89,-1439.2 1616.96,-1439.2"/>
<text text-anchor="start" x="1623.96" y="-1451.4" font-family="Arial" font-size="14.00">scrobble_id </text>
<text text-anchor="start" x="1699.44" y="-1451.4" font-family="Arial" font-size="14.00" fill="#666666">[bigint]</text>
<polygon fill="none" stroke="black" points="1616.96,-1408.4 1616.96,-1439.2 1972.89,-1439.2 1972.89,-1408.4 1616.96,-1408.4"/>
<text text-anchor="start" x="1623.96" y="-1420.6" font-family="Arial" font-size="14.00">track_id </text>
<text text-anchor="start" x="1676.87" y="-1420.6" font-family="Arial" font-size="14.00" fill="#666666">[bigint]</text>
<polygon fill="none" stroke="black" points="1616.96,-1377.6 1616.96,-1408.4 1972.89,-1408.4 1972.89,-1377.6 1616.96,-1377.6"/>
<text text-anchor="start" x="1623.96" y="-1389.8" font-family="Arial" font-size="14.00">match_score </text>
<text text-anchor="start" x="1707.99" y="-1389.8" font-family="Arial" font-size="14.00" fill="#666666">[double precision]</text>
<polygon fill="none" stroke="black" points="1616.96,-1346.8 1616.96,-1377.6 1972.89,-1377.6 1972.89,-1346.8 1616.96,-1346.8"/>
<text text-anchor="start" x="1623.96" y="-1359" font-family="Arial" font-size="14.00">match_method </text>
<text text-anchor="start" x="1720.45" y="-1359" font-family="Arial" font-size="14.00" fill="#666666">[text]</text>
<polygon fill="none" stroke="black" points="1616.96,-1316 1616.96,-1346.8 1972.89,-1346.8 1972.89,-1316 1616.96,-1316"/>
<text text-anchor="start" x="1623.96" y="-1328.2" font-family="Arial" font-size="14.00">match_reason </text>
<text text-anchor="start" x="1716.56" y="-1328.2" font-family="Arial" font-size="14.00" fill="#666666">[text]</text>
<polygon fill="none" stroke="black" points="1616.96,-1285.2 1616.96,-1316 1972.89,-1316 1972.89,-1285.2 1616.96,-1285.2"/>
<text text-anchor="start" x="1623.96" y="-1297.4" font-family="Arial" font-size="14.00">cache_key </text>
<text text-anchor="start" x="1694.78" y="-1297.4" font-family="Arial" font-size="14.00" fill="#666666">[text]</text>
<polygon fill="none" stroke="black" points="1616.96,-1254.4 1616.96,-1285.2 1972.89,-1285.2 1972.89,-1254.4 1616.96,-1254.4"/>
<text text-anchor="start" x="1623.96" y="-1266.6" font-family="Arial" font-size="14.00">matched_at </text>
<text text-anchor="start" x="1701" y="-1266.6" font-family="Arial" font-size="14.00" fill="#666666">[timestamp with time zone]</text>
</g>
<!-- public.lastfm_scrobble_match&#45;&gt;public.track -->
<g id="edge5" class="edge">
<title>public.lastfm_scrobble_match:track_id&#45;&gt;public.track:id</title>
<path fill="none" stroke="black" d="M1605.77,-1423.34C1500.91,-1413.22 1645.26,-1239.18 1564.92,-1149.6 1496.4,-1073.21 1225.38,-1016.4 1122.76,-1016.4"/>
<polygon fill="black" stroke="black" points="1605.63,-1423.33 1615.42,-1428.28 1610.96,-1423.57 1615.29,-1423.77 1615.29,-1423.77 1615.29,-1423.77 1610.96,-1423.57 1615.83,-1419.29 1605.63,-1423.33"/>
<text text-anchor="start" x="1362.41" y="-1407.8" font-family="Arial" font-size="10.00">FOREIGN KEY (track_id) REFERENCES track(id) ON DELETE CASCADE</text>
</g>
</g>
</svg>
