<?xml version="1.0" encoding="UTF-8" standalone="no"?>
<!DOCTYPE svg PUBLIC "-//W3C//DTD SVG 1.1//EN"
 "http://www.w3.org/Graphics/SVG/1.1/DTD/svg11.dtd">
<!-- Generated by graphviz version 12.1.2 (20240928.0832)
 -->
<!-- Title: public.playlist Pages: 1 -->
<svg width="717pt" height="1222pt"
 viewBox="0.00 0.00 716.77 1222.00" xmlns="http://www.w3.org/2000/svg" xmlns:xlink="http://www.w3.org/1999/xlink">
<g id="graph0" class="graph" transform="scale(1 1) rotate(0) translate(4 1218)">
<title>public.playlist</title>
<polygon fill="white" stroke="none" points="-4,4 -4,-1218 712.77,-1218 712.77,4 -4,4"/>
<!-- public.playlist -->
<g id="node1" class="node">
<title>public.playlist</title>
<polygon fill="#efefef" stroke="none" points="72.76,-851 72.76,-886.6 326.44,-886.6 326.44,-851 72.76,-851"/>
<polygon fill="none" stroke="black" points="72.76,-851 72.76,-886.6 326.44,-886.6 326.44,-851 72.76,-851"/>
<text text-anchor="start" x="86.11" y="-864.4" font-family="Arial Bold" font-size="18.00">public.playlist</text>
<text text-anchor="start" x="188.6" y="-864.4" font-family="Arial" font-size="14.00">    </text>
<text text-anchor="start" x="219.72" y="-864.4" font-family="Arial" font-size="14.00" fill="#666666">[BASE TABLE]</text>
<polygon fill="none" stroke="black" points="72.76,-820.2 72.76,-851 326.44,-851 326.44,-820.2 72.76,-820.2"/>
<text text-anchor="start" x="79.76" y="-832.4" font-family="Arial" font-size="14.00">id </text>
<text text-anchor="start" x="94.55" y="-832.4" font-family="Arial" font-size="14.00" fill="#666666">[bigint]</text>
<polygon fill="none" stroke="black" points="72.76,-789.4 72.76,-820.2 326.44,-820.2 326.44,-789.4 72.76,-789.4"/>
<text text-anchor="start" x="79.76" y="-801.6" font-family="Arial" font-size="14.00">user_id </text>
<text text-anchor="start" x="129.57" y="-801.6" font-family="Arial" font-size="14.00" fill="#666666">[bigint]</text>
<polygon fill="none" stroke="black" points="72.76,-758.6 72.76,-789.4 326.44,-789.4 326.44,-758.6 72.76,-758.6"/>
<text text-anchor="start" x="79.76" y="-770.8" font-family="Arial" font-size="14.00">name </text>
<text text-anchor="start" x="118.67" y="-770.8" font-family="Arial" font-size="14.00" fill="#666666">[text]</text>
<polygon fill="none" stroke="black" points="72.76,-727.8 72.76,-758.6 326.44,-758.6 326.44,-727.8 72.76,-727.8"/>
<text text-anchor="start" x="79.76" y="-740" font-family="Arial" font-size="14.00">description </text>
<text text-anchor="start" x="151.35" y="-740" font-family="Arial" font-size="14.00" fill="#666666">[text]</text>
<polygon fill="none" stroke="black" points="72.76,-697 72.76,-727.8 326.44,-727.8 326.44,-697 72.76,-697"/>
<text text-anchor="start" x="79.76" y="-709.2" font-family="Arial" font-size="14.00">is_public </text>
<text text-anchor="start" x="138.13" y="-709.2" font-family="Arial" font-size="14.00" fill="#666666">[boolean]</text>
<polygon fill="none" stroke="black" points="72.76,-666.2 72.76,-697 326.44,-697 326.44,-666.2 72.76,-666.2"/>
<text text-anchor="start" x="79.76" y="-678.4" font-family="Arial" font-size="14.00">updated_at </text>
<text text-anchor="start" x="153.72" y="-678.4" font-family="Arial" font-size="14.00" fill="#666666">[timestamp with time zone]</text>
<polygon fill="none" stroke="black" stroke-width="3" points="71.26,-664.7 71.26,-888.1 327.94,-888.1 327.94,-664.7 71.26,-664.7"/>
</g>
<!-- public.user -->
<g id="node3" class="node">
<title>public.user</title>
<polygon fill="#efefef" stroke="none" points="43.2,-505.2 43.2,-540.8 356.01,-540.8 356.01,-505.2 43.2,-505.2"/>
<polygon fill="none" stroke="black" points="43.2,-505.2 43.2,-540.8 356.01,-540.8 356.01,-505.2 43.2,-505.2"/>
<text text-anchor="start" x="97.62" y="-518.6" font-family="Arial Bold" font-size="18.00">public.user</text>
<text text-anchor="start" x="177.1" y="-518.6" font-family="Arial" font-size="14.00">    </text>
<text text-anchor="start" x="208.22" y="-518.6" font-family="Arial" font-size="14.00" fill="#666666">[BASE TABLE]</text>
<polygon fill="none" stroke="black" points="43.2,-474.4 43.2,-505.2 356.01,-505.2 356.01,-474.4 43.2,-474.4"/>
<text text-anchor="start" x="50.2" y="-486.6" font-family="Arial" font-size="14.00">id </text>
<text text-anchor="start" x="64.99" y="-486.6" font-family="Arial" font-size="14.00" fill="#666666">[bigint]</text>
<polygon fill="none" stroke="black" points="43.2,-443.6 43.2,-474.4 356.01,-474.4 356.01,-443.6 43.2,-443.6"/>
<text text-anchor="start" x="50.2" y="-455.8" font-family="Arial" font-size="14.00">username </text>
<text text-anchor="start" x="116.34" y="-455.8" font-family="Arial" font-size="14.00" fill="#666666">[citext]</text>
<polygon fill="none" stroke="black" points="43.2,-412.8 43.2,-443.6 356.01,-443.6 356.01,-412.8 43.2,-412.8"/>
<text text-anchor="start" x="50.2" y="-425" font-family="Arial" font-size="14.00">email </text>
<text text-anchor="start" x="87.54" y="-425" font-family="Arial" font-size="14.00" fill="#666666">[citext]</text>
<polygon fill="none" stroke="black" points="43.2,-382 43.2,-412.8 356.01,-412.8 356.01,-382 43.2,-382"/>
<text text-anchor="start" x="50.2" y="-394.2" font-family="Arial" font-size="14.00">password_hash </text>
<text text-anchor="start" x="152.15" y="-394.2" font-family="Arial" font-size="14.00" fill="#666666">[text]</text>
<polygon fill="none" stroke="black" points="43.2,-351.2 43.2,-382 356.01,-382 356.01,-351.2 43.2,-351.2"/>
<text text-anchor="start" x="50.2" y="-363.4" font-family="Arial" font-size="14.00">display_name </text>
<text text-anchor="start" x="140.48" y="-363.4" font-family="Arial" font-size="14.00" fill="#666666">[text]</text>
<polygon fill="none" stroke="black" points="43.2,-320.4 43.2,-351.2 356.01,-351.2 356.01,-320.4 43.2,-320.4"/>
<text text-anchor="start" x="50.2" y="-332.6" font-family="Arial" font-size="14.00">created_at </text>
<text text-anchor="start" x="120.25" y="-332.6" font-family="Arial" font-size="14.00" fill="#666666">[timestamp with time zone]</text>
<polygon fill="none" stroke="black" points="43.2,-289.6 43.2,-320.4 356.01,-320.4 356.01,-289.6 43.2,-289.6"/>
<text text-anchor="start" x="50.2" y="-301.8" font-family="Arial" font-size="14.00">last_login_at </text>
<text text-anchor="start" x="132.7" y="-301.8" font-family="Arial" font-size="14.00" fill="#666666">[timestamp with time zone]</text>
<polygon fill="none" stroke="black" points="43.2,-258.8 43.2,-289.6 356.01,-289.6 356.01,-258.8 43.2,-258.8"/>
<text text-anchor="start" x="50.2" y="-271" font-family="Arial" font-size="14.00">is_active </text>
<text text-anchor="start" x="108.56" y="-271" font-family="Arial" font-size="14.00" fill="#666666">[boolean]</text>
<polygon fill="none" stroke="black" points="43.2,-228 43.2,-258.8 356.01,-258.8 356.01,-228 43.2,-228"/>
<text text-anchor="start" x="50.2" y="-240.2" font-family="Arial" font-size="14.00">is_admin </text>
<text text-anchor="start" x="110.12" y="-240.2" font-family="Arial" font-size="14.00" fill="#666666">[boolean]</text>
<polygon fill="none" stroke="black" points="43.2,-197.2 43.2,-228 356.01,-228 356.01,-197.2 43.2,-197.2"/>
<text text-anchor="start" x="50.2" y="-209.4" font-family="Arial" font-size="14.00">accent_color </text>
<text text-anchor="start" x="133.47" y="-209.4" font-family="Arial" font-size="14.00" fill="#666666">[text]</text>
<polygon fill="none" stroke="black" points="43.2,-166.4 43.2,-197.2 356.01,-197.2 356.01,-166.4 43.2,-166.4"/>
<text text-anchor="start" x="50.2" y="-178.6" font-family="Arial" font-size="14.00">theme_mode </text>
<text text-anchor="start" x="135.81" y="-178.6" font-family="Arial" font-size="14.00" fill="#666666">[text]</text>
<polygon fill="none" stroke="black" points="43.2,-135.6 43.2,-166.4 356.01,-166.4 356.01,-135.6 43.2,-135.6"/>
<text text-anchor="start" x="50.2" y="-147.8" font-family="Arial" font-size="14.00">lastfm_username </text>
<text text-anchor="start" x="161.47" y="-147.8" font-family="Arial" font-size="14.00" fill="#666666">[text]</text>
<polygon fill="none" stroke="black" points="43.2,-104.8 43.2,-135.6 356.01,-135.6 356.01,-104.8 43.2,-104.8"/>
<text text-anchor="start" x="50.2" y="-117" font-family="Arial" font-size="14.00">lastfm_session_key </text>
<text text-anchor="start" x="176.25" y="-117" font-family="Arial" font-size="14.00" fill="#666666">[text]</text>
<polygon fill="none" stroke="black" points="43.2,-74 43.2,-104.8 356.01,-104.8 356.01,-74 43.2,-74"/>
<text text-anchor="start" x="50.2" y="-86.2" font-family="Arial" font-size="14.00">lastfm_enabled </text>
<text text-anchor="start" x="149.04" y="-86.2" font-family="Arial" font-size="14.00" fill="#666666">[boolean]</text>
<polygon fill="none" stroke="black" points="43.2,-43.2 43.2,-74 356.01,-74 356.01,-43.2 43.2,-43.2"/>
<text text-anchor="start" x="50.2" y="-55.4" font-family="Arial" font-size="14.00">lastfm_connected_at </text>
<text text-anchor="start" x="183.28" y="-55.4" font-family="Arial" font-size="14.00" fill="#666666">[timestamp with time zone]</text>
</g>
<!-- public.playlist&#45;&gt;public.user -->
<g id="edge2" class="edge">
<title>public.playlist:user_id&#45;&gt;public.user:id</title>
<path fill="none" stroke="black" d="M337.44,-802.62C400.4,-774.79 423.88,-489.8 357.01,-489.8"/>
<polygon fill="black" stroke="black" points="337.54,-802.6 326.81,-800.33 332.33,-803.74 328.1,-804.66 328.1,-804.66 328.1,-804.66 332.33,-803.74 328.73,-809.13 337.54,-802.6"/>
<text text-anchor="start" x="334.44" y="-814.8" font-family="Arial" font-size="10.00">FOREIGN KEY (user_id) REFERENCES &quot;user&quot;(id) ON DELETE CASCADE</text>
</g>
<!-- public.playlist_track -->
<g id="node2" class="node">
<title>public.playlist_track</title>
<polygon fill="#efefef" stroke="none" points="56.63,-1135.2 56.63,-1170.8 342.58,-1170.8 342.58,-1135.2 56.63,-1135.2"/>
<polygon fill="none" stroke="black" points="56.63,-1135.2 56.63,-1170.8 342.58,-1170.8 342.58,-1135.2 56.63,-1135.2"/>
<text text-anchor="start" x="63.63" y="-1148.6" font-family="Arial Bold" font-size="18.00">public.playlist_track</text>
<text text-anchor="start" x="211.09" y="-1148.6" font-family="Arial" font-size="14.00">    </text>
<text text-anchor="start" x="242.21" y="-1148.6" font-family="Arial" font-size="14.00" fill="#666666">[BASE TABLE]</text>
<polygon fill="none" stroke="black" points="56.63,-1104.4 56.63,-1135.2 342.58,-1135.2 342.58,-1104.4 56.63,-1104.4"/>
<text text-anchor="start" x="63.63" y="-1116.6" font-family="Arial" font-size="14.00">id </text>
<text text-anchor="start" x="78.41" y="-1116.6" font-family="Arial" font-size="14.00" fill="#666666">[bigint]</text>
<polygon fill="none" stroke="black" points="56.63,-1073.6 56.63,-1104.4 342.58,-1104.4 342.58,-1073.6 56.63,-1073.6"/>
<text text-anchor="start" x="63.63" y="-1085.8" font-family="Arial" font-size="14.00">playlist_id </text>
<text text-anchor="start" x="128.99" y="-1085.8" font-family="Arial" font-size="14.00" fill="#666666">[bigint]</text>
<polygon fill="none" stroke="black" points="56.63,-1042.8 56.63,-1073.6 342.58,-1073.6 342.58,-1042.8 56.63,-1042.8"/>
<text text-anchor="start" x="63.63" y="-1055" font-family="Arial" font-size="14.00">track_id </text>
<text text-anchor="start" x="116.54" y="-1055" font-family="Arial" font-size="14.00" fill="#666666">[bigint]</text>
<polygon fill="none" stroke="black" points="56.63,-1012 56.63,-1042.8 342.58,-1042.8 342.58,-1012 56.63,-1012"/>
<text text-anchor="start" x="63.63" y="-1024.2" font-family="Arial" font-size="14.00">position </text>
<text text-anchor="start" x="115.77" y="-1024.2" font-family="Arial" font-size="14.00" fill="#666666">[integer]</text>
</g>
<!-- public.playlist_track&#45;&gt;public.playlist -->
<g id="edge1" class="edge">
<title>public.playlist_track:playlist_id&#45;&gt;public.playlist:id</title>
<path fill="none" stroke="black" d="M353.78,-1088.27C455.33,-1073.41 436.77,-835.6 327.44,-835.6"/>
<polygon fill="black" stroke="black" points="353.89,-1088.27 343.59,-1084.49 348.57,-1088.64 344.25,-1088.95 344.25,-1088.95 344.25,-1088.95 348.57,-1088.64 344.23,-1093.46 353.89,-1088.27"/>
<text text-anchor="start" x="350.58" y="-1099" font-family="Arial" font-size="10.00">FOREIGN KEY (playlist_id) REFERENCES playlist(id) ON DELETE CASCADE</text>
</g>
</g>
</svg>
