<?xml version="1.0" encoding="UTF-8" standalone="no"?>
<!DOCTYPE svg PUBLIC "-//W3C//DTD SVG 1.1//EN"
 "http://www.w3.org/Graphics/SVG/1.1/DTD/svg11.dtd">
<!-- Generated by graphviz version 12.1.2 (20240928.0832)
 -->
<!-- Title: public.lastfm_scrobble_match Pages: 1 -->
<svg width="1125pt" height="1526pt"
 viewBox="0.00 0.00 1125.21 1526.00" xmlns="http://www.w3.org/2000/svg" xmlns:xlink="http://www.w3.org/1999/xlink">
<g id="graph0" class="graph" transform="scale(1 1) rotate(0) translate(4 1522)">
<title>public.lastfm_scrobble_match</title>
<polygon fill="white" stroke="none" points="-4,4 -4,-1522 1121.21,-1522 1121.21,4 -4,4"/>
<!-- public.lastfm_scrobble_match -->
<g id="node1" class="node">
<title>public.lastfm_scrobble_match</title>
<polygon fill="#efefef" stroke="none" points="412.88,-1436.2 412.88,-1471.8 768.81,-1471.8 768.81,-1436.2 412.88,-1436.2"/>
<polygon fill="none" stroke="black" points="412.88,-1436.2 412.88,-1471.8 768.81,-1471.8 768.81,-1436.2 412.88,-1436.2"/>
<text text-anchor="start" x="419.88" y="-1449.6" font-family="Arial Bold" font-size="18.00">public.lastfm_scrobble_match</text>
<text text-anchor="start" x="637.32" y="-1449.6" font-family="Arial" font-size="14.00">    </text>
<text text-anchor="start" x="668.44" y="-1449.6" font-family="Arial" font-size="14.00" fill="#666666">[BASE TABLE]</text>
<polygon fill="none" stroke="black" points="412.88,-1405.4 412.88,-1436.2 768.81,-1436.2 768.81,-1405.4 412.88,-1405.4"/>
<text text-anchor="start" x="419.88" y="-1417.6" font-family="Arial" font-size="14.00">id </text>
<text text-anchor="start" x="434.67" y="-1417.6" font-family="Arial" font-size="14.00" fill="#666666">[bigint]</text>
<polygon fill="none" stroke="black" points="412.88,-1374.6 412.88,-1405.4 768.81,-1405.4 768.81,-1374.6 412.88,-1374.6"/>
<text text-anchor="start" x="419.88" y="-1386.8" font-family="Arial" font-size="14.00">scrobble_id </text>
<text text-anchor="start" x="495.37" y="-1386.8" font-family="Arial" font-size="14.00" fill="#666666">[bigint]</text>
<polygon fill="none" stroke="black" points="412.88,-1343.8 412.88,-1374.6 768.81,-1374.6 768.81,-1343.8 412.88,-1343.8"/>
<text text-anchor="start" x="419.88" y="-1356" font-family="Arial" font-size="14.00">track_id </text>
<text text-anchor="start" x="472.79" y="-1356" font-family="Arial" font-size="14.00" fill="#666666">[bigint]</text>
<polygon fill="none" stroke="black" points="412.88,-1313 412.88,-1343.8 768.81,-1343.8 768.81,-1313 412.88,-1313"/>
<text text-anchor="start" x="419.88" y="-1325.2" font-family="Arial" font-size="14.00">match_score </text>
<text text-anchor="start" x="503.92" y="-1325.2" font-family="Arial" font-size="14.00" fill="#666666">[double precision]</text>
<polygon fill="none" stroke="black" points="412.88,-1282.2 412.88,-1313 768.81,-1313 768.81,-1282.2 412.88,-1282.2"/>
<text text-anchor="start" x="419.88" y="-1294.4" font-family="Arial" font-size="14.00">match_method </text>
<text text-anchor="start" x="516.38" y="-1294.4" font-family="Arial" font-size="14.00" fill="#666666">[text]</text>
<polygon fill="none" stroke="black" points="412.88,-1251.4 412.88,-1282.2 768.81,-1282.2 768.81,-1251.4 412.88,-1251.4"/>
<text text-anchor="start" x="419.88" y="-1263.6" font-family="Arial" font-size="14.00">match_reason </text>
<text text-anchor="start" x="512.49" y="-1263.6" font-family="Arial" font-size="14.00" fill="#666666">[text]</text>
<polygon fill="none" stroke="black" points="412.88,-1220.6 412.88,-1251.4 768.81,-1251.4 768.81,-1220.6 412.88,-1220.6"/>
<text text-anchor="start" x="419.88" y="-1232.8" font-family="Arial" font-size="14.00">cache_key </text>
<text text-anchor="start" x="490.7" y="-1232.8" font-family="Arial" font-size="14.00" fill="#666666">[text]</text>
<polygon fill="none" stroke="black" points="412.88,-1189.8 412.88,-1220.6 768.81,-1220.6 768.81,-1189.8 412.88,-1189.8"/>
<text text-anchor="start" x="419.88" y="-1202" font-family="Arial" font-size="14.00">matched_at </text>
<text text-anchor="start" x="496.93" y="-1202" font-family="Arial" font-size="14.00" fill="#666666">[timestamp with time zone]</text>
<polygon fill="none" stroke="black" stroke-width="3" points="411.38,-1188.3 411.38,-1473.3 770.31,-1473.3 770.31,-1188.3 411.38,-1188.3"/>
</g>
<!-- public.lastfm_scrobble -->
<g id="node2" class="node">
<title>public.lastfm_scrobble</title>
<polygon fill="#efefef" stroke="none" points="248.37,-736.2 248.37,-771.8 551.32,-771.8 551.32,-736.2 248.37,-736.2"/>
<polygon fill="none" stroke="black" points="248.37,-736.2 248.37,-771.8 551.32,-771.8 551.32,-736.2 248.37,-736.2"/>
<text text-anchor="start" x="255.37" y="-749.6" font-family="Arial Bold" font-size="18.00">public.lastfm_scrobble</text>
<text text-anchor="start" x="419.83" y="-749.6" font-family="Arial" font-size="14.00">    </text>
<text text-anchor="start" x="450.95" y="-749.6" font-family="Arial" font-size="14.00" fill="#666666">[BASE TABLE]</text>
<polygon fill="none" stroke="black" points="248.37,-705.4 248.37,-736.2 551.32,-736.2 551.32,-705.4 248.37,-705.4"/>
<text text-anchor="start" x="255.37" y="-717.6" font-family="Arial" font-size="14.00">id </text>
<text text-anchor="start" x="270.16" y="-717.6" font-family="Arial" font-size="14.00" fill="#666666">[bigint]</text>
<polygon fill="none" stroke="black" points="248.37,-674.6 248.37,-705.4 551.32,-705.4 551.32,-674.6 248.37,-674.6"/>
<text text-anchor="start" x="255.37" y="-686.8" font-family="Arial" font-size="14.00">lastfm_username </text>
<text text-anchor="start" x="366.64" y="-686.8" font-family="Arial" font-size="14.00" fill="#666666">[text]</text>
<polygon fill="none" stroke="black" points="248.37,-643.8 248.37,-674.6 551.32,-674.6 551.32,-643.8 248.37,-643.8"/>
<text text-anchor="start" x="255.37" y="-656" font-family="Arial" font-size="14.00">played_at </text>
<text text-anchor="start" x="319.98" y="-656" font-family="Arial" font-size="14.00" fill="#666666">[timestamp with time zone]</text>
<polygon fill="none" stroke="black" points="248.37,-613 248.37,-643.8 551.32,-643.8 551.32,-613 248.37,-613"/>
<text text-anchor="start" x="255.37" y="-625.2" font-family="Arial" font-size="14.00">played_at_uts </text>
<text text-anchor="start" x="346.44" y="-625.2" font-family="Arial" font-size="14.00" fill="#666666">[bigint]</text>
<polygon fill="none" stroke="black" points="248.37,-582.2 248.37,-613 551.32,-613 551.32,-582.2 248.37,-582.2"/>
<text text-anchor="start" x="255.37" y="-594.4" font-family="Arial" font-size="14.00">track_mbid </text>
<text text-anchor="start" x="327.73" y="-594.4" font-family="Arial" font-size="14.00" fill="#666666">[text]</text>
<polygon fill="none" stroke="black" points="248.37,-551.4 248.37,-582.2 551.32,-582.2 551.32,-551.4 248.37,-551.4"/>
<text text-anchor="start" x="255.37" y="-563.6" font-family="Arial" font-size="14.00">track_name </text>
<text text-anchor="start" x="332.41" y="-563.6" font-family="Arial" font-size="14.00" fill="#666666">[text]</text>
<polygon fill="none" stroke="black" points="248.37,-520.6 248.37,-551.4 551.32,-551.4 551.32,-520.6 248.37,-520.6"/>
<text text-anchor="start" x="255.37" y="-532.8" font-family="Arial" font-size="14.00">track_url </text>
<text text-anchor="start" x="312.94" y="-532.8" font-family="Arial" font-size="14.00" fill="#666666">[text]</text>
<polygon fill="none" stroke="black" points="248.37,-489.8 248.37,-520.6 551.32,-520.6 551.32,-489.8 248.37,-489.8"/>
<text text-anchor="start" x="255.37" y="-502" font-family="Arial" font-size="14.00">artist_mbid </text>
<text text-anchor="start" x="327.73" y="-502" font-family="Arial" font-size="14.00" fill="#666666">[text]</text>
<polygon fill="none" stroke="black" points="248.37,-459 248.37,-489.8 551.32,-489.8 551.32,-459 248.37,-459"/>
<text text-anchor="start" x="255.37" y="-471.2" font-family="Arial" font-size="14.00">artist_name </text>
<text text-anchor="start" x="332.41" y="-471.2" font-family="Arial" font-size="14.00" fill="#666666">[text]</text>
<polygon fill="none" stroke="black" points="248.37,-428.2 248.37,-459 551.32,-459 551.32,-428.2 248.37,-428.2"/>
<text text-anchor="start" x="255.37" y="-440.4" font-family="Arial" font-size="14.00">artist_url </text>
<text text-anchor="start" x="312.94" y="-440.4" font-family="Arial" font-size="14.00" fill="#666666">[text]</text>
<polygon fill="none" stroke="black" points="248.37,-397.4 248.37,-428.2 551.32,-428.2 551.32,-397.4 248.37,-397.4"/>
<text text-anchor="start" x="255.37" y="-409.6" font-family="Arial" font-size="14.00">album_mbid </text>
<text text-anchor="start" x="335.52" y="-409.6" font-family="Arial" font-size="14.00" fill="#666666">[text]</text>
<polygon fill="none" stroke="black" points="248.37,-366.6 248.37,-397.4 551.32,-397.4 551.32,-366.6 248.37,-366.6"/>
<text text-anchor="start" x="255.37" y="-378.8" font-family="Arial" font-size="14.00">album_name </text>
<text text-anchor="start" x="340.2" y="-378.8" font-family="Arial" font-size="14.00" fill="#666666">[text]</text>
<polygon fill="none" stroke="black" points="248.37,-335.8 248.37,-366.6 551.32,-366.6 551.32,-335.8 248.37,-335.8"/>
<text text-anchor="start" x="255.37" y="-348" font-family="Arial" font-size="14.00">created_at </text>
<text text-anchor="start" x="325.42" y="-348" font-family="Arial" font-size="14.00" fill="#666666">[timestamp with time zone]</text>
</g>
<!-- public.lastfm_scrobble_match&#45;&gt;public.lastfm_scrobble -->
<g id="edge1" class="edge">
<title>public.lastfm_scrobble_match:scrobble_id&#45;&gt;public.lastfm_scrobble:id</title>
<path fill="none" stroke="black" d="M401.46,-1389.49C244.69,-1373.31 517.63,-977.3 551.32,-815 559.83,-774 594.19,-720.8 552.32,-720.8"/>
<polygon fill="black" stroke="black" points="401.56,-1389.49 411.33,-1394.48 406.89,-1389.76 411.21,-1389.97 411.21,-1389.97 411.21,-1389.97 406.89,-1389.76 411.77,-1385.49 401.56,-1389.49"/>
<text text-anchor="start" x="7" y="-1400" font-family="Arial" font-size="10.00">FOREIGN KEY (scrobble_id) REFERENCES lastfm_scrobble(id) ON DELETE CASCADE</text>
</g>
<!-- public.track -->
<g id="node3" class="node">
<title>public.track</title>
<polygon fill="#efefef" stroke="none" points="656.01,-1028.8 656.01,-1064.4 909.69,-1064.4 909.69,-1028.8 656.01,-1028.8"/>
<polygon fill="none" stroke="black" points="656.01,-1028.8 656.01,-1064.4 909.69,-1064.4 909.69,-1028.8 656.01,-1028.8"/>
<text text-anchor="start" x="677.87" y="-1042.2" font-family="Arial Bold" font-size="18.00">public.track</text>
<text text-anchor="start" x="763.33" y="-1042.2" font-family="Arial" font-size="14.00">    </text>
<text text-anchor="start" x="794.45" y="-1042.2" font-family="Arial" font-size="14.00" fill="#666666">[BASE TABLE]</text>
<polygon fill="none" stroke="black" points="656.01,-998 656.01,-1028.8 909.69,-1028.8 909.69,-998 656.01,-998"/>
<text text-anchor="start" x="663.01" y="-1010.2" font-family="Arial" font-size="14.00">id </text>
<text text-anchor="start" x="677.79" y="-1010.2" font-family="Arial" font-size="14.00" fill="#666666">[bigint]</text>
<polygon fill="none" stroke="black" points="656.01,-967.2 656.01,-998 909.69,-998 909.69,-967.2 656.01,-967.2"/>
<text text-anchor="start" x="663.01" y="-979.4" font-family="Arial" font-size="14.00">path </text>
<text text-anchor="start" x="694.14" y="-979.4" font-family="Arial" font-size="14.00" fill="#666666">[text]</text>
<polygon fill="none" stroke="black" points="656.01,-936.4 656.01,-967.2 909.69,-967.2 909.69,-936.4 656.01,-936.4"/>
<text text-anchor="start" x="663.01" y="-948.6" font-family="Arial" font-size="14.00">updated_at </text>
<text text-anchor="start" x="736.96" y="-948.6" font-family="Arial" font-size="14.00" fill="#666666">[timestamp with time zone]</text>
<polygon fill="none" stroke="black" points="656.01,-905.6 656.01,-936.4 909.69,-936.4 909.69,-905.6 656.01,-905.6"/>
<text text-anchor="start" x="663.01" y="-917.8" font-family="Arial" font-size="14.00">title </text>
<text text-anchor="start" x="688.68" y="-917.8" font-family="Arial" font-size="14.00" fill="#666666">[text]</text>
<polygon fill="none" stroke="black" points="656.01,-874.8 656.01,-905.6 909.69,-905.6 909.69,-874.8 656.01,-874.8"/>
<text text-anchor="start" x="663.01" y="-887" font-family="Arial" font-size="14.00">artist </text>
<text text-anchor="start" x="697.23" y="-887" font-family="Arial" font-size="14.00" fill="#666666">[text]</text>
<polygon fill="none" stroke="black" points="656.01,-844 656.01,-874.8 909.69,-874.8 909.69,-844 656.01,-844"/>
<text text-anchor="start" x="663.01" y="-856.2" font-family="Arial" font-size="14.00">album </text>
<text text-anchor="start" x="705.03" y="-856.2" font-family="Arial" font-size="14.00" fill="#666666">[text]</text>
<polygon fill="none" stroke="black" points="656.01,-813.2 656.01,-844 909.69,-844 909.69,-813.2 656.01,-813.2"/>
<text text-anchor="start" x="663.01" y="-825.4" font-family="Arial" font-size="14.00">album_artist </text>
<text text-anchor="start" x="743.15" y="-825.4" font-family="Arial" font-size="14.00" fill="#666666">[text]</text>
<polygon fill="none" stroke="black" points="656.01,-782.4 656.01,-813.2 909.69,-813.2 909.69,-782.4 656.01,-782.4"/>
<text text-anchor="start" x="663.01" y="-794.6" font-family="Arial" font-size="14.00">track_no </text>
<text text-anchor="start" x="720.59" y="-794.6" font-family="Arial" font-size="14.00" fill="#666666">[integer]</text>
<polygon fill="none" stroke="black" points="656.01,-751.6 656.01,-782.4 909.69,-782.4 909.69,-751.6 656.01,-751.6"/>
<text text-anchor="start" x="663.01" y="-763.8" font-family="Arial" font-size="14.00">disc_no </text>
<text text-anchor="start" x="715.15" y="-763.8" font-family="Arial" font-size="14.00" fill="#666666">[integer]</text>
<polygon fill="none" stroke="black" points="656.01,-720.8 656.01,-751.6 909.69,-751.6 909.69,-720.8 656.01,-720.8"/>
<text text-anchor="start" x="663.01" y="-733" font-family="Arial" font-size="14.00">release_date </text>
<text text-anchor="start" x="747.85" y="-733" font-family="Arial" font-size="14.00" fill="#666666">[date]</text>
<polygon fill="none" stroke="black" points="656.01,-690 656.01,-720.8 909.69,-720.8 909.69,-690 656.01,-690"/>
<text text-anchor="start" x="663.01" y="-702.2" font-family="Arial" font-size="14.00">release_type </text>
<text text-anchor="start" x="747.06" y="-702.2" font-family="Arial" font-size="14.00" fill="#666666">[text]</text>
<polygon fill="none" stroke="black" points="656.01,-659.2 656.01,-690 909.69,-690 909.69,-659.2 656.01,-659.2"/>
<text text-anchor="start" x="663.01" y="-671.4" font-family="Arial" font-size="14.00">release_type_raw </text>
<text text-anchor="start" x="777.4" y="-671.4" font-family="Arial" font-size="14.00" fill="#666666">[text]</text>
<polygon fill="none" stroke="black" points="656.01,-628.4 656.01,-659.2 909.69,-659.2 909.69,-628.4 656.01,-628.4"/>
<text text-anchor="start" x="663.01" y="-640.6" font-family="Arial" font-size="14.00">release_date_raw </text>
<text text-anchor="start" x="778.19" y="-640.6" font-family="Arial" font-size="14.00" fill="#666666">[text]</text>
<polygon fill="none" stroke="black" points="656.01,-597.6 656.01,-628.4 909.69,-628.4 909.69,-597.6 656.01,-597.6"/>
<text text-anchor="start" x="663.01" y="-609.8" font-family="Arial" font-size="14.00">release_date_tag </text>
<text text-anchor="start" x="775.09" y="-609.8" font-family="Arial" font-size="14.00" fill="#666666">[text]</text>
<polygon fill="none" stroke="black" points="656.01,-566.8 656.01,-597.6 909.69,-597.6 909.69,-566.8 656.01,-566.8"/>
<text text-anchor="start" x="663.01" y="-579" font-family="Arial" font-size="14.00">duration_seconds </text>
<text text-anchor="start" x="777.42" y="-579" font-family="Arial" font-size="14.00" fill="#666666">[double precision]</text>
<polygon fill="none" stroke="black" points="656.01,-536 656.01,-566.8 909.69,-566.8 909.69,-536 656.01,-536"/>
<text text-anchor="start" x="663.01" y="-548.2" font-family="Arial" font-size="14.00">codec </text>
<text text-anchor="start" x="704.25" y="-548.2" font-family="Arial" font-size="14.00" fill="#666666">[text]</text>
<polygon fill="none" stroke="black" points="656.01,-505.2 656.01,-536 909.69,-536 909.69,-505.2 656.01,-505.2"/>
<text text-anchor="start" x="663.01" y="-517.4" font-family="Arial" font-size="14.00">sample_rate_hz </text>
<text text-anchor="start" x="766.51" y="-517.4" font-family="Arial" font-size="14.00" fill="#666666">[integer]</text>
<polygon fill="none" stroke="black" points="656.01,-474.4 656.01,-505.2 909.69,-505.2 909.69,-474.4 656.01,-474.4"/>
<text text-anchor="start" x="663.01" y="-486.6" font-family="Arial" font-size="14.00">bit_depth </text>
<text text-anchor="start" x="724.5" y="-486.6" font-family="Arial" font-size="14.00" fill="#666666">[integer]</text>
<polygon fill="none" stroke="black" points="656.01,-443.6 656.01,-474.4 909.69,-474.4 909.69,-443.6 656.01,-443.6"/>
<text text-anchor="start" x="663.01" y="-455.8" font-family="Arial" font-size="14.00">bitrate </text>
<text text-anchor="start" x="705.81" y="-455.8" font-family="Arial" font-size="14.00" fill="#666666">[integer]</text>
<polygon fill="none" stroke="black" points="656.01,-412.8 656.01,-443.6 909.69,-443.6 909.69,-412.8 656.01,-412.8"/>
<text text-anchor="start" x="663.01" y="-425" font-family="Arial" font-size="14.00">channels </text>
<text text-anchor="start" x="722.94" y="-425" font-family="Arial" font-size="14.00" fill="#666666">[integer]</text>
<polygon fill="none" stroke="black" points="656.01,-382 656.01,-412.8 909.69,-412.8 909.69,-382 656.01,-382"/>
<text text-anchor="start" x="663.01" y="-394.2" font-family="Arial" font-size="14.00">label </text>
<text text-anchor="start" x="696.47" y="-394.2" font-family="Arial" font-size="14.00" fill="#666666">[text]</text>
<polygon fill="none" stroke="black" points="656.01,-351.2 656.01,-382 909.69,-382 909.69,-351.2 656.01,-351.2"/>
<text text-anchor="start" x="663.01" y="-363.4" font-family="Arial" font-size="14.00">artist_mbid </text>
<text text-anchor="start" x="735.36" y="-363.4" font-family="Arial" font-size="14.00" fill="#666666">[text]</text>
<polygon fill="none" stroke="black" points="656.01,-320.4 656.01,-351.2 909.69,-351.2 909.69,-320.4 656.01,-320.4"/>
<text text-anchor="start" x="663.01" y="-332.6" font-family="Arial" font-size="14.00">album_artist_mbid </text>
<text text-anchor="start" x="781.28" y="-332.6" font-family="Arial" font-size="14.00" fill="#666666">[text]</text>
<polygon fill="none" stroke="black" points="656.01,-289.6 656.01,-320.4 909.69,-320.4 909.69,-289.6 656.01,-289.6"/>
<text text-anchor="start" x="663.01" y="-301.8" font-family="Arial" font-size="14.00">track_mbid </text>
<text text-anchor="start" x="735.36" y="-301.8" font-family="Arial" font-size="14.00" fill="#666666">[text]</text>
<polygon fill="none" stroke="black" points="656.01,-258.8 656.01,-289.6 909.69,-289.6 909.69,-258.8 656.01,-258.8"/>
<text text-anchor="start" x="663.01" y="-271" font-family="Arial" font-size="14.00">release_track_mbid </text>
<text text-anchor="start" x="789.07" y="-271" font-family="Arial" font-size="14.00" fill="#666666">[text]</text>
<polygon fill="none" stroke="black" points="656.01,-228 656.01,-258.8 909.69,-258.8 909.69,-228 656.01,-228"/>
<text text-anchor="start" x="663.01" y="-240.2" font-family="Arial" font-size="14.00">release_mbid </text>
<text text-anchor="start" x="750.94" y="-240.2" font-family="Arial" font-size="14.00" fill="#666666">[text]</text>
<polygon fill="none" stroke="black" points="656.01,-197.2 656.01,-228 909.69,-228 909.69,-197.2 656.01,-197.2"/>
<text text-anchor="start" x="663.01" y="-209.4" font-family="Arial" font-size="14.00">release_group_mbid </text>
<text text-anchor="start" x="794.54" y="-209.4" font-family="Arial" font-size="14.00" fill="#666666">[text]</text>
<polygon fill="none" stroke="black" points="656.01,-166.4 656.01,-197.2 909.69,-197.2 909.69,-166.4 656.01,-166.4"/>
<text text-anchor="start" x="663.01" y="-178.6" font-family="Arial" font-size="14.00">artwork_id </text>
<text text-anchor="start" x="731.47" y="-178.6" font-family="Arial" font-size="14.00" fill="#666666">[bigint]</text>
<polygon fill="none" stroke="black" points="656.01,-135.6 656.01,-166.4 909.69,-166.4 909.69,-135.6 656.01,-135.6"/>
<text text-anchor="start" x="663.01" y="-147.8" font-family="Arial" font-size="14.00">size_bytes </text>
<text text-anchor="start" x="733.04" y="-147.8" font-family="Arial" font-size="14.00" fill="#666666">[bigint]</text>
<polygon fill="none" stroke="black" points="656.01,-104.8 656.01,-135.6 909.69,-135.6 909.69,-104.8 656.01,-104.8"/>
<text text-anchor="start" x="663.01" y="-117" font-family="Arial" font-size="14.00">quick_hash </text>
<text text-anchor="start" x="737.72" y="-117" font-family="Arial" font-size="14.00" fill="#666666">[bytea]</text>
<polygon fill="none" stroke="black" points="656.01,-74 656.01,-104.8 909.69,-104.8 909.69,-74 656.01,-74"/>
<text text-anchor="start" x="663.01" y="-86.2" font-family="Arial" font-size="14.00">mtime </text>
<text text-anchor="start" x="705.01" y="-86.2" font-family="Arial" font-size="14.00" fill="#666666">[double precision]</text>
<polygon fill="none" stroke="black" points="656.01,-43.2 656.01,-74 909.69,-74 909.69,-43.2 656.01,-43.2"/>
<text text-anchor="start" x="663.01" y="-55.4" font-family="Arial" font-size="14.00">fts_vector </text>
<text text-anchor="start" x="727.58" y="-55.4" font-family="Arial" font-size="14.00" fill="#666666">[tsvector]</text>
</g>
<!-- public.lastfm_scrobble_match&#45;&gt;public.track -->
<g id="edge2" class="edge">
<title>public.lastfm_scrobble_match:track_id&#45;&gt;public.track:id</title>
<path fill="none" stroke="black" d="M780.18,-1358.61C862.55,-1348.75 823.36,-1217.9 768.81,-1143.6 737.67,-1101.18 687.28,-1149.93 656.01,-1107.6 631.13,-1073.92 613.14,-1013.4 655.01,-1013.4"/>
<polygon fill="black" stroke="black" points="780.13,-1358.61 769.89,-1354.69 774.8,-1358.92 770.48,-1359.16 770.48,-1359.16 770.48,-1359.16 774.8,-1358.92 770.4,-1363.67 780.13,-1358.61"/>
<text text-anchor="start" x="776.81" y="-1369.2" font-family="Arial" font-size="10.00">FOREIGN KEY (track_id) REFERENCES track(id) ON DELETE CASCADE</text>
</g>
</g>
</svg>
