<?xml version="1.0" encoding="UTF-8" standalone="no"?>
<!DOCTYPE svg PUBLIC "-//W3C//DTD SVG 1.1//EN"
 "http://www.w3.org/Graphics/SVG/1.1/DTD/svg11.dtd">
<!-- Generated by graphviz version 12.1.2 (20240928.0832)
 -->
<!-- Title: public.playback_history Pages: 1 -->
<svg width="715pt" height="1495pt"
 viewBox="0.00 0.00 714.54 1495.20" xmlns="http://www.w3.org/2000/svg" xmlns:xlink="http://www.w3.org/1999/xlink">
<g id="graph0" class="graph" transform="scale(1 1) rotate(0) translate(4 1491.2)">
<title>public.playback_history</title>
<polygon fill="white" stroke="none" points="-4,4 -4,-1491.2 710.54,-1491.2 710.54,4 -4,4"/>
<!-- public.playback_history -->
<g id="node1" class="node">
<title>public.playback_history</title>
<polygon fill="#efefef" stroke="none" points="46.2,-1405.4 46.2,-1441 358.15,-1441 358.15,-1405.4 46.2,-1405.4"/>
<polygon fill="none" stroke="black" points="46.2,-1405.4 46.2,-1441 358.15,-1441 358.15,-1405.4 46.2,-1405.4"/>
<text text-anchor="start" x="53.2" y="-1418.8" font-family="Arial Bold" font-size="18.00">public.playback_history</text>
<text text-anchor="start" x="226.66" y="-1418.8" font-family="Arial" font-size="14.00">    </text>
<text text-anchor="start" x="257.78" y="-1418.8" font-family="Arial" font-size="14.00" fill="#666666">[BASE TABLE]</text>
<polygon fill="none" stroke="black" points="46.2,-1374.6 46.2,-1405.4 358.15,-1405.4 358.15,-1374.6 46.2,-1374.6"/>
<text text-anchor="start" x="53.2" y="-1386.8" font-family="Arial" font-size="14.00">id </text>
<text text-anchor="start" x="67.99" y="-1386.8" font-family="Arial" font-size="14.00" fill="#666666">[bigint]</text>
<polygon fill="none" stroke="black" points="46.2,-1343.8 46.2,-1374.6 358.15,-1374.6 358.15,-1343.8 46.2,-1343.8"/>
<text text-anchor="start" x="53.2" y="-1356" font-family="Arial" font-size="14.00">track_id </text>
<text text-anchor="start" x="106.11" y="-1356" font-family="Arial" font-size="14.00" fill="#666666">[bigint]</text>
<polygon fill="none" stroke="black" points="46.2,-1313 46.2,-1343.8 358.15,-1343.8 358.15,-1313 46.2,-1313"/>
<text text-anchor="start" x="53.2" y="-1325.2" font-family="Arial" font-size="14.00">timestamp </text>
<text text-anchor="start" x="121.66" y="-1325.2" font-family="Arial" font-size="14.00" fill="#666666">[timestamp with time zone]</text>
<polygon fill="none" stroke="black" points="46.2,-1282.2 46.2,-1313 358.15,-1313 358.15,-1282.2 46.2,-1282.2"/>
<text text-anchor="start" x="53.2" y="-1294.4" font-family="Arial" font-size="14.00">client_ip </text>
<text text-anchor="start" x="108.45" y="-1294.4" font-family="Arial" font-size="14.00" fill="#666666">[text]</text>
<polygon fill="none" stroke="black" points="46.2,-1251.4 46.2,-1282.2 358.15,-1282.2 358.15,-1251.4 46.2,-1251.4"/>
<text text-anchor="start" x="53.2" y="-1263.6" font-family="Arial" font-size="14.00">hostname </text>
<text text-anchor="start" x="118.57" y="-1263.6" font-family="Arial" font-size="14.00" fill="#666666">[text]</text>
<polygon fill="none" stroke="black" points="46.2,-1220.6 46.2,-1251.4 358.15,-1251.4 358.15,-1220.6 46.2,-1220.6"/>
<text text-anchor="start" x="53.2" y="-1232.8" font-family="Arial" font-size="14.00">client_id </text>
<text text-anchor="start" x="108.45" y="-1232.8" font-family="Arial" font-size="14.00" fill="#666666">[text]</text>
<polygon fill="none" stroke="black" points="46.2,-1189.8 46.2,-1220.6 358.15,-1220.6 358.15,-1189.8 46.2,-1189.8"/>
<text text-anchor="start" x="53.2" y="-1202" font-family="Arial" font-size="14.00">user_id </text>
<text text-anchor="start" x="103.01" y="-1202" font-family="Arial" font-size="14.00" fill="#666666">[bigint]</text>
<polygon fill="none" stroke="black" stroke-width="3" points="44.7,-1188.3 44.7,-1442.5 359.65,-1442.5 359.65,-1188.3 44.7,-1188.3"/>
</g>
<!-- public.track -->
<g id="node2" class="node">
<title>public.track</title>
<polygon fill="#efefef" stroke="none" points="75.33,-1028.8 75.33,-1064.4 329.02,-1064.4 329.02,-1028.8 75.33,-1028.8"/>
<polygon fill="none" stroke="black" points="75.33,-1028.8 75.33,-1064.4 329.02,-1064.4 329.02,-1028.8 75.33,-1028.8"/>
<text text-anchor="start" x="97.2" y="-1042.2" font-family="Arial Bold" font-size="18.00">public.track</text>
<text text-anchor="start" x="182.66" y="-1042.2" font-family="Arial" font-size="14.00">    </text>
<text text-anchor="start" x="213.78" y="-1042.2" font-family="Arial" font-size="14.00" fill="#666666">[BASE TABLE]</text>
<polygon fill="none" stroke="black" points="75.33,-998 75.33,-1028.8 329.02,-1028.8 329.02,-998 75.33,-998"/>
<text text-anchor="start" x="82.33" y="-1010.2" font-family="Arial" font-size="14.00">id </text>
<text text-anchor="start" x="97.12" y="-1010.2" font-family="Arial" font-size="14.00" fill="#666666">[bigint]</text>
<polygon fill="none" stroke="black" points="75.33,-967.2 75.33,-998 329.02,-998 329.02,-967.2 75.33,-967.2"/>
<text text-anchor="start" x="82.33" y="-979.4" font-family="Arial" font-size="14.00">path </text>
<text text-anchor="start" x="113.47" y="-979.4" font-family="Arial" font-size="14.00" fill="#666666">[text]</text>
<polygon fill="none" stroke="black" points="75.33,-936.4 75.33,-967.2 329.02,-967.2 329.02,-936.4 75.33,-936.4"/>
<text text-anchor="start" x="82.33" y="-948.6" font-family="Arial" font-size="14.00">updated_at </text>
<text text-anchor="start" x="156.29" y="-948.6" font-family="Arial" font-size="14.00" fill="#666666">[timestamp with time zone]</text>
<polygon fill="none" stroke="black" points="75.33,-905.6 75.33,-936.4 329.02,-936.4 329.02,-905.6 75.33,-905.6"/>
<text text-anchor="start" x="82.33" y="-917.8" font-family="Arial" font-size="14.00">title </text>
<text text-anchor="start" x="108.01" y="-917.8" font-family="Arial" font-size="14.00" fill="#666666">[text]</text>
<polygon fill="none" stroke="black" points="75.33,-874.8 75.33,-905.6 329.02,-905.6 329.02,-874.8 75.33,-874.8"/>
<text text-anchor="start" x="82.33" y="-887" font-family="Arial" font-size="14.00">artist </text>
<text text-anchor="start" x="116.56" y="-887" font-family="Arial" font-size="14.00" fill="#666666">[text]</text>
<polygon fill="none" stroke="black" points="75.33,-844 75.33,-874.8 329.02,-874.8 329.02,-844 75.33,-844"/>
<text text-anchor="start" x="82.33" y="-856.2" font-family="Arial" font-size="14.00">album </text>
<text text-anchor="start" x="124.35" y="-856.2" font-family="Arial" font-size="14.00" fill="#666666">[text]</text>
<polygon fill="none" stroke="black" points="75.33,-813.2 75.33,-844 329.02,-844 329.02,-813.2 75.33,-813.2"/>
<text text-anchor="start" x="82.33" y="-825.4" font-family="Arial" font-size="14.00">album_artist </text>
<text text-anchor="start" x="162.48" y="-825.4" font-family="Arial" font-size="14.00" fill="#666666">[text]</text>
<polygon fill="none" stroke="black" points="75.33,-782.4 75.33,-813.2 329.02,-813.2 329.02,-782.4 75.33,-782.4"/>
<text text-anchor="start" x="82.33" y="-794.6" font-family="Arial" font-size="14.00">track_no </text>
<text text-anchor="start" x="139.92" y="-794.6" font-family="Arial" font-size="14.00" fill="#666666">[integer]</text>
<polygon fill="none" stroke="black" points="75.33,-751.6 75.33,-782.4 329.02,-782.4 329.02,-751.6 75.33,-751.6"/>
<text text-anchor="start" x="82.33" y="-763.8" font-family="Arial" font-size="14.00">disc_no </text>
<text text-anchor="start" x="134.48" y="-763.8" font-family="Arial" font-size="14.00" fill="#666666">[integer]</text>
<polygon fill="none" stroke="black" points="75.33,-720.8 75.33,-751.6 329.02,-751.6 329.02,-720.8 75.33,-720.8"/>
<text text-anchor="start" x="82.33" y="-733" font-family="Arial" font-size="14.00">release_date </text>
<text text-anchor="start" x="167.18" y="-733" font-family="Arial" font-size="14.00" fill="#666666">[date]</text>
<polygon fill="none" stroke="black" points="75.33,-690 75.33,-720.8 329.02,-720.8 329.02,-690 75.33,-690"/>
<text text-anchor="start" x="82.33" y="-702.2" font-family="Arial" font-size="14.00">release_type </text>
<text text-anchor="start" x="166.39" y="-702.2" font-family="Arial" font-size="14.00" fill="#666666">[text]</text>
<polygon fill="none" stroke="black" points="75.33,-659.2 75.33,-690 329.02,-690 329.02,-659.2 75.33,-659.2"/>
<text text-anchor="start" x="82.33" y="-671.4" font-family="Arial" font-size="14.00">release_type_raw </text>
<text text-anchor="start" x="196.73" y="-671.4" font-family="Arial" font-size="14.00" fill="#666666">[text]</text>
<polygon fill="none" stroke="black" points="75.33,-628.4 75.33,-659.2 329.02,-659.2 329.02,-628.4 75.33,-628.4"/>
<text text-anchor="start" x="82.33" y="-640.6" font-family="Arial" font-size="14.00">release_date_raw </text>
<text text-anchor="start" x="197.52" y="-640.6" font-family="Arial" font-size="14.00" fill="#666666">[text]</text>
<polygon fill="none" stroke="black" points="75.33,-597.6 75.33,-628.4 329.02,-628.4 329.02,-597.6 75.33,-597.6"/>
<text text-anchor="start" x="82.33" y="-609.8" font-family="Arial" font-size="14.00">release_date_tag </text>
<text text-anchor="start" x="194.42" y="-609.8" font-family="Arial" font-size="14.00" fill="#666666">[text]</text>
<polygon fill="none" stroke="black" points="75.33,-566.8 75.33,-597.6 329.02,-597.6 329.02,-566.8 75.33,-566.8"/>
<text text-anchor="start" x="82.33" y="-579" font-family="Arial" font-size="14.00">duration_seconds </text>
<text text-anchor="start" x="196.75" y="-579" font-family="Arial" font-size="14.00" fill="#666666">[double precision]</text>
<polygon fill="none" stroke="black" points="75.33,-536 75.33,-566.8 329.02,-566.8 329.02,-536 75.33,-536"/>
<text text-anchor="start" x="82.33" y="-548.2" font-family="Arial" font-size="14.00">codec </text>
<text text-anchor="start" x="123.58" y="-548.2" font-family="Arial" font-size="14.00" fill="#666666">[text]</text>
<polygon fill="none" stroke="black" points="75.33,-505.2 75.33,-536 329.02,-536 329.02,-505.2 75.33,-505.2"/>
<text text-anchor="start" x="82.33" y="-517.4" font-family="Arial" font-size="14.00">sample_rate_hz </text>
<text text-anchor="start" x="185.84" y="-517.4" font-family="Arial" font-size="14.00" fill="#666666">[integer]</text>
<polygon fill="none" stroke="black" points="75.33,-474.4 75.33,-505.2 329.02,-505.2 329.02,-474.4 75.33,-474.4"/>
<text text-anchor="start" x="82.33" y="-486.6" font-family="Arial" font-size="14.00">bit_depth </text>
<text text-anchor="start" x="143.83" y="-486.6" font-family="Arial" font-size="14.00" fill="#666666">[integer]</text>
<polygon fill="none" stroke="black" points="75.33,-443.6 75.33,-474.4 329.02,-474.4 329.02,-443.6 75.33,-443.6"/>
<text text-anchor="start" x="82.33" y="-455.8" font-family="Arial" font-size="14.00">bitrate </text>
<text text-anchor="start" x="125.13" y="-455.8" font-family="Arial" font-size="14.00" fill="#666666">[integer]</text>
<polygon fill="none" stroke="black" points="75.33,-412.8 75.33,-443.6 329.02,-443.6 329.02,-412.8 75.33,-412.8"/>
<text text-anchor="start" x="82.33" y="-425" font-family="Arial" font-size="14.00">channels </text>
<text text-anchor="start" x="142.26" y="-425" font-family="Arial" font-size="14.00" fill="#666666">[integer]</text>
<polygon fill="none" stroke="black" points="75.33,-382 75.33,-412.8 329.02,-412.8 329.02,-382 75.33,-382"/>
<text text-anchor="start" x="82.33" y="-394.2" font-family="Arial" font-size="14.00">label </text>
<text text-anchor="start" x="115.8" y="-394.2" font-family="Arial" font-size="14.00" fill="#666666">[text]</text>
<polygon fill="none" stroke="black" points="75.33,-351.2 75.33,-382 329.02,-382 329.02,-351.2 75.33,-351.2"/>
<text text-anchor="start" x="82.33" y="-363.4" font-family="Arial" font-size="14.00">artist_mbid </text>
<text text-anchor="start" x="154.69" y="-363.4" font-family="Arial" font-size="14.00" fill="#666666">[text]</text>
<polygon fill="none" stroke="black" points="75.33,-320.4 75.33,-351.2 329.02,-351.2 329.02,-320.4 75.33,-320.4"/>
<text text-anchor="start" x="82.33" y="-332.6" font-family="Arial" font-size="14.00">album_artist_mbid </text>
<text text-anchor="start" x="200.61" y="-332.6" font-family="Arial" font-size="14.00" fill="#666666">[text]</text>
<polygon fill="none" stroke="black" points="75.33,-289.6 75.33,-320.4 329.02,-320.4 329.02,-289.6 75.33,-289.6"/>
<text text-anchor="start" x="82.33" y="-301.8" font-family="Arial" font-size="14.00">track_mbid </text>
<text text-anchor="start" x="154.69" y="-301.8" font-family="Arial" font-size="14.00" fill="#666666">[text]</text>
<polygon fill="none" stroke="black" points="75.33,-258.8 75.33,-289.6 329.02,-289.6 329.02,-258.8 75.33,-258.8"/>
<text text-anchor="start" x="82.33" y="-271" font-family="Arial" font-size="14.00">release_track_mbid </text>
<text text-anchor="start" x="208.4" y="-271" font-family="Arial" font-size="14.00" fill="#666666">[text]</text>
<polygon fill="none" stroke="black" points="75.33,-228 75.33,-258.8 329.02,-258.8 329.02,-228 75.33,-228"/>
<text text-anchor="start" x="82.33" y="-240.2" font-family="Arial" font-size="14.00">release_mbid </text>
<text text-anchor="start" x="170.27" y="-240.2" font-family="Arial" font-size="14.00" fill="#666666">[text]</text>
<polygon fill="none" stroke="black" points="75.33,-197.2 75.33,-228 329.02,-228 329.02,-197.2 75.33,-197.2"/>
<text text-anchor="start" x="82.33" y="-209.4" font-family="Arial" font-size="14.00">release_group_mbid </text>
<text text-anchor="start" x="213.86" y="-209.4" font-family="Arial" font-size="14.00" fill="#666666">[text]</text>
<polygon fill="none" stroke="black" points="75.33,-166.4 75.33,-197.2 329.02,-197.2 329.02,-166.4 75.33,-166.4"/>
<text text-anchor="start" x="82.33" y="-178.6" font-family="Arial" font-size="14.00">artwork_id </text>
<text text-anchor="start" x="150.8" y="-178.6" font-family="Arial" font-size="14.00" fill="#666666">[bigint]</text>
<polygon fill="none" stroke="black" points="75.33,-135.6 75.33,-166.4 329.02,-166.4 329.02,-135.6 75.33,-135.6"/>
<text text-anchor="start" x="82.33" y="-147.8" font-family="Arial" font-size="14.00">size_bytes </text>
<text text-anchor="start" x="152.37" y="-147.8" font-family="Arial" font-size="14.00" fill="#666666">[bigint]</text>
<polygon fill="none" stroke="black" points="75.33,-104.8 75.33,-135.6 329.02,-135.6 329.02,-104.8 75.33,-104.8"/>
<text text-anchor="start" x="82.33" y="-117" font-family="Arial" font-size="14.00">quick_hash </text>
<text text-anchor="start" x="157.05" y="-117" font-family="Arial" font-size="14.00" fill="#666666">[bytea]</text>
<polygon fill="none" stroke="black" points="75.33,-74 75.33,-104.8 329.02,-104.8 329.02,-74 75.33,-74"/>
<text text-anchor="start" x="82.33" y="-86.2" font-family="Arial" font-size="14.00">mtime </text>
<text text-anchor="start" x="124.33" y="-86.2" font-family="Arial" font-size="14.00" fill="#666666">[double precision]</text>
<polygon fill="none" stroke="black" points="75.33,-43.2 75.33,-74 329.02,-74 329.02,-43.2 75.33,-43.2"/>
<text text-anchor="start" x="82.33" y="-55.4" font-family="Arial" font-size="14.00">fts_vector </text>
<text text-anchor="start" x="146.91" y="-55.4" font-family="Arial" font-size="14.00" fill="#666666">[tsvector]</text>
</g>
<!-- public.playback_history&#45;&gt;public.track -->
<g id="edge1" class="edge">
<title>public.playback_history:track_id&#45;&gt;public.track:id</title>
<path fill="none" stroke="black" d="M369.3,-1356.99C433.43,-1327.54 403.52,-1013.4 330.02,-1013.4"/>
<polygon fill="black" stroke="black" points="369.25,-1357 358.52,-1354.73 364.04,-1358.14 359.8,-1359.06 359.8,-1359.06 359.8,-1359.06 364.04,-1358.14 360.43,-1363.53 369.25,-1357"/>
<text text-anchor="start" x="366.15" y="-1369.2" font-family="Arial" font-size="10.00">FOREIGN KEY (track_id) REFERENCES track(id) ON DELETE CASCADE</text>
</g>
</g>
</svg>
