<?xml version="1.0" encoding="UTF-8" standalone="no"?>
<!DOCTYPE svg PUBLIC "-//W3C//DTD SVG 1.1//EN"
 "http://www.w3.org/Graphics/SVG/1.1/DTD/svg11.dtd">
<!-- Generated by graphviz version 12.1.2 (20240928.0832)
 -->
<!-- Title: public.favorite_release Pages: 1 -->
<svg width="1049pt" height="848pt"
 viewBox="0.00 0.00 1049.28 848.40" xmlns="http://www.w3.org/2000/svg" xmlns:xlink="http://www.w3.org/1999/xlink">
<g id="graph0" class="graph" transform="scale(1 1) rotate(0) translate(4 844.4)">
<title>public.favorite_release</title>
<polygon fill="white" stroke="none" points="-4,4 -4,-844.4 1045.28,-844.4 1045.28,4 -4,4"/>
<!-- public.favorite_release -->
<g id="node1" class="node">
<title>public.favorite_release</title>
<polygon fill="#efefef" stroke="none" points="351.06,-758.6 351.06,-794.2 653.97,-794.2 653.97,-758.6 351.06,-758.6"/>
<polygon fill="none" stroke="black" points="351.06,-758.6 351.06,-794.2 653.97,-794.2 653.97,-758.6 351.06,-758.6"/>
<text text-anchor="start" x="358.06" y="-772" font-family="Arial Bold" font-size="18.00">public.favorite_release</text>
<text text-anchor="start" x="522.48" y="-772" font-family="Arial" font-size="14.00">    </text>
<text text-anchor="start" x="553.59" y="-772" font-family="Arial" font-size="14.00" fill="#666666">[BASE TABLE]</text>
<polygon fill="none" stroke="black" points="351.06,-727.8 351.06,-758.6 653.97,-758.6 653.97,-727.8 351.06,-727.8"/>
<text text-anchor="start" x="358.06" y="-740" font-family="Arial" font-size="14.00">user_id </text>
<text text-anchor="start" x="407.87" y="-740" font-family="Arial" font-size="14.00" fill="#666666">[bigint]</text>
<polygon fill="none" stroke="black" points="351.06,-697 351.06,-727.8 653.97,-727.8 653.97,-697 351.06,-697"/>
<text text-anchor="start" x="358.06" y="-709.2" font-family="Arial" font-size="14.00">album_mbid </text>
<text text-anchor="start" x="438.21" y="-709.2" font-family="Arial" font-size="14.00" fill="#666666">[text]</text>
<polygon fill="none" stroke="black" points="351.06,-666.2 351.06,-697 653.97,-697 653.97,-666.2 351.06,-666.2"/>
<text text-anchor="start" x="358.06" y="-678.4" font-family="Arial" font-size="14.00">created_at </text>
<text text-anchor="start" x="428.11" y="-678.4" font-family="Arial" font-size="14.00" fill="#666666">[timestamp with time zone]</text>
<polygon fill="none" stroke="black" stroke-width="3" points="349.56,-664.7 349.56,-795.7 655.47,-795.7 655.47,-664.7 349.56,-664.7"/>
</g>
<!-- public.user -->
<g id="node2" class="node">
<title>public.user</title>
<polygon fill="#efefef" stroke="none" points="152.11,-505.2 152.11,-540.8 464.92,-540.8 464.92,-505.2 152.11,-505.2"/>
<polygon fill="none" stroke="black" points="152.11,-505.2 152.11,-540.8 464.92,-540.8 464.92,-505.2 152.11,-505.2"/>
<text text-anchor="start" x="206.53" y="-518.6" font-family="Arial Bold" font-size="18.00">public.user</text>
<text text-anchor="start" x="286.01" y="-518.6" font-family="Arial" font-size="14.00">    </text>
<text text-anchor="start" x="317.12" y="-518.6" font-family="Arial" font-size="14.00" fill="#666666">[BASE TABLE]</text>
<polygon fill="none" stroke="black" points="152.11,-474.4 152.11,-505.2 464.92,-505.2 464.92,-474.4 152.11,-474.4"/>
<text text-anchor="start" x="159.11" y="-486.6" font-family="Arial" font-size="14.00">id </text>
<text text-anchor="start" x="173.9" y="-486.6" font-family="Arial" font-size="14.00" fill="#666666">[bigint]</text>
<polygon fill="none" stroke="black" points="152.11,-443.6 152.11,-474.4 464.92,-474.4 464.92,-443.6 152.11,-443.6"/>
<text text-anchor="start" x="159.11" y="-455.8" font-family="Arial" font-size="14.00">username </text>
<text text-anchor="start" x="225.25" y="-455.8" font-family="Arial" font-size="14.00" fill="#666666">[citext]</text>
<polygon fill="none" stroke="black" points="152.11,-412.8 152.11,-443.6 464.92,-443.6 464.92,-412.8 152.11,-412.8"/>
<text text-anchor="start" x="159.11" y="-425" font-family="Arial" font-size="14.00">email </text>
<text text-anchor="start" x="196.45" y="-425" font-family="Arial" font-size="14.00" fill="#666666">[citext]</text>
<polygon fill="none" stroke="black" points="152.11,-382 152.11,-412.8 464.92,-412.8 464.92,-382 152.11,-382"/>
<text text-anchor="start" x="159.11" y="-394.2" font-family="Arial" font-size="14.00">password_hash </text>
<text text-anchor="start" x="261.06" y="-394.2" font-family="Arial" font-size="14.00" fill="#666666">[text]</text>
<polygon fill="none" stroke="black" points="152.11,-351.2 152.11,-382 464.92,-382 464.92,-351.2 152.11,-351.2"/>
<text text-anchor="start" x="159.11" y="-363.4" font-family="Arial" font-size="14.00">display_name </text>
<text text-anchor="start" x="249.39" y="-363.4" font-family="Arial" font-size="14.00" fill="#666666">[text]</text>
<polygon fill="none" stroke="black" points="152.11,-320.4 152.11,-351.2 464.92,-351.2 464.92,-320.4 152.11,-320.4"/>
<text text-anchor="start" x="159.11" y="-332.6" font-family="Arial" font-size="14.00">created_at </text>
<text text-anchor="start" x="229.16" y="-332.6" font-family="Arial" font-size="14.00" fill="#666666">[timestamp with time zone]</text>
<polygon fill="none" stroke="black" points="152.11,-289.6 152.11,-320.4 464.92,-320.4 464.92,-289.6 152.11,-289.6"/>
<text text-anchor="start" x="159.11" y="-301.8" font-family="Arial" font-size="14.00">last_login_at </text>
<text text-anchor="start" x="241.61" y="-301.8" font-family="Arial" font-size="14.00" fill="#666666">[timestamp with time zone]</text>
<polygon fill="none" stroke="black" points="152.11,-258.8 152.11,-289.6 464.92,-289.6 464.92,-258.8 152.11,-258.8"/>
<text text-anchor="start" x="159.11" y="-271" font-family="Arial" font-size="14.00">is_active </text>
<text text-anchor="start" x="217.47" y="-271" font-family="Arial" font-size="14.00" fill="#666666">[boolean]</text>
<polygon fill="none" stroke="black" points="152.11,-228 152.11,-258.8 464.92,-258.8 464.92,-228 152.11,-228"/>
<text text-anchor="start" x="159.11" y="-240.2" font-family="Arial" font-size="14.00">is_admin </text>
<text text-anchor="start" x="219.03" y="-240.2" font-family="Arial" font-size="14.00" fill="#666666">[boolean]</text>
<polygon fill="none" stroke="black" points="152.11,-197.2 152.11,-228 464.92,-228 464.92,-197.2 152.11,-197.2"/>
<text text-anchor="start" x="159.11" y="-209.4" font-family="Arial" font-size="14.00">accent_color </text>
<text text-anchor="start" x="242.38" y="-209.4" font-family="Arial" font-size="14.00" fill="#666666">[text]</text>
<polygon fill="none" stroke="black" points="152.11,-166.4 152.11,-197.2 464.92,-197.2 464.92,-166.4 152.11,-166.4"/>
<text text-anchor="start" x="159.11" y="-178.6" font-family="Arial" font-size="14.00">theme_mode </text>
<text text-anchor="start" x="244.72" y="-178.6" font-family="Arial" font-size="14.00" fill="#666666">[text]</text>
<polygon fill="none" stroke="black" points="152.11,-135.6 152.11,-166.4 464.92,-166.4 464.92,-135.6 152.11,-135.6"/>
<text text-anchor="start" x="159.11" y="-147.8" font-family="Arial" font-size="14.00">lastfm_username </text>
<text text-anchor="start" x="270.38" y="-147.8" font-family="Arial" font-size="14.00" fill="#666666">[text]</text>
<polygon fill="none" stroke="black" points="152.11,-104.8 152.11,-135.6 464.92,-135.6 464.92,-104.8 152.11,-104.8"/>
<text text-anchor="start" x="159.11" y="-117" font-family="Arial" font-size="14.00">lastfm_session_key </text>
<text text-anchor="start" x="285.16" y="-117" font-family="Arial" font-size="14.00" fill="#666666">[text]</text>
<polygon fill="none" stroke="black" points="152.11,-74 152.11,-104.8 464.92,-104.8 464.92,-74 152.11,-74"/>
<text text-anchor="start" x="159.11" y="-86.2" font-family="Arial" font-size="14.00">lastfm_enabled </text>
<text text-anchor="start" x="257.95" y="-86.2" font-family="Arial" font-size="14.00" fill="#666666">[boolean]</text>
<polygon fill="none" stroke="black" points="152.11,-43.2 152.11,-74 464.92,-74 464.92,-43.2 152.11,-43.2"/>
<text text-anchor="start" x="159.11" y="-55.4" font-family="Arial" font-size="14.00">lastfm_connected_at </text>
<text text-anchor="start" x="292.19" y="-55.4" font-family="Arial" font-size="14.00" fill="#666666">[timestamp with time zone]</text>
</g>
<!-- public.favorite_release&#45;&gt;public.user -->
<g id="edge1" class="edge">
<title>public.favorite_release:user_id&#45;&gt;public.user:id</title>
<path fill="none" stroke="black" d="M339.9,-742.13C298.52,-732.54 320.74,-661.03 351.06,-620 382.6,-577.32 433.32,-626.65 464.92,-584 489.84,-550.36 507.78,-489.8 465.92,-489.8"/>
<polygon fill="black" stroke="black" points="339.78,-742.11 349.25,-747.64 345.09,-742.67 349.39,-743.13 349.39,-743.13 349.39,-743.13 345.09,-742.67 350.2,-738.69 339.78,-742.11"/>
<text text-anchor="start" x="7" y="-753.2" font-family="Arial" font-size="10.00">FOREIGN KEY (user_id) REFERENCES &quot;user&quot;(id) ON DELETE CASCADE</text>
</g>
<!-- public.album -->
<g id="node3" class="node">
<title>public.album</title>
<polygon fill="#efefef" stroke="none" points="569.67,-428.2 569.67,-463.8 823.35,-463.8 823.35,-428.2 569.67,-428.2"/>
<polygon fill="none" stroke="black" points="569.67,-428.2 569.67,-463.8 823.35,-463.8 823.35,-428.2 569.67,-428.2"/>
<text text-anchor="start" x="587.03" y="-441.6" font-family="Arial Bold" font-size="18.00">public.album</text>
<text text-anchor="start" x="681.51" y="-441.6" font-family="Arial" font-size="14.00">    </text>
<text text-anchor="start" x="712.63" y="-441.6" font-family="Arial" font-size="14.00" fill="#666666">[BASE TABLE]</text>
<polygon fill="none" stroke="black" points="569.67,-397.4 569.67,-428.2 823.35,-428.2 823.35,-397.4 569.67,-397.4"/>
<text text-anchor="start" x="576.67" y="-409.6" font-family="Arial" font-size="14.00">mbid </text>
<text text-anchor="start" x="610.91" y="-409.6" font-family="Arial" font-size="14.00" fill="#666666">[text]</text>
<polygon fill="none" stroke="black" points="569.67,-366.6 569.67,-397.4 823.35,-397.4 823.35,-366.6 569.67,-366.6"/>
<text text-anchor="start" x="576.67" y="-378.8" font-family="Arial" font-size="14.00">release_group_mbid </text>
<text text-anchor="start" x="708.2" y="-378.8" font-family="Arial" font-size="14.00" fill="#666666">[text]</text>
<polygon fill="none" stroke="black" points="569.67,-335.8 569.67,-366.6 823.35,-366.6 823.35,-335.8 569.67,-335.8"/>
<text text-anchor="start" x="576.67" y="-348" font-family="Arial" font-size="14.00">title </text>
<text text-anchor="start" x="602.35" y="-348" font-family="Arial" font-size="14.00" fill="#666666">[text]</text>
<polygon fill="none" stroke="black" points="569.67,-305 569.67,-335.8 823.35,-335.8 823.35,-305 569.67,-305"/>
<text text-anchor="start" x="576.67" y="-317.2" font-family="Arial" font-size="14.00">release_date </text>
<text text-anchor="start" x="661.51" y="-317.2" font-family="Arial" font-size="14.00" fill="#666666">[date]</text>
<polygon fill="none" stroke="black" points="569.67,-274.2 569.67,-305 823.35,-305 823.35,-274.2 569.67,-274.2"/>
<text text-anchor="start" x="576.67" y="-286.4" font-family="Arial" font-size="14.00">release_type </text>
<text text-anchor="start" x="660.73" y="-286.4" font-family="Arial" font-size="14.00" fill="#666666">[text]</text>
<polygon fill="none" stroke="black" points="569.67,-243.4 569.67,-274.2 823.35,-274.2 823.35,-243.4 569.67,-243.4"/>
<text text-anchor="start" x="576.67" y="-255.6" font-family="Arial" font-size="14.00">release_type_raw </text>
<text text-anchor="start" x="691.07" y="-255.6" font-family="Arial" font-size="14.00" fill="#666666">[text]</text>
<polygon fill="none" stroke="black" points="569.67,-212.6 569.67,-243.4 823.35,-243.4 823.35,-212.6 569.67,-212.6"/>
<text text-anchor="start" x="576.67" y="-224.8" font-family="Arial" font-size="14.00">artwork_id </text>
<text text-anchor="start" x="645.14" y="-224.8" font-family="Arial" font-size="14.00" fill="#666666">[bigint]</text>
<polygon fill="none" stroke="black" points="569.67,-181.8 569.67,-212.6 823.35,-212.6 823.35,-181.8 569.67,-181.8"/>
<text text-anchor="start" x="576.67" y="-194" font-family="Arial" font-size="14.00">description </text>
<text text-anchor="start" x="648.26" y="-194" font-family="Arial" font-size="14.00" fill="#666666">[text]</text>
<polygon fill="none" stroke="black" points="569.67,-151 569.67,-181.8 823.35,-181.8 823.35,-151 569.67,-151"/>
<text text-anchor="start" x="576.67" y="-163.2" font-family="Arial" font-size="14.00">peak_chart_position </text>
<text text-anchor="start" x="705.87" y="-163.2" font-family="Arial" font-size="14.00" fill="#666666">[integer]</text>
<polygon fill="none" stroke="black" points="569.67,-120.2 569.67,-151 823.35,-151 823.35,-120.2 569.67,-120.2"/>
<text text-anchor="start" x="576.67" y="-132.4" font-family="Arial" font-size="14.00">updated_at </text>
<text text-anchor="start" x="650.63" y="-132.4" font-family="Arial" font-size="14.00" fill="#666666">[timestamp with time zone]</text>
</g>
<!-- public.favorite_release&#45;&gt;public.album -->
<g id="edge2" class="edge">
<title>public.favorite_release:album_mbid&#45;&gt;public.album:mbid</title>
<path fill="none" stroke="black" d="M665.08,-710.93C690.54,-702.09 665.83,-655.11 653.97,-620 633.91,-560.64 589.72,-566.36 569.67,-507 556.27,-467.33 526.8,-412.8 568.67,-412.8"/>
<polygon fill="black" stroke="black" points="665.19,-710.92 654.65,-707.9 659.91,-711.68 655.63,-712.3 655.63,-712.3 655.63,-712.3 659.91,-711.68 655.94,-716.81 665.19,-710.92"/>
<text text-anchor="start" x="661.97" y="-722.4" font-family="Arial" font-size="10.00">FOREIGN KEY (album_mbid) REFERENCES album(mbid) ON DELETE CASCADE</text>
</g>
</g>
</svg>
