<?xml version="1.0" encoding="UTF-8" standalone="no"?>
<!DOCTYPE svg PUBLIC "-//W3C//DTD SVG 1.1//EN"
 "http://www.w3.org/Graphics/SVG/1.1/DTD/svg11.dtd">
<!-- Generated by graphviz version 12.1.2 (20240928.0832)
 -->
<!-- Title: public.auth_refresh_session Pages: 1 -->
<svg width="744pt" height="1064pt"
 viewBox="0.00 0.00 744.20 1064.00" xmlns="http://www.w3.org/2000/svg" xmlns:xlink="http://www.w3.org/1999/xlink">
<g id="graph0" class="graph" transform="scale(1 1) rotate(0) translate(4 1060)">
<title>public.auth_refresh_session</title>
<polygon fill="white" stroke="none" points="-4,4 -4,-1060 740.2,-1060 740.2,4 -4,4"/>
<!-- public.auth_refresh_session -->
<g id="node1" class="node">
<title>public.auth_refresh_session</title>
<polygon fill="#efefef" stroke="none" points="46.2,-974.2 46.2,-1009.8 385.14,-1009.8 385.14,-974.2 46.2,-974.2"/>
<polygon fill="none" stroke="black" points="46.2,-974.2 46.2,-1009.8 385.14,-1009.8 385.14,-974.2 46.2,-974.2"/>
<text text-anchor="start" x="53.2" y="-987.6" font-family="Arial Bold" font-size="18.00">public.auth_refresh_session</text>
<text text-anchor="start" x="253.65" y="-987.6" font-family="Arial" font-size="14.00">    </text>
<text text-anchor="start" x="284.77" y="-987.6" font-family="Arial" font-size="14.00" fill="#666666">[BASE TABLE]</text>
<polygon fill="none" stroke="black" points="46.2,-943.4 46.2,-974.2 385.14,-974.2 385.14,-943.4 46.2,-943.4"/>
<text text-anchor="start" x="53.2" y="-955.6" font-family="Arial" font-size="14.00">id </text>
<text text-anchor="start" x="67.99" y="-955.6" font-family="Arial" font-size="14.00" fill="#666666">[bigint]</text>
<polygon fill="none" stroke="black" points="46.2,-912.6 46.2,-943.4 385.14,-943.4 385.14,-912.6 46.2,-912.6"/>
<text text-anchor="start" x="53.2" y="-924.8" font-family="Arial" font-size="14.00">user_id </text>
<text text-anchor="start" x="103.01" y="-924.8" font-family="Arial" font-size="14.00" fill="#666666">[bigint]</text>
<polygon fill="none" stroke="black" points="46.2,-881.8 46.2,-912.6 385.14,-912.6 385.14,-881.8 46.2,-881.8"/>
<text text-anchor="start" x="53.2" y="-894" font-family="Arial" font-size="14.00">token_hash </text>
<text text-anchor="start" x="129.48" y="-894" font-family="Arial" font-size="14.00" fill="#666666">[text]</text>
<polygon fill="none" stroke="black" points="46.2,-851 46.2,-881.8 385.14,-881.8 385.14,-851 46.2,-851"/>
<text text-anchor="start" x="53.2" y="-863.2" font-family="Arial" font-size="14.00">created_at </text>
<text text-anchor="start" x="123.25" y="-863.2" font-family="Arial" font-size="14.00" fill="#666666">[timestamp with time zone]</text>
<polygon fill="none" stroke="black" points="46.2,-820.2 46.2,-851 385.14,-851 385.14,-820.2 46.2,-820.2"/>
<text text-anchor="start" x="53.2" y="-832.4" font-family="Arial" font-size="14.00">expires_at </text>
<text text-anchor="start" x="121.68" y="-832.4" font-family="Arial" font-size="14.00" fill="#666666">[timestamp with time zone]</text>
<polygon fill="none" stroke="black" points="46.2,-789.4 46.2,-820.2 385.14,-820.2 385.14,-789.4 46.2,-789.4"/>
<text text-anchor="start" x="53.2" y="-801.6" font-family="Arial" font-size="14.00">revoked_at </text>
<text text-anchor="start" x="126.36" y="-801.6" font-family="Arial" font-size="14.00" fill="#666666">[timestamp with time zone]</text>
<polygon fill="none" stroke="black" points="46.2,-758.6 46.2,-789.4 385.14,-789.4 385.14,-758.6 46.2,-758.6"/>
<text text-anchor="start" x="53.2" y="-770.8" font-family="Arial" font-size="14.00">last_used_at </text>
<text text-anchor="start" x="136.48" y="-770.8" font-family="Arial" font-size="14.00" fill="#666666">[timestamp with time zone]</text>
<polygon fill="none" stroke="black" points="46.2,-727.8 46.2,-758.6 385.14,-758.6 385.14,-727.8 46.2,-727.8"/>
<text text-anchor="start" x="53.2" y="-740" font-family="Arial" font-size="14.00">user_agent </text>
<text text-anchor="start" x="127.14" y="-740" font-family="Arial" font-size="14.00" fill="#666666">[text]</text>
<polygon fill="none" stroke="black" points="46.2,-697 46.2,-727.8 385.14,-727.8 385.14,-697 46.2,-697"/>
<text text-anchor="start" x="53.2" y="-709.2" font-family="Arial" font-size="14.00">ip </text>
<text text-anchor="start" x="67.99" y="-709.2" font-family="Arial" font-size="14.00" fill="#666666">[text]</text>
<polygon fill="none" stroke="black" points="46.2,-666.2 46.2,-697 385.14,-697 385.14,-666.2 46.2,-666.2"/>
<text text-anchor="start" x="53.2" y="-678.4" font-family="Arial" font-size="14.00">family_id </text>
<text text-anchor="start" x="112.33" y="-678.4" font-family="Arial" font-size="14.00" fill="#666666">[uuid]</text>
<polygon fill="none" stroke="black" stroke-width="3" points="44.7,-664.7 44.7,-1011.3 386.64,-1011.3 386.64,-664.7 44.7,-664.7"/>
</g>
<!-- public.user -->
<g id="node2" class="node">
<title>public.user</title>
<polygon fill="#efefef" stroke="none" points="59.27,-505.2 59.27,-540.8 372.07,-540.8 372.07,-505.2 59.27,-505.2"/>
<polygon fill="none" stroke="black" points="59.27,-505.2 59.27,-540.8 372.07,-540.8 372.07,-505.2 59.27,-505.2"/>
<text text-anchor="start" x="113.69" y="-518.6" font-family="Arial Bold" font-size="18.00">public.user</text>
<text text-anchor="start" x="193.17" y="-518.6" font-family="Arial" font-size="14.00">    </text>
<text text-anchor="start" x="224.28" y="-518.6" font-family="Arial" font-size="14.00" fill="#666666">[BASE TABLE]</text>
<polygon fill="none" stroke="black" points="59.27,-474.4 59.27,-505.2 372.07,-505.2 372.07,-474.4 59.27,-474.4"/>
<text text-anchor="start" x="66.27" y="-486.6" font-family="Arial" font-size="14.00">id </text>
<text text-anchor="start" x="81.05" y="-486.6" font-family="Arial" font-size="14.00" fill="#666666">[bigint]</text>
<polygon fill="none" stroke="black" points="59.27,-443.6 59.27,-474.4 372.07,-474.4 372.07,-443.6 59.27,-443.6"/>
<text text-anchor="start" x="66.27" y="-455.8" font-family="Arial" font-size="14.00">username </text>
<text text-anchor="start" x="132.41" y="-455.8" font-family="Arial" font-size="14.00" fill="#666666">[citext]</text>
<polygon fill="none" stroke="black" points="59.27,-412.8 59.27,-443.6 372.07,-443.6 372.07,-412.8 59.27,-412.8"/>
<text text-anchor="start" x="66.27" y="-425" font-family="Arial" font-size="14.00">email </text>
<text text-anchor="start" x="103.61" y="-425" font-family="Arial" font-size="14.00" fill="#666666">[citext]</text>
<polygon fill="none" stroke="black" points="59.27,-382 59.27,-412.8 372.07,-412.8 372.07,-382 59.27,-382"/>
<text text-anchor="start" x="66.27" y="-394.2" font-family="Arial" font-size="14.00">password_hash </text>
<text text-anchor="start" x="168.22" y="-394.2" font-family="Arial" font-size="14.00" fill="#666666">[text]</text>
<polygon fill="none" stroke="black" points="59.27,-351.2 59.27,-382 372.07,-382 372.07,-351.2 59.27,-351.2"/>
<text text-anchor="start" x="66.27" y="-363.4" font-family="Arial" font-size="14.00">display_name </text>
<text text-anchor="start" x="156.54" y="-363.4" font-family="Arial" font-size="14.00" fill="#666666">[text]</text>
<polygon fill="none" stroke="black" points="59.27,-320.4 59.27,-351.2 372.07,-351.2 372.07,-320.4 59.27,-320.4"/>
<text text-anchor="start" x="66.27" y="-332.6" font-family="Arial" font-size="14.00">created_at </text>
<text text-anchor="start" x="136.32" y="-332.6" font-family="Arial" font-size="14.00" fill="#666666">[timestamp with time zone]</text>
<polygon fill="none" stroke="black" points="59.27,-289.6 59.27,-320.4 372.07,-320.4 372.07,-289.6 59.27,-289.6"/>
<text text-anchor="start" x="66.27" y="-301.8" font-family="Arial" font-size="14.00">last_login_at </text>
<text text-anchor="start" x="148.77" y="-301.8" font-family="Arial" font-size="14.00" fill="#666666">[timestamp with time zone]</text>
<polygon fill="none" stroke="black" points="59.27,-258.8 59.27,-289.6 372.07,-289.6 372.07,-258.8 59.27,-258.8"/>
<text text-anchor="start" x="66.27" y="-271" font-family="Arial" font-size="14.00">is_active </text>
<text text-anchor="start" x="124.63" y="-271" font-family="Arial" font-size="14.00" fill="#666666">[boolean]</text>
<polygon fill="none" stroke="black" points="59.27,-228 59.27,-258.8 372.07,-258.8 372.07,-228 59.27,-228"/>
<text text-anchor="start" x="66.27" y="-240.2" font-family="Arial" font-size="14.00">is_admin </text>
<text text-anchor="start" x="126.18" y="-240.2" font-family="Arial" font-size="14.00" fill="#666666">[boolean]</text>
<polygon fill="none" stroke="black" points="59.27,-197.2 59.27,-228 372.07,-228 372.07,-197.2 59.27,-197.2"/>
<text text-anchor="start" x="66.27" y="-209.4" font-family="Arial" font-size="14.00">accent_color </text>
<text text-anchor="start" x="149.54" y="-209.4" font-family="Arial" font-size="14.00" fill="#666666">[text]</text>
<polygon fill="none" stroke="black" points="59.27,-166.4 59.27,-197.2 372.07,-197.2 372.07,-166.4 59.27,-166.4"/>
<text text-anchor="start" x="66.27" y="-178.6" font-family="Arial" font-size="14.00">theme_mode </text>
<text text-anchor="start" x="151.87" y="-178.6" font-family="Arial" font-size="14.00" fill="#666666">[text]</text>
<polygon fill="none" stroke="black" points="59.27,-135.6 59.27,-166.4 372.07,-166.4 372.07,-135.6 59.27,-135.6"/>
<text text-anchor="start" x="66.27" y="-147.8" font-family="Arial" font-size="14.00">lastfm_username </text>
<text text-anchor="start" x="177.54" y="-147.8" font-family="Arial" font-size="14.00" fill="#666666">[text]</text>
<polygon fill="none" stroke="black" points="59.27,-104.8 59.27,-135.6 372.07,-135.6 372.07,-104.8 59.27,-104.8"/>
<text text-anchor="start" x="66.27" y="-117" font-family="Arial" font-size="14.00">lastfm_session_key </text>
<text text-anchor="start" x="192.32" y="-117" font-family="Arial" font-size="14.00" fill="#666666">[text]</text>
<polygon fill="none" stroke="black" points="59.27,-74 59.27,-104.8 372.07,-104.8 372.07,-74 59.27,-74"/>
<text text-anchor="start" x="66.27" y="-86.2" font-family="Arial" font-size="14.00">lastfm_enabled </text>
<text text-anchor="start" x="165.11" y="-86.2" font-family="Arial" font-size="14.00" fill="#666666">[boolean]</text>
<polygon fill="none" stroke="black" points="59.27,-43.2 59.27,-74 372.07,-74 372.07,-43.2 59.27,-43.2"/>
<text text-anchor="start" x="66.27" y="-55.4" font-family="Arial" font-size="14.00">lastfm_connected_at </text>
<text text-anchor="start" x="199.35" y="-55.4" font-family="Arial" font-size="14.00" fill="#666666">[timestamp with time zone]</text>
</g>
<!-- public.auth_refresh_session&#45;&gt;public.user -->
<g id="edge1" class="edge">
<title>public.auth_refresh_session:user_id&#45;&gt;public.user:id</title>
<path fill="none" stroke="black" d="M396.27,-926.33C482.51,-896.91 466.97,-489.8 373.07,-489.8"/>
<polygon fill="black" stroke="black" points="396.34,-926.31 385.74,-923.51 391.07,-927.18 386.8,-927.89 386.8,-927.89 386.8,-927.89 391.07,-927.18 387.21,-932.39 396.34,-926.31"/>
<text text-anchor="start" x="393.14" y="-938" font-family="Arial" font-size="10.00">FOREIGN KEY (user_id) REFERENCES &quot;user&quot;(id) ON DELETE CASCADE</text>
</g>
</g>
</svg>
