<?xml version="1.0" encoding="UTF-8" standalone="no"?>
<!DOCTYPE svg PUBLIC "-//W3C//DTD SVG 1.1//EN"
 "http://www.w3.org/Graphics/SVG/1.1/DTD/svg11.dtd">
<!-- Generated by graphviz version 12.1.2 (20240928.0832)
 -->
<!-- Title: public.artist_genre Pages: 1 -->
<svg width="703pt" height="694pt"
 viewBox="0.00 0.00 703.32 694.40" xmlns="http://www.w3.org/2000/svg" xmlns:xlink="http://www.w3.org/1999/xlink">
<g id="graph0" class="graph" transform="scale(1 1) rotate(0) translate(4 690.4)">
<title>public.artist_genre</title>
<polygon fill="white" stroke="none" points="-4,4 -4,-690.4 699.32,-690.4 699.32,4 -4,4"/>
<!-- public.artist_genre -->
<g id="node1" class="node">
<title>public.artist_genre</title>
<polygon fill="#efefef" stroke="none" points="46.2,-604.6 46.2,-640.2 319.14,-640.2 319.14,-604.6 46.2,-604.6"/>
<polygon fill="none" stroke="black" points="46.2,-604.6 46.2,-640.2 319.14,-640.2 319.14,-604.6 46.2,-604.6"/>
<text text-anchor="start" x="53.2" y="-618" font-family="Arial Bold" font-size="18.00">public.artist_genre</text>
<text text-anchor="start" x="187.66" y="-618" font-family="Arial" font-size="14.00">    </text>
<text text-anchor="start" x="218.77" y="-618" font-family="Arial" font-size="14.00" fill="#666666">[BASE TABLE]</text>
<polygon fill="none" stroke="black" points="46.2,-573.8 46.2,-604.6 319.14,-604.6 319.14,-573.8 46.2,-573.8"/>
<text text-anchor="start" x="53.2" y="-586" font-family="Arial" font-size="14.00">artist_mbid </text>
<text text-anchor="start" x="125.56" y="-586" font-family="Arial" font-size="14.00" fill="#666666">[text]</text>
<polygon fill="none" stroke="black" points="46.2,-543 46.2,-573.8 319.14,-573.8 319.14,-543 46.2,-543"/>
<text text-anchor="start" x="53.2" y="-555.2" font-family="Arial" font-size="14.00">genre </text>
<text text-anchor="start" x="92.9" y="-555.2" font-family="Arial" font-size="14.00" fill="#666666">[text]</text>
<polygon fill="none" stroke="black" points="46.2,-512.2 46.2,-543 319.14,-543 319.14,-512.2 46.2,-512.2"/>
<text text-anchor="start" x="53.2" y="-524.4" font-family="Arial" font-size="14.00">count </text>
<text text-anchor="start" x="91.34" y="-524.4" font-family="Arial" font-size="14.00" fill="#666666">[integer]</text>
<polygon fill="none" stroke="black" points="46.2,-481.4 46.2,-512.2 319.14,-512.2 319.14,-481.4 46.2,-481.4"/>
<text text-anchor="start" x="53.2" y="-493.6" font-family="Arial" font-size="14.00">updated_at </text>
<text text-anchor="start" x="127.16" y="-493.6" font-family="Arial" font-size="14.00" fill="#666666">[timestamp with time zone]</text>
<polygon fill="none" stroke="black" stroke-width="3" points="44.7,-479.9 44.7,-641.7 320.64,-641.7 320.64,-479.9 44.7,-479.9"/>
</g>
<!-- public.artist -->
<g id="node2" class="node">
<title>public.artist</title>
<polygon fill="#efefef" stroke="none" points="55.83,-320.4 55.83,-356 309.51,-356 309.51,-320.4 55.83,-320.4"/>
<polygon fill="none" stroke="black" points="55.83,-320.4 55.83,-356 309.51,-356 309.51,-320.4 55.83,-320.4"/>
<text text-anchor="start" x="77.69" y="-333.8" font-family="Arial Bold" font-size="18.00">public.artist</text>
<text text-anchor="start" x="163.17" y="-333.8" font-family="Arial" font-size="14.00">    </text>
<text text-anchor="start" x="194.29" y="-333.8" font-family="Arial" font-size="14.00" fill="#666666">[BASE TABLE]</text>
<polygon fill="none" stroke="black" points="55.83,-289.6 55.83,-320.4 309.51,-320.4 309.51,-289.6 55.83,-289.6"/>
<text text-anchor="start" x="62.83" y="-301.8" font-family="Arial" font-size="14.00">mbid </text>
<text text-anchor="start" x="97.07" y="-301.8" font-family="Arial" font-size="14.00" fill="#666666">[text]</text>
<polygon fill="none" stroke="black" points="55.83,-258.8 55.83,-289.6 309.51,-289.6 309.51,-258.8 55.83,-258.8"/>
<text text-anchor="start" x="62.83" y="-271" font-family="Arial" font-size="14.00">name </text>
<text text-anchor="start" x="101.74" y="-271" font-family="Arial" font-size="14.00" fill="#666666">[citext]</text>
<polygon fill="none" stroke="black" points="55.83,-228 55.83,-258.8 309.51,-258.8 309.51,-228 55.83,-228"/>
<text text-anchor="start" x="62.83" y="-240.2" font-family="Arial" font-size="14.00">sort_name </text>
<text text-anchor="start" x="132.87" y="-240.2" font-family="Arial" font-size="14.00" fill="#666666">[text]</text>
<polygon fill="none" stroke="black" points="55.83,-197.2 55.83,-228 309.51,-228 309.51,-197.2 55.83,-197.2"/>
<text text-anchor="start" x="62.83" y="-209.4" font-family="Arial" font-size="14.00">bio </text>
<text text-anchor="start" x="85.4" y="-209.4" font-family="Arial" font-size="14.00" fill="#666666">[text]</text>
<polygon fill="none" stroke="black" points="55.83,-166.4 55.83,-197.2 309.51,-197.2 309.51,-166.4 55.83,-166.4"/>
<text text-anchor="start" x="62.83" y="-178.6" font-family="Arial" font-size="14.00">image_url </text>
<text text-anchor="start" x="128.2" y="-178.6" font-family="Arial" font-size="14.00" fill="#666666">[text]</text>
<polygon fill="none" stroke="black" points="55.83,-135.6 55.83,-166.4 309.51,-166.4 309.51,-135.6 55.83,-135.6"/>
<text text-anchor="start" x="62.83" y="-147.8" font-family="Arial" font-size="14.00">image_source </text>
<text text-anchor="start" x="154.66" y="-147.8" font-family="Arial" font-size="14.00" fill="#666666">[text]</text>
<polygon fill="none" stroke="black" points="55.83,-104.8 55.83,-135.6 309.51,-135.6 309.51,-104.8 55.83,-104.8"/>
<text text-anchor="start" x="62.83" y="-117" font-family="Arial" font-size="14.00">artwork_id </text>
<text text-anchor="start" x="131.3" y="-117" font-family="Arial" font-size="14.00" fill="#666666">[bigint]</text>
<polygon fill="none" stroke="black" points="55.83,-74 55.83,-104.8 309.51,-104.8 309.51,-74 55.83,-74"/>
<text text-anchor="start" x="62.83" y="-86.2" font-family="Arial" font-size="14.00">letter </text>
<text text-anchor="start" x="97.85" y="-86.2" font-family="Arial" font-size="14.00" fill="#666666">[text]</text>
<polygon fill="none" stroke="black" points="55.83,-43.2 55.83,-74 309.51,-74 309.51,-43.2 55.83,-43.2"/>
<text text-anchor="start" x="62.83" y="-55.4" font-family="Arial" font-size="14.00">updated_at </text>
<text text-anchor="start" x="136.79" y="-55.4" font-family="Arial" font-size="14.00" fill="#666666">[timestamp with time zone]</text>
</g>
<!-- public.artist_genre&#45;&gt;public.artist -->
<g id="edge1" class="edge">
<title>public.artist_genre:artist_mbid&#45;&gt;public.artist:mbid</title>
<path fill="none" stroke="black" d="M330.18,-586.57C382.07,-557.92 370.13,-305 310.51,-305"/>
<polygon fill="black" stroke="black" points="330.14,-586.58 319.33,-584.76 324.98,-587.93 320.79,-589.03 320.79,-589.03 320.79,-589.03 324.98,-587.93 321.61,-593.47 330.14,-586.58"/>
<text text-anchor="start" x="327.14" y="-599.2" font-family="Arial" font-size="10.00">FOREIGN KEY (artist_mbid) REFERENCES artist(mbid) ON DELETE CASCADE</text>
</g>
</g>
</svg>
