<?xml version="1.0" encoding="UTF-8" standalone="no"?>
<!DOCTYPE svg PUBLIC "-//W3C//DTD SVG 1.1//EN"
 "http://www.w3.org/Graphics/SVG/1.1/DTD/svg11.dtd">
<!-- Generated by graphviz version 12.1.2 (20240928.0832)
 -->
<!-- Title: public.top_track Pages: 1 -->
<svg width="988pt" height="1649pt"
 viewBox="0.00 0.00 987.97 1649.20" xmlns="http://www.w3.org/2000/svg" xmlns:xlink="http://www.w3.org/1999/xlink">
<g id="graph0" class="graph" transform="scale(1 1) rotate(0) translate(4 1645.2)">
<title>public.top_track</title>
<polygon fill="white" stroke="none" points="-4,4 -4,-1645.2 983.97,-1645.2 983.97,4 -4,4"/>
<!-- public.top_track -->
<g id="node1" class="node">
<title>public.top_track</title>
<polygon fill="#efefef" stroke="none" points="376.18,-1559.4 376.18,-1595 632.13,-1595 632.13,-1559.4 376.18,-1559.4"/>
<polygon fill="none" stroke="black" points="376.18,-1559.4 376.18,-1595 632.13,-1595 632.13,-1559.4 376.18,-1559.4"/>
<text text-anchor="start" x="383.18" y="-1572.8" font-family="Arial Bold" font-size="18.00">public.top_track</text>
<text text-anchor="start" x="500.64" y="-1572.8" font-family="Arial" font-size="14.00">    </text>
<text text-anchor="start" x="531.76" y="-1572.8" font-family="Arial" font-size="14.00" fill="#666666">[BASE TABLE]</text>
<polygon fill="none" stroke="black" points="376.18,-1528.6 376.18,-1559.4 632.13,-1559.4 632.13,-1528.6 376.18,-1528.6"/>
<text text-anchor="start" x="383.18" y="-1540.8" font-family="Arial" font-size="14.00">id </text>
<text text-anchor="start" x="397.96" y="-1540.8" font-family="Arial" font-size="14.00" fill="#666666">[bigint]</text>
<polygon fill="none" stroke="black" points="376.18,-1497.8 376.18,-1528.6 632.13,-1528.6 632.13,-1497.8 376.18,-1497.8"/>
<text text-anchor="start" x="383.18" y="-1510" font-family="Arial" font-size="14.00">artist_mbid </text>
<text text-anchor="start" x="455.54" y="-1510" font-family="Arial" font-size="14.00" fill="#666666">[text]</text>
<polygon fill="none" stroke="black" points="376.18,-1467 376.18,-1497.8 632.13,-1497.8 632.13,-1467 376.18,-1467"/>
<text text-anchor="start" x="383.18" y="-1479.2" font-family="Arial" font-size="14.00">type </text>
<text text-anchor="start" x="413.53" y="-1479.2" font-family="Arial" font-size="14.00" fill="#666666">[text]</text>
<polygon fill="none" stroke="black" points="376.18,-1436.2 376.18,-1467 632.13,-1467 632.13,-1436.2 376.18,-1436.2"/>
<text text-anchor="start" x="383.18" y="-1448.4" font-family="Arial" font-size="14.00">track_id </text>
<text text-anchor="start" x="436.09" y="-1448.4" font-family="Arial" font-size="14.00" fill="#666666">[bigint]</text>
<polygon fill="none" stroke="black" points="376.18,-1405.4 376.18,-1436.2 632.13,-1436.2 632.13,-1405.4 376.18,-1405.4"/>
<text text-anchor="start" x="383.18" y="-1417.6" font-family="Arial" font-size="14.00">external_name </text>
<text text-anchor="start" x="479.68" y="-1417.6" font-family="Arial" font-size="14.00" fill="#666666">[text]</text>
<polygon fill="none" stroke="black" points="376.18,-1374.6 376.18,-1405.4 632.13,-1405.4 632.13,-1374.6 376.18,-1374.6"/>
<text text-anchor="start" x="383.18" y="-1386.8" font-family="Arial" font-size="14.00">external_album </text>
<text text-anchor="start" x="482.79" y="-1386.8" font-family="Arial" font-size="14.00" fill="#666666">[text]</text>
<polygon fill="none" stroke="black" points="376.18,-1343.8 376.18,-1374.6 632.13,-1374.6 632.13,-1343.8 376.18,-1343.8"/>
<text text-anchor="start" x="383.18" y="-1356" font-family="Arial" font-size="14.00">external_date </text>
<text text-anchor="start" x="471.91" y="-1356" font-family="Arial" font-size="14.00" fill="#666666">[text]</text>
<polygon fill="none" stroke="black" points="376.18,-1313 376.18,-1343.8 632.13,-1343.8 632.13,-1313 376.18,-1313"/>
<text text-anchor="start" x="383.18" y="-1325.2" font-family="Arial" font-size="14.00">external_duration_ms </text>
<text text-anchor="start" x="521.7" y="-1325.2" font-family="Arial" font-size="14.00" fill="#666666">[integer]</text>
<polygon fill="none" stroke="black" points="376.18,-1282.2 376.18,-1313 632.13,-1313 632.13,-1282.2 376.18,-1282.2"/>
<text text-anchor="start" x="383.18" y="-1294.4" font-family="Arial" font-size="14.00">external_mbid </text>
<text text-anchor="start" x="475" y="-1294.4" font-family="Arial" font-size="14.00" fill="#666666">[text]</text>
<polygon fill="none" stroke="black" points="376.18,-1251.4 376.18,-1282.2 632.13,-1282.2 632.13,-1251.4 376.18,-1251.4"/>
<text text-anchor="start" x="383.18" y="-1263.6" font-family="Arial" font-size="14.00">popularity </text>
<text text-anchor="start" x="447.77" y="-1263.6" font-family="Arial" font-size="14.00" fill="#666666">[integer]</text>
<polygon fill="none" stroke="black" points="376.18,-1220.6 376.18,-1251.4 632.13,-1251.4 632.13,-1220.6 376.18,-1220.6"/>
<text text-anchor="start" x="383.18" y="-1232.8" font-family="Arial" font-size="14.00">rank </text>
<text text-anchor="start" x="414.3" y="-1232.8" font-family="Arial" font-size="14.00" fill="#666666">[integer]</text>
<polygon fill="none" stroke="black" points="376.18,-1189.8 376.18,-1220.6 632.13,-1220.6 632.13,-1189.8 376.18,-1189.8"/>
<text text-anchor="start" x="383.18" y="-1202" font-family="Arial" font-size="14.00">updated_at </text>
<text text-anchor="start" x="457.13" y="-1202" font-family="Arial" font-size="14.00" fill="#666666">[timestamp with time zone]</text>
<polygon fill="none" stroke="black" stroke-width="3" points="374.68,-1188.3 374.68,-1596.5 633.63,-1596.5 633.63,-1188.3 374.68,-1188.3"/>
</g>
<!-- public.artist -->
<g id="node2" class="node">
<title>public.artist</title>
<polygon fill="#efefef" stroke="none" points="198.31,-674.6 198.31,-710.2 452,-710.2 452,-674.6 198.31,-674.6"/>
<polygon fill="none" stroke="black" points="198.31,-674.6 198.31,-710.2 452,-710.2 452,-674.6 198.31,-674.6"/>
<text text-anchor="start" x="220.17" y="-688" font-family="Arial Bold" font-size="18.00">public.artist</text>
<text text-anchor="start" x="305.65" y="-688" font-family="Arial" font-size="14.00">    </text>
<text text-anchor="start" x="336.77" y="-688" font-family="Arial" font-size="14.00" fill="#666666">[BASE TABLE]</text>
<polygon fill="none" stroke="black" points="198.31,-643.8 198.31,-674.6 452,-674.6 452,-643.8 198.31,-643.8"/>
<text text-anchor="start" x="205.31" y="-656" font-family="Arial" font-size="14.00">mbid </text>
<text text-anchor="start" x="239.55" y="-656" font-family="Arial" font-size="14.00" fill="#666666">[text]</text>
<polygon fill="none" stroke="black" points="198.31,-613 198.31,-643.8 452,-643.8 452,-613 198.31,-613"/>
<text text-anchor="start" x="205.31" y="-625.2" font-family="Arial" font-size="14.00">name </text>
<text text-anchor="start" x="244.22" y="-625.2" font-family="Arial" font-size="14.00" fill="#666666">[citext]</text>
<polygon fill="none" stroke="black" points="198.31,-582.2 198.31,-613 452,-613 452,-582.2 198.31,-582.2"/>
<text text-anchor="start" x="205.31" y="-594.4" font-family="Arial" font-size="14.00">sort_name </text>
<text text-anchor="start" x="275.35" y="-594.4" font-family="Arial" font-size="14.00" fill="#666666">[text]</text>
<polygon fill="none" stroke="black" points="198.31,-551.4 198.31,-582.2 452,-582.2 452,-551.4 198.31,-551.4"/>
<text text-anchor="start" x="205.31" y="-563.6" font-family="Arial" font-size="14.00">bio </text>
<text text-anchor="start" x="227.89" y="-563.6" font-family="Arial" font-size="14.00" fill="#666666">[text]</text>
<polygon fill="none" stroke="black" points="198.31,-520.6 198.31,-551.4 452,-551.4 452,-520.6 198.31,-520.6"/>
<text text-anchor="start" x="205.31" y="-532.8" font-family="Arial" font-size="14.00">image_url </text>
<text text-anchor="start" x="270.68" y="-532.8" font-family="Arial" font-size="14.00" fill="#666666">[text]</text>
<polygon fill="none" stroke="black" points="198.31,-489.8 198.31,-520.6 452,-520.6 452,-489.8 198.31,-489.8"/>
<text text-anchor="start" x="205.31" y="-502" font-family="Arial" font-size="14.00">image_source </text>
<text text-anchor="start" x="297.14" y="-502" font-family="Arial" font-size="14.00" fill="#666666">[text]</text>
<polygon fill="none" stroke="black" points="198.31,-459 198.31,-489.8 452,-489.8 452,-459 198.31,-459"/>
<text text-anchor="start" x="205.31" y="-471.2" font-family="Arial" font-size="14.00">artwork_id </text>
<text text-anchor="start" x="273.78" y="-471.2" font-family="Arial" font-size="14.00" fill="#666666">[bigint]</text>
<polygon fill="none" stroke="black" points="198.31,-428.2 198.31,-459 452,-459 452,-428.2 198.31,-428.2"/>
<text text-anchor="start" x="205.31" y="-440.4" font-family="Arial" font-size="14.00">letter </text>
<text text-anchor="start" x="240.33" y="-440.4" font-family="Arial" font-size="14.00" fill="#666666">[text]</text>
<polygon fill="none" stroke="black" points="198.31,-397.4 198.31,-428.2 452,-428.2 452,-397.4 198.31,-397.4"/>
<text text-anchor="start" x="205.31" y="-409.6" font-family="Arial" font-size="14.00">updated_at </text>
<text text-anchor="start" x="279.27" y="-409.6" font-family="Arial" font-size="14.00" fill="#666666">[timestamp with time zone]</text>
</g>
<!-- public.top_track&#45;&gt;public.artist -->
<g id="edge1" class="edge">
<title>public.top_track:artist_mbid&#45;&gt;public.artist:mbid</title>
<path fill="none" stroke="black" d="M365.01,-1511.38C261.65,-1471.52 448.2,-790.75 452,-753.4 456.23,-711.75 494.86,-659.2 453,-659.2"/>
<polygon fill="black" stroke="black" points="365,-1511.38 374.05,-1517.57 370.26,-1512.32 374.52,-1513.08 374.52,-1513.08 374.52,-1513.08 370.26,-1512.32 375.64,-1508.71 365,-1511.38"/>
<text text-anchor="start" x="7" y="-1523.2" font-family="Arial" font-size="10.00">FOREIGN KEY (artist_mbid) REFERENCES artist(mbid) ON DELETE CASCADE</text>
</g>
<!-- public.track -->
<g id="node3" class="node">
<title>public.track</title>
<polygon fill="#efefef" stroke="none" points="556.31,-1028.8 556.31,-1064.4 810,-1064.4 810,-1028.8 556.31,-1028.8"/>
<polygon fill="none" stroke="black" points="556.31,-1028.8 556.31,-1064.4 810,-1064.4 810,-1028.8 556.31,-1028.8"/>
<text text-anchor="start" x="578.18" y="-1042.2" font-family="Arial Bold" font-size="18.00">public.track</text>
<text text-anchor="start" x="663.64" y="-1042.2" font-family="Arial" font-size="14.00">    </text>
<text text-anchor="start" x="694.76" y="-1042.2" font-family="Arial" font-size="14.00" fill="#666666">[BASE TABLE]</text>
<polygon fill="none" stroke="black" points="556.31,-998 556.31,-1028.8 810,-1028.8 810,-998 556.31,-998"/>
<text text-anchor="start" x="563.31" y="-1010.2" font-family="Arial" font-size="14.00">id </text>
<text text-anchor="start" x="578.1" y="-1010.2" font-family="Arial" font-size="14.00" fill="#666666">[bigint]</text>
<polygon fill="none" stroke="black" points="556.31,-967.2 556.31,-998 810,-998 810,-967.2 556.31,-967.2"/>
<text text-anchor="start" x="563.31" y="-979.4" font-family="Arial" font-size="14.00">path </text>
<text text-anchor="start" x="594.45" y="-979.4" font-family="Arial" font-size="14.00" fill="#666666">[text]</text>
<polygon fill="none" stroke="black" points="556.31,-936.4 556.31,-967.2 810,-967.2 810,-936.4 556.31,-936.4"/>
<text text-anchor="start" x="563.31" y="-948.6" font-family="Arial" font-size="14.00">updated_at </text>
<text text-anchor="start" x="637.27" y="-948.6" font-family="Arial" font-size="14.00" fill="#666666">[timestamp with time zone]</text>
<polygon fill="none" stroke="black" points="556.31,-905.6 556.31,-936.4 810,-936.4 810,-905.6 556.31,-905.6"/>
<text text-anchor="start" x="563.31" y="-917.8" font-family="Arial" font-size="14.00">title </text>
<text text-anchor="start" x="588.99" y="-917.8" font-family="Arial" font-size="14.00" fill="#666666">[text]</text>
<polygon fill="none" stroke="black" points="556.31,-874.8 556.31,-905.6 810,-905.6 810,-874.8 556.31,-874.8"/>
<text text-anchor="start" x="563.31" y="-887" font-family="Arial" font-size="14.00">artist </text>
<text text-anchor="start" x="597.54" y="-887" font-family="Arial" font-size="14.00" fill="#666666">[text]</text>
<polygon fill="none" stroke="black" points="556.31,-844 556.31,-874.8 810,-874.8 810,-844 556.31,-844"/>
<text text-anchor="start" x="563.31" y="-856.2" font-family="Arial" font-size="14.00">album </text>
<text text-anchor="start" x="605.33" y="-856.2" font-family="Arial" font-size="14.00" fill="#666666">[text]</text>
<polygon fill="none" stroke="black" points="556.31,-813.2 556.31,-844 810,-844 810,-813.2 556.31,-813.2"/>
<text text-anchor="start" x="563.31" y="-825.4" font-family="Arial" font-size="14.00">album_artist </text>
<text text-anchor="start" x="643.46" y="-825.4" font-family="Arial" font-size="14.00" fill="#666666">[text]</text>
<polygon fill="none" stroke="black" points="556.31,-782.4 556.31,-813.2 810,-813.2 810,-782.4 556.31,-782.4"/>
<text text-anchor="start" x="563.31" y="-794.6" font-family="Arial" font-size="14.00">track_no </text>
<text text-anchor="start" x="620.9" y="-794.6" font-family="Arial" font-size="14.00" fill="#666666">[integer]</text>
<polygon fill="none" stroke="black" points="556.31,-751.6 556.31,-782.4 810,-782.4 810,-751.6 556.31,-751.6"/>
<text text-anchor="start" x="563.31" y="-763.8" font-family="Arial" font-size="14.00">disc_no </text>
<text text-anchor="start" x="615.46" y="-763.8" font-family="Arial" font-size="14.00" fill="#666666">[integer]</text>
<polygon fill="none" stroke="black" points="556.31,-720.8 556.31,-751.6 810,-751.6 810,-720.8 556.31,-720.8"/>
<text text-anchor="start" x="563.31" y="-733" font-family="Arial" font-size="14.00">release_date </text>
<text text-anchor="start" x="648.15" y="-733" font-family="Arial" font-size="14.00" fill="#666666">[date]</text>
<polygon fill="none" stroke="black" points="556.31,-690 556.31,-720.8 810,-720.8 810,-690 556.31,-690"/>
<text text-anchor="start" x="563.31" y="-702.2" font-family="Arial" font-size="14.00">release_type </text>
<text text-anchor="start" x="647.37" y="-702.2" font-family="Arial" font-size="14.00" fill="#666666">[text]</text>
<polygon fill="none" stroke="black" points="556.31,-659.2 556.31,-690 810,-690 810,-659.2 556.31,-659.2"/>
<text text-anchor="start" x="563.31" y="-671.4" font-family="Arial" font-size="14.00">release_type_raw </text>
<text text-anchor="start" x="677.71" y="-671.4" font-family="Arial" font-size="14.00" fill="#666666">[text]</text>
<polygon fill="none" stroke="black" points="556.31,-628.4 556.31,-659.2 810,-659.2 810,-628.4 556.31,-628.4"/>
<text text-anchor="start" x="563.31" y="-640.6" font-family="Arial" font-size="14.00">release_date_raw </text>
<text text-anchor="start" x="678.5" y="-640.6" font-family="Arial" font-size="14.00" fill="#666666">[text]</text>
<polygon fill="none" stroke="black" points="556.31,-597.6 556.31,-628.4 810,-628.4 810,-597.6 556.31,-597.6"/>
<text text-anchor="start" x="563.31" y="-609.8" font-family="Arial" font-size="14.00">release_date_tag </text>
<text text-anchor="start" x="675.4" y="-609.8" font-family="Arial" font-size="14.00" fill="#666666">[text]</text>
<polygon fill="none" stroke="black" points="556.31,-566.8 556.31,-597.6 810,-597.6 810,-566.8 556.31,-566.8"/>
<text text-anchor="start" x="563.31" y="-579" font-family="Arial" font-size="14.00">duration_seconds </text>
<text text-anchor="start" x="677.73" y="-579" font-family="Arial" font-size="14.00" fill="#666666">[double precision]</text>
<polygon fill="none" stroke="black" points="556.31,-536 556.31,-566.8 810,-566.8 810,-536 556.31,-536"/>
<text text-anchor="start" x="563.31" y="-548.2" font-family="Arial" font-size="14.00">codec </text>
<text text-anchor="start" x="604.56" y="-548.2" font-family="Arial" font-size="14.00" fill="#666666">[text]</text>
<polygon fill="none" stroke="black" points="556.31,-505.2 556.31,-536 810,-536 810,-505.2 556.31,-505.2"/>
<text text-anchor="start" x="563.31" y="-517.4" font-family="Arial" font-size="14.00">sample_rate_hz </text>
<text text-anchor="start" x="666.82" y="-517.4" font-family="Arial" font-size="14.00" fill="#666666">[integer]</text>
<polygon fill="none" stroke="black" points="556.31,-474.4 556.31,-505.2 810,-505.2 810,-474.4 556.31,-474.4"/>
<text text-anchor="start" x="563.31" y="-486.6" font-family="Arial" font-size="14.00">bit_depth </text>
<text text-anchor="start" x="624.81" y="-486.6" font-family="Arial" font-size="14.00" fill="#666666">[integer]</text>
<polygon fill="none" stroke="black" points="556.31,-443.6 556.31,-474.4 810,-474.4 810,-443.6 556.31,-443.6"/>
<text text-anchor="start" x="563.31" y="-455.8" font-family="Arial" font-size="14.00">bitrate </text>
<text text-anchor="start" x="606.11" y="-455.8" font-family="Arial" font-size="14.00" fill="#666666">[integer]</text>
<polygon fill="none" stroke="black" points="556.31,-412.8 556.31,-443.6 810,-443.6 810,-412.8 556.31,-412.8"/>
<text text-anchor="start" x="563.31" y="-425" font-family="Arial" font-size="14.00">channels </text>
<text text-anchor="start" x="623.24" y="-425" font-family="Arial" font-size="14.00" fill="#666666">[integer]</text>
<polygon fill="none" stroke="black" points="556.31,-382 556.31,-412.8 810,-412.8 810,-382 556.31,-382"/>
<text text-anchor="start" x="563.31" y="-394.2" font-family="Arial" font-size="14.00">label </text>
<text text-anchor="start" x="596.78" y="-394.2" font-family="Arial" font-size="14.00" fill="#666666">[text]</text>
<polygon fill="none" stroke="black" points="556.31,-351.2 556.31,-382 810,-382 810,-351.2 556.31,-351.2"/>
<text text-anchor="start" x="563.31" y="-363.4" font-family="Arial" font-size="14.00">artist_mbid </text>
<text text-anchor="start" x="635.67" y="-363.4" font-family="Arial" font-size="14.00" fill="#666666">[text]</text>
<polygon fill="none" stroke="black" points="556.31,-320.4 556.31,-351.2 810,-351.2 810,-320.4 556.31,-320.4"/>
<text text-anchor="start" x="563.31" y="-332.6" font-family="Arial" font-size="14.00">album_artist_mbid </text>
<text text-anchor="start" x="681.59" y="-332.6" font-family="Arial" font-size="14.00" fill="#666666">[text]</text>
<polygon fill="none" stroke="black" points="556.31,-289.6 556.31,-320.4 810,-320.4 810,-289.6 556.31,-289.6"/>
<text text-anchor="start" x="563.31" y="-301.8" font-family="Arial" font-size="14.00">track_mbid </text>
<text text-anchor="start" x="635.67" y="-301.8" font-family="Arial" font-size="14.00" fill="#666666">[text]</text>
<polygon fill="none" stroke="black" points="556.31,-258.8 556.31,-289.6 810,-289.6 810,-258.8 556.31,-258.8"/>
<text text-anchor="start" x="563.31" y="-271" font-family="Arial" font-size="14.00">release_track_mbid </text>
<text text-anchor="start" x="689.38" y="-271" font-family="Arial" font-size="14.00" fill="#666666">[text]</text>
<polygon fill="none" stroke="black" points="556.31,-228 556.31,-258.8 810,-258.8 810,-228 556.31,-228"/>
<text text-anchor="start" x="563.31" y="-240.2" font-family="Arial" font-size="14.00">release_mbid </text>
<text text-anchor="start" x="651.25" y="-240.2" font-family="Arial" font-size="14.00" fill="#666666">[text]</text>
<polygon fill="none" stroke="black" points="556.31,-197.2 556.31,-228 810,-228 810,-197.2 556.31,-197.2"/>
<text text-anchor="start" x="563.31" y="-209.4" font-family="Arial" font-size="14.00">release_group_mbid </text>
<text text-anchor="start" x="694.84" y="-209.4" font-family="Arial" font-size="14.00" fill="#666666">[text]</text>
<polygon fill="none" stroke="black" points="556.31,-166.4 556.31,-197.2 810,-197.2 810,-166.4 556.31,-166.4"/>
<text text-anchor="start" x="563.31" y="-178.6" font-family="Arial" font-size="14.00">artwork_id </text>
<text text-anchor="start" x="631.78" y="-178.6" font-family="Arial" font-size="14.00" fill="#666666">[bigint]</text>
<polygon fill="none" stroke="black" points="556.31,-135.6 556.31,-166.4 810,-166.4 810,-135.6 556.31,-135.6"/>
<text text-anchor="start" x="563.31" y="-147.8" font-family="Arial" font-size="14.00">size_bytes </text>
<text text-anchor="start" x="633.35" y="-147.8" font-family="Arial" font-size="14.00" fill="#666666">[bigint]</text>
<polygon fill="none" stroke="black" points="556.31,-104.8 556.31,-135.6 810,-135.6 810,-104.8 556.31,-104.8"/>
<text text-anchor="start" x="563.31" y="-117" font-family="Arial" font-size="14.00">quick_hash </text>
<text text-anchor="start" x="638.03" y="-117" font-family="Arial" font-size="14.00" fill="#666666">[bytea]</text>
<polygon fill="none" stroke="black" points="556.31,-74 556.31,-104.8 810,-104.8 810,-74 556.31,-74"/>
<text text-anchor="start" x="563.31" y="-86.2" font-family="Arial" font-size="14.00">mtime </text>
<text text-anchor="start" x="605.31" y="-86.2" font-family="Arial" font-size="14.00" fill="#666666">[double precision]</text>
<polygon fill="none" stroke="black" points="556.31,-43.2 556.31,-74 810,-74 810,-43.2 556.31,-43.2"/>
<text text-anchor="start" x="563.31" y="-55.4" font-family="Arial" font-size="14.00">fts_vector </text>
<text text-anchor="start" x="627.89" y="-55.4" font-family="Arial" font-size="14.00" fill="#666666">[tsvector]</text>
</g>
<!-- public.top_track&#45;&gt;public.track -->
<g id="edge2" class="edge">
<title>public.top_track:track_id&#45;&gt;public.track:id</title>
<path fill="none" stroke="black" d="M643.54,-1451.2C766.61,-1441.51 703.53,-1256.14 632.13,-1143.6 612.15,-1112.1 576.41,-1139.02 556.31,-1107.6 533.75,-1072.33 513.44,-1013.4 555.31,-1013.4"/>
<polygon fill="black" stroke="black" points="643.46,-1451.21 633.29,-1447.09 638.13,-1451.41 633.8,-1451.57 633.8,-1451.57 633.8,-1451.57 638.13,-1451.41 633.64,-1456.08 643.46,-1451.21"/>
<text text-anchor="start" x="640.13" y="-1461.6" font-family="Arial" font-size="10.00">FOREIGN KEY (track_id) REFERENCES track(id) ON DELETE SET NULL</text>
</g>
</g>
</svg>
