<?xml version="1.0" encoding="UTF-8" standalone="no"?>
<!DOCTYPE svg PUBLIC "-//W3C//DTD SVG 1.1//EN"
 "http://www.w3.org/Graphics/SVG/1.1/DTD/svg11.dtd">
<!-- Generated by graphviz version 12.1.2 (20240928.0832)
 -->
<!-- Title: public.user Pages: 1 -->
<svg width="1946pt" height="1064pt"
 viewBox="0.00 0.00 1946.34 1064.00" xmlns="http://www.w3.org/2000/svg" xmlns:xlink="http://www.w3.org/1999/xlink">
<g id="graph0" class="graph" transform="scale(1 1) rotate(0) translate(4 1060)">
<title>public.user</title>
<polygon fill="white" stroke="none" points="-4,4 -4,-1060 1942.34,-1060 1942.34,4 -4,4"/>
<!-- public.user -->
<g id="node1" class="node">
<title>public.user</title>
<polygon fill="#efefef" stroke="none" points="812.27,-508.2 812.27,-543.8 1125.07,-543.8 1125.07,-508.2 812.27,-508.2"/>
<polygon fill="none" stroke="black" points="812.27,-508.2 812.27,-543.8 1125.07,-543.8 1125.07,-508.2 812.27,-508.2"/>
<text text-anchor="start" x="866.69" y="-521.6" font-family="Arial Bold" font-size="18.00">public.user</text>
<text text-anchor="start" x="946.17" y="-521.6" font-family="Arial" font-size="14.00">    </text>
<text text-anchor="start" x="977.28" y="-521.6" font-family="Arial" font-size="14.00" fill="#666666">[BASE TABLE]</text>
<polygon fill="none" stroke="black" points="812.27,-477.4 812.27,-508.2 1125.07,-508.2 1125.07,-477.4 812.27,-477.4"/>
<text text-anchor="start" x="819.27" y="-489.6" font-family="Arial" font-size="14.00">id </text>
<text text-anchor="start" x="834.05" y="-489.6" font-family="Arial" font-size="14.00" fill="#666666">[bigint]</text>
<polygon fill="none" stroke="black" points="812.27,-446.6 812.27,-477.4 1125.07,-477.4 1125.07,-446.6 812.27,-446.6"/>
<text text-anchor="start" x="819.27" y="-458.8" font-family="Arial" font-size="14.00">username </text>
<text text-anchor="start" x="885.41" y="-458.8" font-family="Arial" font-size="14.00" fill="#666666">[citext]</text>
<polygon fill="none" stroke="black" points="812.27,-415.8 812.27,-446.6 1125.07,-446.6 1125.07,-415.8 812.27,-415.8"/>
<text text-anchor="start" x="819.27" y="-428" font-family="Arial" font-size="14.00">email </text>
<text text-anchor="start" x="856.61" y="-428" font-family="Arial" font-size="14.00" fill="#666666">[citext]</text>
<polygon fill="none" stroke="black" points="812.27,-385 812.27,-415.8 1125.07,-415.8 1125.07,-385 812.27,-385"/>
<text text-anchor="start" x="819.27" y="-397.2" font-family="Arial" font-size="14.00">password_hash </text>
<text text-anchor="start" x="921.22" y="-397.2" font-family="Arial" font-size="14.00" fill="#666666">[text]</text>
<polygon fill="none" stroke="black" points="812.27,-354.2 812.27,-385 1125.07,-385 1125.07,-354.2 812.27,-354.2"/>
<text text-anchor="start" x="819.27" y="-366.4" font-family="Arial" font-size="14.00">display_name </text>
<text text-anchor="start" x="909.54" y="-366.4" font-family="Arial" font-size="14.00" fill="#666666">[text]</text>
<polygon fill="none" stroke="black" points="812.27,-323.4 812.27,-354.2 1125.07,-354.2 1125.07,-323.4 812.27,-323.4"/>
<text text-anchor="start" x="819.27" y="-335.6" font-family="Arial" font-size="14.00">created_at </text>
<text text-anchor="start" x="889.32" y="-335.6" font-family="Arial" font-size="14.00" fill="#666666">[timestamp with time zone]</text>
<polygon fill="none" stroke="black" points="812.27,-292.6 812.27,-323.4 1125.07,-323.4 1125.07,-292.6 812.27,-292.6"/>
<text text-anchor="start" x="819.27" y="-304.8" font-family="Arial" font-size="14.00">last_login_at </text>
<text text-anchor="start" x="901.77" y="-304.8" font-family="Arial" font-size="14.00" fill="#666666">[timestamp with time zone]</text>
<polygon fill="none" stroke="black" points="812.27,-261.8 812.27,-292.6 1125.07,-292.6 1125.07,-261.8 812.27,-261.8"/>
<text text-anchor="start" x="819.27" y="-274" font-family="Arial" font-size="14.00">is_active </text>
<text text-anchor="start" x="877.63" y="-274" font-family="Arial" font-size="14.00" fill="#666666">[boolean]</text>
<polygon fill="none" stroke="black" points="812.27,-231 812.27,-261.8 1125.07,-261.8 1125.07,-231 812.27,-231"/>
<text text-anchor="start" x="819.27" y="-243.2" font-family="Arial" font-size="14.00">is_admin </text>
<text text-anchor="start" x="879.18" y="-243.2" font-family="Arial" font-size="14.00" fill="#666666">[boolean]</text>
<polygon fill="none" stroke="black" points="812.27,-200.2 812.27,-231 1125.07,-231 1125.07,-200.2 812.27,-200.2"/>
<text text-anchor="start" x="819.27" y="-212.4" font-family="Arial" font-size="14.00">accent_color </text>
<text text-anchor="start" x="902.54" y="-212.4" font-family="Arial" font-size="14.00" fill="#666666">[text]</text>
<polygon fill="none" stroke="black" points="812.27,-169.4 812.27,-200.2 1125.07,-200.2 1125.07,-169.4 812.27,-169.4"/>
<text text-anchor="start" x="819.27" y="-181.6" font-family="Arial" font-size="14.00">theme_mode </text>
<text text-anchor="start" x="904.87" y="-181.6" font-family="Arial" font-size="14.00" fill="#666666">[text]</text>
<polygon fill="none" stroke="black" points="812.27,-138.6 812.27,-169.4 1125.07,-169.4 1125.07,-138.6 812.27,-138.6"/>
<text text-anchor="start" x="819.27" y="-150.8" font-family="Arial" font-size="14.00">lastfm_username </text>
<text text-anchor="start" x="930.54" y="-150.8" font-family="Arial" font-size="14.00" fill="#666666">[text]</text>
<polygon fill="none" stroke="black" points="812.27,-107.8 812.27,-138.6 1125.07,-138.6 1125.07,-107.8 812.27,-107.8"/>
<text text-anchor="start" x="819.27" y="-120" font-family="Arial" font-size="14.00">lastfm_session_key </text>
<text text-anchor="start" x="945.32" y="-120" font-family="Arial" font-size="14.00" fill="#666666">[text]</text>
<polygon fill="none" stroke="black" points="812.27,-77 812.27,-107.8 1125.07,-107.8 1125.07,-77 812.27,-77"/>
<text text-anchor="start" x="819.27" y="-89.2" font-family="Arial" font-size="14.00">lastfm_enabled </text>
<text text-anchor="start" x="918.11" y="-89.2" font-family="Arial" font-size="14.00" fill="#666666">[boolean]</text>
<polygon fill="none" stroke="black" points="812.27,-46.2 812.27,-77 1125.07,-77 1125.07,-46.2 812.27,-46.2"/>
<text text-anchor="start" x="819.27" y="-58.4" font-family="Arial" font-size="14.00">lastfm_connected_at </text>
<text text-anchor="start" x="952.35" y="-58.4" font-family="Arial" font-size="14.00" fill="#666666">[timestamp with time zone]</text>
<polygon fill="none" stroke="black" stroke-width="3" points="810.77,-44.7 810.77,-545.3 1126.57,-545.3 1126.57,-44.7 810.77,-44.7"/>
</g>
<!-- public.favorite_artist -->
<g id="node2" class="node">
<title>public.favorite_artist</title>
<polygon fill="#efefef" stroke="none" points="43.2,-869.4 43.2,-905 332.14,-905 332.14,-869.4 43.2,-869.4"/>
<polygon fill="none" stroke="black" points="43.2,-869.4 43.2,-905 332.14,-905 332.14,-869.4 43.2,-869.4"/>
<text text-anchor="start" x="50.2" y="-882.8" font-family="Arial Bold" font-size="18.00">public.favorite_artist</text>
<text text-anchor="start" x="200.65" y="-882.8" font-family="Arial" font-size="14.00">    </text>
<text text-anchor="start" x="231.77" y="-882.8" font-family="Arial" font-size="14.00" fill="#666666">[BASE TABLE]</text>
<polygon fill="none" stroke="black" points="43.2,-838.6 43.2,-869.4 332.14,-869.4 332.14,-838.6 43.2,-838.6"/>
<text text-anchor="start" x="50.2" y="-850.8" font-family="Arial" font-size="14.00">user_id </text>
<text text-anchor="start" x="100.01" y="-850.8" font-family="Arial" font-size="14.00" fill="#666666">[bigint]</text>
<polygon fill="none" stroke="black" points="43.2,-807.8 43.2,-838.6 332.14,-838.6 332.14,-807.8 43.2,-807.8"/>
<text text-anchor="start" x="50.2" y="-820" font-family="Arial" font-size="14.00">artist_mbid </text>
<text text-anchor="start" x="122.56" y="-820" font-family="Arial" font-size="14.00" fill="#666666">[text]</text>
<polygon fill="none" stroke="black" points="43.2,-777 43.2,-807.8 332.14,-807.8 332.14,-777 43.2,-777"/>
<text text-anchor="start" x="50.2" y="-789.2" font-family="Arial" font-size="14.00">created_at </text>
<text text-anchor="start" x="120.25" y="-789.2" font-family="Arial" font-size="14.00" fill="#666666">[timestamp with time zone]</text>
</g>
<!-- public.favorite_artist&#45;&gt;public.user -->
<g id="edge1" class="edge">
<title>public.favorite_artist:user_id&#45;&gt;public.user:id</title>
<path fill="none" stroke="black" d="M343.52,-853.42C428.26,-843.14 315.96,-699.64 383.67,-626 451.03,-552.74 711.74,-492.8 811.27,-492.8"/>
<polygon fill="black" stroke="black" points="343.46,-853.42 333.22,-849.49 338.13,-853.72 333.81,-853.96 333.81,-853.96 333.81,-853.96 338.13,-853.72 333.73,-858.47 343.46,-853.42"/>
<text text-anchor="start" x="340.14" y="-864" font-family="Arial" font-size="10.00">FOREIGN KEY (user_id) REFERENCES &quot;user&quot;(id) ON DELETE CASCADE</text>
</g>
<!-- public.favorite_release -->
<g id="node3" class="node">
<title>public.favorite_release</title>
<polygon fill="#efefef" stroke="none" points="436.22,-869.4 436.22,-905 739.12,-905 739.12,-869.4 436.22,-869.4"/>
<polygon fill="none" stroke="black" points="436.22,-869.4 436.22,-905 739.12,-905 739.12,-869.4 436.22,-869.4"/>
<text text-anchor="start" x="443.22" y="-882.8" font-family="Arial Bold" font-size="18.00">public.favorite_release</text>
<text text-anchor="start" x="607.63" y="-882.8" font-family="Arial" font-size="14.00">    </text>
<text text-anchor="start" x="638.75" y="-882.8" font-family="Arial" font-size="14.00" fill="#666666">[BASE TABLE]</text>
<polygon fill="none" stroke="black" points="436.22,-838.6 436.22,-869.4 739.12,-869.4 739.12,-838.6 436.22,-838.6"/>
<text text-anchor="start" x="443.22" y="-850.8" font-family="Arial" font-size="14.00">user_id </text>
<text text-anchor="start" x="493.02" y="-850.8" font-family="Arial" font-size="14.00" fill="#666666">[bigint]</text>
<polygon fill="none" stroke="black" points="436.22,-807.8 436.22,-838.6 739.12,-838.6 739.12,-807.8 436.22,-807.8"/>
<text text-anchor="start" x="443.22" y="-820" font-family="Arial" font-size="14.00">album_mbid </text>
<text text-anchor="start" x="523.37" y="-820" font-family="Arial" font-size="14.00" fill="#666666">[text]</text>
<polygon fill="none" stroke="black" points="436.22,-777 436.22,-807.8 739.12,-807.8 739.12,-777 436.22,-777"/>
<text text-anchor="start" x="443.22" y="-789.2" font-family="Arial" font-size="14.00">created_at </text>
<text text-anchor="start" x="513.26" y="-789.2" font-family="Arial" font-size="14.00" fill="#666666">[timestamp with time zone]</text>
</g>
<!-- public.favorite_release&#45;&gt;public.user -->
<g id="edge2" class="edge">
<title>public.favorite_release:user_id&#45;&gt;public.user:id</title>
<path fill="none" stroke="black" d="M750.12,-851.88C813.98,-822.28 733.13,-492.8 811.27,-492.8"/>
<polygon fill="black" stroke="black" points="750.23,-851.86 739.52,-849.53 745.01,-852.96 740.78,-853.86 740.78,-853.86 740.78,-853.86 745.01,-852.96 741.38,-858.33 750.23,-851.86"/>
<text text-anchor="start" x="747.12" y="-864" font-family="Arial" font-size="10.00">FOREIGN KEY (user_id) REFERENCES &quot;user&quot;(id) ON DELETE CASCADE</text>
</g>
<!-- public.session -->
<g id="node4" class="node">
<title>public.session</title>
<polygon fill="#efefef" stroke="none" points="843.78,-931 843.78,-966.6 1093.56,-966.6 1093.56,-931 843.78,-931"/>
<polygon fill="none" stroke="black" points="843.78,-931 843.78,-966.6 1093.56,-966.6 1093.56,-931 843.78,-931"/>
<text text-anchor="start" x="855.68" y="-944.4" font-family="Arial Bold" font-size="18.00">public.session</text>
<text text-anchor="start" x="957.17" y="-944.4" font-family="Arial" font-size="14.00">    </text>
<text text-anchor="start" x="988.29" y="-944.4" font-family="Arial" font-size="14.00" fill="#666666">[BASE TABLE]</text>
<polygon fill="none" stroke="black" points="843.78,-900.2 843.78,-931 1093.56,-931 1093.56,-900.2 843.78,-900.2"/>
<text text-anchor="start" x="850.78" y="-912.4" font-family="Arial" font-size="14.00">id </text>
<text text-anchor="start" x="865.57" y="-912.4" font-family="Arial" font-size="14.00" fill="#666666">[bigint]</text>
<polygon fill="none" stroke="black" points="843.78,-869.4 843.78,-900.2 1093.56,-900.2 1093.56,-869.4 843.78,-869.4"/>
<text text-anchor="start" x="850.78" y="-881.6" font-family="Arial" font-size="14.00">user_id </text>
<text text-anchor="start" x="900.59" y="-881.6" font-family="Arial" font-size="14.00" fill="#666666">[bigint]</text>
<polygon fill="none" stroke="black" points="843.78,-838.6 843.78,-869.4 1093.56,-869.4 1093.56,-838.6 843.78,-838.6"/>
<text text-anchor="start" x="850.78" y="-850.8" font-family="Arial" font-size="14.00">token </text>
<text text-anchor="start" x="888.92" y="-850.8" font-family="Arial" font-size="14.00" fill="#666666">[text]</text>
<polygon fill="none" stroke="black" points="843.78,-807.8 843.78,-838.6 1093.56,-838.6 1093.56,-807.8 843.78,-807.8"/>
<text text-anchor="start" x="850.78" y="-820" font-family="Arial" font-size="14.00">created_at </text>
<text text-anchor="start" x="920.83" y="-820" font-family="Arial" font-size="14.00" fill="#666666">[timestamp with time zone]</text>
<polygon fill="none" stroke="black" points="843.78,-777 843.78,-807.8 1093.56,-807.8 1093.56,-777 843.78,-777"/>
<text text-anchor="start" x="850.78" y="-789.2" font-family="Arial" font-size="14.00">expires_at </text>
<text text-anchor="start" x="919.27" y="-789.2" font-family="Arial" font-size="14.00" fill="#666666">[timestamp with time zone]</text>
<polygon fill="none" stroke="black" points="843.78,-746.2 843.78,-777 1093.56,-777 1093.56,-746.2 843.78,-746.2"/>
<text text-anchor="start" x="850.78" y="-758.4" font-family="Arial" font-size="14.00">user_agent </text>
<text text-anchor="start" x="924.73" y="-758.4" font-family="Arial" font-size="14.00" fill="#666666">[text]</text>
<polygon fill="none" stroke="black" points="843.78,-715.4 843.78,-746.2 1093.56,-746.2 1093.56,-715.4 843.78,-715.4"/>
<text text-anchor="start" x="850.78" y="-727.6" font-family="Arial" font-size="14.00">ip </text>
<text text-anchor="start" x="865.57" y="-727.6" font-family="Arial" font-size="14.00" fill="#666666">[text]</text>
</g>
<!-- public.session&#45;&gt;public.user -->
<g id="edge3" class="edge">
<title>public.session:user_id&#45;&gt;public.user:id</title>
<path fill="none" stroke="black" d="M1100.5,-876.25C1121.53,-818.92 1146,-492.8 1126.07,-492.8"/>
<polygon fill="black" stroke="black" points="1100.45,-876.31 1091.05,-881.96 1097.41,-880.69 1094.94,-884.25 1094.94,-884.25 1094.94,-884.25 1097.41,-880.69 1098.44,-887.09 1100.45,-876.31"/>
<text text-anchor="start" x="751.5" y="-894.8" font-family="Arial" font-size="10.00">FOREIGN KEY (user_id) REFERENCES &quot;user&quot;(id) ON DELETE CASCADE</text>
</g>
<!-- public.playlist -->
<g id="node5" class="node">
<title>public.playlist</title>
<polygon fill="#efefef" stroke="none" points="1197.83,-915.6 1197.83,-951.2 1451.51,-951.2 1451.51,-915.6 1197.83,-915.6"/>
<polygon fill="none" stroke="black" points="1197.83,-915.6 1197.83,-951.2 1451.51,-951.2 1451.51,-915.6 1197.83,-915.6"/>
<text text-anchor="start" x="1211.18" y="-929" font-family="Arial Bold" font-size="18.00">public.playlist</text>
<text text-anchor="start" x="1313.67" y="-929" font-family="Arial" font-size="14.00">    </text>
<text text-anchor="start" x="1344.79" y="-929" font-family="Arial" font-size="14.00" fill="#666666">[BASE TABLE]</text>
<polygon fill="none" stroke="black" points="1197.83,-884.8 1197.83,-915.6 1451.51,-915.6 1451.51,-884.8 1197.83,-884.8"/>
<text text-anchor="start" x="1204.83" y="-897" font-family="Arial" font-size="14.00">id </text>
<text text-anchor="start" x="1219.62" y="-897" font-family="Arial" font-size="14.00" fill="#666666">[bigint]</text>
<polygon fill="none" stroke="black" points="1197.83,-854 1197.83,-884.8 1451.51,-884.8 1451.51,-854 1197.83,-854"/>
<text text-anchor="start" x="1204.83" y="-866.2" font-family="Arial" font-size="14.00">user_id </text>
<text text-anchor="start" x="1254.64" y="-866.2" font-family="Arial" font-size="14.00" fill="#666666">[bigint]</text>
<polygon fill="none" stroke="black" points="1197.83,-823.2 1197.83,-854 1451.51,-854 1451.51,-823.2 1197.83,-823.2"/>
<text text-anchor="start" x="1204.83" y="-835.4" font-family="Arial" font-size="14.00">name </text>
<text text-anchor="start" x="1243.74" y="-835.4" font-family="Arial" font-size="14.00" fill="#666666">[text]</text>
<polygon fill="none" stroke="black" points="1197.83,-792.4 1197.83,-823.2 1451.51,-823.2 1451.51,-792.4 1197.83,-792.4"/>
<text text-anchor="start" x="1204.83" y="-804.6" font-family="Arial" font-size="14.00">description </text>
<text text-anchor="start" x="1276.42" y="-804.6" font-family="Arial" font-size="14.00" fill="#666666">[text]</text>
<polygon fill="none" stroke="black" points="1197.83,-761.6 1197.83,-792.4 1451.51,-792.4 1451.51,-761.6 1197.83,-761.6"/>
<text text-anchor="start" x="1204.83" y="-773.8" font-family="Arial" font-size="14.00">is_public </text>
<text text-anchor="start" x="1263.19" y="-773.8" font-family="Arial" font-size="14.00" fill="#666666">[boolean]</text>
<polygon fill="none" stroke="black" points="1197.83,-730.8 1197.83,-761.6 1451.51,-761.6 1451.51,-730.8 1197.83,-730.8"/>
<text text-anchor="start" x="1204.83" y="-743" font-family="Arial" font-size="14.00">updated_at </text>
<text text-anchor="start" x="1278.79" y="-743" font-family="Arial" font-size="14.00" fill="#666666">[timestamp with time zone]</text>
</g>
<!-- public.playlist&#45;&gt;public.user -->
<g id="edge4" class="edge">
<title>public.playlist:user_id&#45;&gt;public.user:id</title>
<path fill="none" stroke="black" d="M1186.85,-867.37C1119.89,-837.73 1207.57,-492.8 1126.07,-492.8"/>
<polygon fill="black" stroke="black" points="1186.7,-867.34 1195.61,-873.74 1191.93,-868.41 1196.17,-869.27 1196.17,-869.27 1196.17,-869.27 1191.93,-868.41 1197.4,-864.92 1186.7,-867.34"/>
<text text-anchor="start" x="941.28" y="-853.4" font-family="Arial" font-size="10.00">FOREIGN KEY (user_id) REFERENCES &quot;user&quot;(id) ON DELETE CASCADE</text>
</g>
<!-- public.auth_refresh_session -->
<g id="node6" class="node">
<title>public.auth_refresh_session</title>
<polygon fill="#efefef" stroke="none" points="1556.2,-977.2 1556.2,-1012.8 1895.14,-1012.8 1895.14,-977.2 1556.2,-977.2"/>
<polygon fill="none" stroke="black" points="1556.2,-977.2 1556.2,-1012.8 1895.14,-1012.8 1895.14,-977.2 1556.2,-977.2"/>
<text text-anchor="start" x="1563.2" y="-990.6" font-family="Arial Bold" font-size="18.00">public.auth_refresh_session</text>
<text text-anchor="start" x="1763.65" y="-990.6" font-family="Arial" font-size="14.00">    </text>
<text text-anchor="start" x="1794.77" y="-990.6" font-family="Arial" font-size="14.00" fill="#666666">[BASE TABLE]</text>
<polygon fill="none" stroke="black" points="1556.2,-946.4 1556.2,-977.2 1895.14,-977.2 1895.14,-946.4 1556.2,-946.4"/>
<text text-anchor="start" x="1563.2" y="-958.6" font-family="Arial" font-size="14.00">id </text>
<text text-anchor="start" x="1577.99" y="-958.6" font-family="Arial" font-size="14.00" fill="#666666">[bigint]</text>
<polygon fill="none" stroke="black" points="1556.2,-915.6 1556.2,-946.4 1895.14,-946.4 1895.14,-915.6 1556.2,-915.6"/>
<text text-anchor="start" x="1563.2" y="-927.8" font-family="Arial" font-size="14.00">user_id </text>
<text text-anchor="start" x="1613.01" y="-927.8" font-family="Arial" font-size="14.00" fill="#666666">[bigint]</text>
<polygon fill="none" stroke="black" points="1556.2,-884.8 1556.2,-915.6 1895.14,-915.6 1895.14,-884.8 1556.2,-884.8"/>
<text text-anchor="start" x="1563.2" y="-897" font-family="Arial" font-size="14.00">token_hash </text>
<text text-anchor="start" x="1639.48" y="-897" font-family="Arial" font-size="14.00" fill="#666666">[text]</text>
<polygon fill="none" stroke="black" points="1556.2,-854 1556.2,-884.8 1895.14,-884.8 1895.14,-854 1556.2,-854"/>
<text text-anchor="start" x="1563.2" y="-866.2" font-family="Arial" font-size="14.00">created_at </text>
<text text-anchor="start" x="1633.25" y="-866.2" font-family="Arial" font-size="14.00" fill="#666666">[timestamp with time zone]</text>
<polygon fill="none" stroke="black" points="1556.2,-823.2 1556.2,-854 1895.14,-854 1895.14,-823.2 1556.2,-823.2"/>
<text text-anchor="start" x="1563.2" y="-835.4" font-family="Arial" font-size="14.00">expires_at </text>
<text text-anchor="start" x="1631.68" y="-835.4" font-family="Arial" font-size="14.00" fill="#666666">[timestamp with time zone]</text>
<polygon fill="none" stroke="black" points="1556.2,-792.4 1556.2,-823.2 1895.14,-823.2 1895.14,-792.4 1556.2,-792.4"/>
<text text-anchor="start" x="1563.2" y="-804.6" font-family="Arial" font-size="14.00">revoked_at </text>
<text text-anchor="start" x="1636.36" y="-804.6" font-family="Arial" font-size="14.00" fill="#666666">[timestamp with time zone]</text>
<polygon fill="none" stroke="black" points="1556.2,-761.6 1556.2,-792.4 1895.14,-792.4 1895.14,-761.6 1556.2,-761.6"/>
<text text-anchor="start" x="1563.2" y="-773.8" font-family="Arial" font-size="14.00">last_used_at </text>
<text text-anchor="start" x="1646.48" y="-773.8" font-family="Arial" font-size="14.00" fill="#666666">[timestamp with time zone]</text>
<polygon fill="none" stroke="black" points="1556.2,-730.8 1556.2,-761.6 1895.14,-761.6 1895.14,-730.8 1556.2,-730.8"/>
<text text-anchor="start" x="1563.2" y="-743" font-family="Arial" font-size="14.00">user_agent </text>
<text text-anchor="start" x="1637.14" y="-743" font-family="Arial" font-size="14.00" fill="#666666">[text]</text>
<polygon fill="none" stroke="black" points="1556.2,-700 1556.2,-730.8 1895.14,-730.8 1895.14,-700 1556.2,-700"/>
<text text-anchor="start" x="1563.2" y="-712.2" font-family="Arial" font-size="14.00">ip </text>
<text text-anchor="start" x="1577.99" y="-712.2" font-family="Arial" font-size="14.00" fill="#666666">[text]</text>
<polygon fill="none" stroke="black" points="1556.2,-669.2 1556.2,-700 1895.14,-700 1895.14,-669.2 1556.2,-669.2"/>
<text text-anchor="start" x="1563.2" y="-681.4" font-family="Arial" font-size="14.00">family_id </text>
<text text-anchor="start" x="1622.33" y="-681.4" font-family="Arial" font-size="14.00" fill="#666666">[uuid]</text>
</g>
<!-- public.auth_refresh_session&#45;&gt;public.user -->
<g id="edge5" class="edge">
<title>public.auth_refresh_session:user_id&#45;&gt;public.user:id</title>
<path fill="none" stroke="black" d="M1545.05,-928.81C1492.87,-903.99 1545.51,-675.72 1503.67,-626 1446.38,-557.92 1215.05,-492.8 1126.07,-492.8"/>
<polygon fill="black" stroke="black" points="1545.1,-928.82 1553.92,-935.33 1550.31,-929.94 1554.55,-930.86 1554.55,-930.86 1554.55,-930.86 1550.31,-929.94 1555.82,-926.53 1545.1,-928.82"/>
<text text-anchor="start" x="1562.2" y="-941" font-family="Arial" font-size="10.00">FOREIGN KEY (user_id) REFERENCES &quot;user&quot;(id) ON DELETE CASCADE</text>
</g>
</g>
</svg>
