<?xml version="1.0" encoding="UTF-8" standalone="no"?>
<!DOCTYPE svg PUBLIC "-//W3C//DTD SVG 1.1//EN"
 "http://www.w3.org/Graphics/SVG/1.1/DTD/svg11.dtd">
<!-- Generated by graphviz version 12.1.2 (20240928.0832)
 -->
<!-- Title: public.artist Pages: 1 -->
<svg width="2752pt" height="941pt"
 viewBox="0.00 0.00 2752.38 940.80" xmlns="http://www.w3.org/2000/svg" xmlns:xlink="http://www.w3.org/1999/xlink">
<g id="graph0" class="graph" transform="scale(1 1) rotate(0) translate(4 936.8)">
<title>public.artist</title>
<polygon fill="white" stroke="none" points="-4,4 -4,-936.8 2748.38,-936.8 2748.38,4 -4,4"/>
<!-- public.artist -->
<g id="node1" class="node">
<title>public.artist</title>
<polygon fill="#efefef" stroke="none" points="1246.35,-323.4 1246.35,-359 1500.04,-359 1500.04,-323.4 1246.35,-323.4"/>
<polygon fill="none" stroke="black" points="1246.35,-323.4 1246.35,-359 1500.04,-359 1500.04,-323.4 1246.35,-323.4"/>
<text text-anchor="start" x="1268.21" y="-336.8" font-family="Arial Bold" font-size="18.00">public.artist</text>
<text text-anchor="start" x="1353.69" y="-336.8" font-family="Arial" font-size="14.00">    </text>
<text text-anchor="start" x="1384.81" y="-336.8" font-family="Arial" font-size="14.00" fill="#666666">[BASE TABLE]</text>
<polygon fill="none" stroke="black" points="1246.35,-292.6 1246.35,-323.4 1500.04,-323.4 1500.04,-292.6 1246.35,-292.6"/>
<text text-anchor="start" x="1253.35" y="-304.8" font-family="Arial" font-size="14.00">mbid </text>
<text text-anchor="start" x="1287.59" y="-304.8" font-family="Arial" font-size="14.00" fill="#666666">[text]</text>
<polygon fill="none" stroke="black" points="1246.35,-261.8 1246.35,-292.6 1500.04,-292.6 1500.04,-261.8 1246.35,-261.8"/>
<text text-anchor="start" x="1253.35" y="-274" font-family="Arial" font-size="14.00">name </text>
<text text-anchor="start" x="1292.26" y="-274" font-family="Arial" font-size="14.00" fill="#666666">[citext]</text>
<polygon fill="none" stroke="black" points="1246.35,-231 1246.35,-261.8 1500.04,-261.8 1500.04,-231 1246.35,-231"/>
<text text-anchor="start" x="1253.35" y="-243.2" font-family="Arial" font-size="14.00">sort_name </text>
<text text-anchor="start" x="1323.39" y="-243.2" font-family="Arial" font-size="14.00" fill="#666666">[text]</text>
<polygon fill="none" stroke="black" points="1246.35,-200.2 1246.35,-231 1500.04,-231 1500.04,-200.2 1246.35,-200.2"/>
<text text-anchor="start" x="1253.35" y="-212.4" font-family="Arial" font-size="14.00">bio </text>
<text text-anchor="start" x="1275.93" y="-212.4" font-family="Arial" font-size="14.00" fill="#666666">[text]</text>
<polygon fill="none" stroke="black" points="1246.35,-169.4 1246.35,-200.2 1500.04,-200.2 1500.04,-169.4 1246.35,-169.4"/>
<text text-anchor="start" x="1253.35" y="-181.6" font-family="Arial" font-size="14.00">image_url </text>
<text text-anchor="start" x="1318.72" y="-181.6" font-family="Arial" font-size="14.00" fill="#666666">[text]</text>
<polygon fill="none" stroke="black" points="1246.35,-138.6 1246.35,-169.4 1500.04,-169.4 1500.04,-138.6 1246.35,-138.6"/>
<text text-anchor="start" x="1253.35" y="-150.8" font-family="Arial" font-size="14.00">image_source </text>
<text text-anchor="start" x="1345.18" y="-150.8" font-family="Arial" font-size="14.00" fill="#666666">[text]</text>
<polygon fill="none" stroke="black" points="1246.35,-107.8 1246.35,-138.6 1500.04,-138.6 1500.04,-107.8 1246.35,-107.8"/>
<text text-anchor="start" x="1253.35" y="-120" font-family="Arial" font-size="14.00">artwork_id </text>
<text text-anchor="start" x="1321.82" y="-120" font-family="Arial" font-size="14.00" fill="#666666">[bigint]</text>
<polygon fill="none" stroke="black" points="1246.35,-77 1246.35,-107.8 1500.04,-107.8 1500.04,-77 1246.35,-77"/>
<text text-anchor="start" x="1253.35" y="-89.2" font-family="Arial" font-size="14.00">letter </text>
<text text-anchor="start" x="1288.37" y="-89.2" font-family="Arial" font-size="14.00" fill="#666666">[text]</text>
<polygon fill="none" stroke="black" points="1246.35,-46.2 1246.35,-77 1500.04,-77 1500.04,-46.2 1246.35,-46.2"/>
<text text-anchor="start" x="1253.35" y="-58.4" font-family="Arial" font-size="14.00">updated_at </text>
<text text-anchor="start" x="1327.31" y="-58.4" font-family="Arial" font-size="14.00" fill="#666666">[timestamp with time zone]</text>
<polygon fill="none" stroke="black" stroke-width="3" points="1244.85,-44.7 1244.85,-360.5 1501.54,-360.5 1501.54,-44.7 1244.85,-44.7"/>
</g>
<!-- public.artist_album -->
<g id="node2" class="node">
<title>public.artist_album</title>
<polygon fill="#efefef" stroke="none" points="96.21,-715.4 96.21,-751 374.18,-751 374.18,-715.4 96.21,-715.4"/>
<polygon fill="none" stroke="black" points="96.21,-715.4 96.21,-751 374.18,-751 374.18,-715.4 96.21,-715.4"/>
<text text-anchor="start" x="103.21" y="-728.8" font-family="Arial Bold" font-size="18.00">public.artist_album</text>
<text text-anchor="start" x="242.69" y="-728.8" font-family="Arial" font-size="14.00">    </text>
<text text-anchor="start" x="273.8" y="-728.8" font-family="Arial" font-size="14.00" fill="#666666">[BASE TABLE]</text>
<polygon fill="none" stroke="black" points="96.21,-684.6 96.21,-715.4 374.18,-715.4 374.18,-684.6 96.21,-684.6"/>
<text text-anchor="start" x="103.21" y="-696.8" font-family="Arial" font-size="14.00">artist_mbid </text>
<text text-anchor="start" x="175.57" y="-696.8" font-family="Arial" font-size="14.00" fill="#666666">[text]</text>
<polygon fill="none" stroke="black" points="96.21,-653.8 96.21,-684.6 374.18,-684.6 374.18,-653.8 96.21,-653.8"/>
<text text-anchor="start" x="103.21" y="-666" font-family="Arial" font-size="14.00">album_mbid </text>
<text text-anchor="start" x="183.37" y="-666" font-family="Arial" font-size="14.00" fill="#666666">[text]</text>
<polygon fill="none" stroke="black" points="96.21,-623 96.21,-653.8 374.18,-653.8 374.18,-623 96.21,-623"/>
<text text-anchor="start" x="103.21" y="-635.2" font-family="Arial" font-size="14.00">type </text>
<text text-anchor="start" x="133.57" y="-635.2" font-family="Arial" font-size="14.00" fill="#666666">[text]</text>
</g>
<!-- public.artist_album&#45;&gt;public.artist -->
<g id="edge1" class="edge">
<title>public.artist_album:artist_mbid&#45;&gt;public.artist:mbid</title>
<path fill="none" stroke="black" d="M385.4,-699.49C483.24,-689.01 344.56,-520.15 426.2,-441.2 558.77,-312.99 1060.93,-308 1245.35,-308"/>
<polygon fill="black" stroke="black" points="385.5,-699.48 375.29,-695.49 380.17,-699.75 375.84,-699.97 375.84,-699.97 375.84,-699.97 380.17,-699.75 375.74,-704.48 385.5,-699.48"/>
<text text-anchor="start" x="7" y="-710" font-family="Arial" font-size="10.00">FOREIGN KEY (artist_mbid) REFERENCES artist(mbid) ON DELETE CASCADE</text>
</g>
<!-- public.track_artist -->
<g id="node3" class="node">
<title>public.track_artist</title>
<polygon fill="#efefef" stroke="none" points="478.72,-700 478.72,-735.6 747.67,-735.6 747.67,-700 478.72,-700"/>
<polygon fill="none" stroke="black" points="478.72,-700 478.72,-735.6 747.67,-735.6 747.67,-700 478.72,-700"/>
<text text-anchor="start" x="485.72" y="-713.4" font-family="Arial Bold" font-size="18.00">public.track_artist</text>
<text text-anchor="start" x="616.18" y="-713.4" font-family="Arial" font-size="14.00">    </text>
<text text-anchor="start" x="647.3" y="-713.4" font-family="Arial" font-size="14.00" fill="#666666">[BASE TABLE]</text>
<polygon fill="none" stroke="black" points="478.72,-669.2 478.72,-700 747.67,-700 747.67,-669.2 478.72,-669.2"/>
<text text-anchor="start" x="485.72" y="-681.4" font-family="Arial" font-size="14.00">track_id </text>
<text text-anchor="start" x="538.63" y="-681.4" font-family="Arial" font-size="14.00" fill="#666666">[bigint]</text>
<polygon fill="none" stroke="black" points="478.72,-638.4 478.72,-669.2 747.67,-669.2 747.67,-638.4 478.72,-638.4"/>
<text text-anchor="start" x="485.72" y="-650.6" font-family="Arial" font-size="14.00">artist_mbid </text>
<text text-anchor="start" x="558.08" y="-650.6" font-family="Arial" font-size="14.00" fill="#666666">[text]</text>
</g>
<!-- public.track_artist&#45;&gt;public.artist -->
<g id="edge2" class="edge">
<title>public.track_artist:artist_mbid&#45;&gt;public.artist:mbid</title>
<path fill="none" stroke="black" d="M758.63,-653.22C837.63,-643.36 734.97,-509.18 799.2,-441.2 870.25,-365.99 1141.88,-308 1245.35,-308"/>
<polygon fill="black" stroke="black" points="758.99,-653.2 748.74,-649.29 753.66,-653.51 749.34,-653.76 749.34,-653.76 749.34,-653.76 753.66,-653.51 749.26,-658.27 758.99,-653.2"/>
<text text-anchor="start" x="755.67" y="-663.8" font-family="Arial" font-size="10.00">FOREIGN KEY (artist_mbid) REFERENCES artist(mbid) ON DELETE CASCADE</text>
</g>
<!-- public.favorite_artist -->
<g id="node4" class="node">
<title>public.favorite_artist</title>
<polygon fill="#efefef" stroke="none" points="851.73,-715.4 851.73,-751 1140.67,-751 1140.67,-715.4 851.73,-715.4"/>
<polygon fill="none" stroke="black" points="851.73,-715.4 851.73,-751 1140.67,-751 1140.67,-715.4 851.73,-715.4"/>
<text text-anchor="start" x="858.73" y="-728.8" font-family="Arial Bold" font-size="18.00">public.favorite_artist</text>
<text text-anchor="start" x="1009.18" y="-728.8" font-family="Arial" font-size="14.00">    </text>
<text text-anchor="start" x="1040.29" y="-728.8" font-family="Arial" font-size="14.00" fill="#666666">[BASE TABLE]</text>
<polygon fill="none" stroke="black" points="851.73,-684.6 851.73,-715.4 1140.67,-715.4 1140.67,-684.6 851.73,-684.6"/>
<text text-anchor="start" x="858.73" y="-696.8" font-family="Arial" font-size="14.00">user_id </text>
<text text-anchor="start" x="908.53" y="-696.8" font-family="Arial" font-size="14.00" fill="#666666">[bigint]</text>
<polygon fill="none" stroke="black" points="851.73,-653.8 851.73,-684.6 1140.67,-684.6 1140.67,-653.8 851.73,-653.8"/>
<text text-anchor="start" x="858.73" y="-666" font-family="Arial" font-size="14.00">artist_mbid </text>
<text text-anchor="start" x="931.08" y="-666" font-family="Arial" font-size="14.00" fill="#666666">[text]</text>
<polygon fill="none" stroke="black" points="851.73,-623 851.73,-653.8 1140.67,-653.8 1140.67,-623 851.73,-623"/>
<text text-anchor="start" x="858.73" y="-635.2" font-family="Arial" font-size="14.00">created_at </text>
<text text-anchor="start" x="928.77" y="-635.2" font-family="Arial" font-size="14.00" fill="#666666">[timestamp with time zone]</text>
</g>
<!-- public.favorite_artist&#45;&gt;public.artist -->
<g id="edge3" class="edge">
<title>public.favorite_artist:artist_mbid&#45;&gt;public.artist:mbid</title>
<path fill="none" stroke="black" d="M1151.65,-666.66C1191.56,-644.76 1179.03,-487.37 1193.2,-441.2 1211.85,-380.42 1181.78,-308 1245.35,-308"/>
<polygon fill="black" stroke="black" points="1151.68,-666.65 1140.88,-664.76 1146.51,-667.97 1142.31,-669.04 1142.31,-669.04 1142.31,-669.04 1146.51,-667.97 1143.1,-673.48 1151.68,-666.65"/>
<text text-anchor="start" x="1148.67" y="-679.2" font-family="Arial" font-size="10.00">FOREIGN KEY (artist_mbid) REFERENCES artist(mbid) ON DELETE CASCADE</text>
</g>
<!-- public.top_track -->
<g id="node5" class="node">
<title>public.top_track</title>
<polygon fill="#efefef" stroke="none" points="1245.22,-854 1245.22,-889.6 1501.17,-889.6 1501.17,-854 1245.22,-854"/>
<polygon fill="none" stroke="black" points="1245.22,-854 1245.22,-889.6 1501.17,-889.6 1501.17,-854 1245.22,-854"/>
<text text-anchor="start" x="1252.22" y="-867.4" font-family="Arial Bold" font-size="18.00">public.top_track</text>
<text text-anchor="start" x="1369.68" y="-867.4" font-family="Arial" font-size="14.00">    </text>
<text text-anchor="start" x="1400.8" y="-867.4" font-family="Arial" font-size="14.00" fill="#666666">[BASE TABLE]</text>
<polygon fill="none" stroke="black" points="1245.22,-823.2 1245.22,-854 1501.17,-854 1501.17,-823.2 1245.22,-823.2"/>
<text text-anchor="start" x="1252.22" y="-835.4" font-family="Arial" font-size="14.00">id </text>
<text text-anchor="start" x="1267" y="-835.4" font-family="Arial" font-size="14.00" fill="#666666">[bigint]</text>
<polygon fill="none" stroke="black" points="1245.22,-792.4 1245.22,-823.2 1501.17,-823.2 1501.17,-792.4 1245.22,-792.4"/>
<text text-anchor="start" x="1252.22" y="-804.6" font-family="Arial" font-size="14.00">artist_mbid </text>
<text text-anchor="start" x="1324.58" y="-804.6" font-family="Arial" font-size="14.00" fill="#666666">[text]</text>
<polygon fill="none" stroke="black" points="1245.22,-761.6 1245.22,-792.4 1501.17,-792.4 1501.17,-761.6 1245.22,-761.6"/>
<text text-anchor="start" x="1252.22" y="-773.8" font-family="Arial" font-size="14.00">type </text>
<text text-anchor="start" x="1282.57" y="-773.8" font-family="Arial" font-size="14.00" fill="#666666">[text]</text>
<polygon fill="none" stroke="black" points="1245.22,-730.8 1245.22,-761.6 1501.17,-761.6 1501.17,-730.8 1245.22,-730.8"/>
<text text-anchor="start" x="1252.22" y="-743" font-family="Arial" font-size="14.00">track_id </text>
<text text-anchor="start" x="1305.13" y="-743" font-family="Arial" font-size="14.00" fill="#666666">[bigint]</text>
<polygon fill="none" stroke="black" points="1245.22,-700 1245.22,-730.8 1501.17,-730.8 1501.17,-700 1245.22,-700"/>
<text text-anchor="start" x="1252.22" y="-712.2" font-family="Arial" font-size="14.00">external_name </text>
<text text-anchor="start" x="1348.72" y="-712.2" font-family="Arial" font-size="14.00" fill="#666666">[text]</text>
<polygon fill="none" stroke="black" points="1245.22,-669.2 1245.22,-700 1501.17,-700 1501.17,-669.2 1245.22,-669.2"/>
<text text-anchor="start" x="1252.22" y="-681.4" font-family="Arial" font-size="14.00">external_album </text>
<text text-anchor="start" x="1351.83" y="-681.4" font-family="Arial" font-size="14.00" fill="#666666">[text]</text>
<polygon fill="none" stroke="black" points="1245.22,-638.4 1245.22,-669.2 1501.17,-669.2 1501.17,-638.4 1245.22,-638.4"/>
<text text-anchor="start" x="1252.22" y="-650.6" font-family="Arial" font-size="14.00">external_date </text>
<text text-anchor="start" x="1340.95" y="-650.6" font-family="Arial" font-size="14.00" fill="#666666">[text]</text>
<polygon fill="none" stroke="black" points="1245.22,-607.6 1245.22,-638.4 1501.17,-638.4 1501.17,-607.6 1245.22,-607.6"/>
<text text-anchor="start" x="1252.22" y="-619.8" font-family="Arial" font-size="14.00">external_duration_ms </text>
<text text-anchor="start" x="1390.74" y="-619.8" font-family="Arial" font-size="14.00" fill="#666666">[integer]</text>
<polygon fill="none" stroke="black" points="1245.22,-576.8 1245.22,-607.6 1501.17,-607.6 1501.17,-576.8 1245.22,-576.8"/>
<text text-anchor="start" x="1252.22" y="-589" font-family="Arial" font-size="14.00">external_mbid </text>
<text text-anchor="start" x="1344.04" y="-589" font-family="Arial" font-size="14.00" fill="#666666">[text]</text>
<polygon fill="none" stroke="black" points="1245.22,-546 1245.22,-576.8 1501.17,-576.8 1501.17,-546 1245.22,-546"/>
<text text-anchor="start" x="1252.22" y="-558.2" font-family="Arial" font-size="14.00">popularity </text>
<text text-anchor="start" x="1316.81" y="-558.2" font-family="Arial" font-size="14.00" fill="#666666">[integer]</text>
<polygon fill="none" stroke="black" points="1245.22,-515.2 1245.22,-546 1501.17,-546 1501.17,-515.2 1245.22,-515.2"/>
<text text-anchor="start" x="1252.22" y="-527.4" font-family="Arial" font-size="14.00">rank </text>
<text text-anchor="start" x="1283.34" y="-527.4" font-family="Arial" font-size="14.00" fill="#666666">[integer]</text>
<polygon fill="none" stroke="black" points="1245.22,-484.4 1245.22,-515.2 1501.17,-515.2 1501.17,-484.4 1245.22,-484.4"/>
<text text-anchor="start" x="1252.22" y="-496.6" font-family="Arial" font-size="14.00">updated_at </text>
<text text-anchor="start" x="1326.18" y="-496.6" font-family="Arial" font-size="14.00" fill="#666666">[timestamp with time zone]</text>
</g>
<!-- public.top_track&#45;&gt;public.artist -->
<g id="edge4" class="edge">
<title>public.top_track:artist_mbid&#45;&gt;public.artist:mbid</title>
<path fill="none" stroke="black" d="M1511.35,-802.85C1557.39,-750.95 1553.32,-308 1501.04,-308"/>
<polygon fill="black" stroke="black" points="1511.27,-802.9 1500.33,-803.68 1506.57,-805.43 1502.76,-807.48 1502.76,-807.48 1502.76,-807.48 1506.57,-805.43 1504.6,-811.6 1511.27,-802.9"/>
<text text-anchor="start" x="1509.17" y="-817.8" font-family="Arial" font-size="10.00">FOREIGN KEY (artist_mbid) REFERENCES artist(mbid) ON DELETE CASCADE</text>
</g>
<!-- public.similar_artist -->
<g id="node6" class="node">
<title>public.similar_artist</title>
<polygon fill="#efefef" stroke="none" points="1605.71,-746.2 1605.71,-781.8 1888.68,-781.8 1888.68,-746.2 1605.71,-746.2"/>
<polygon fill="none" stroke="black" points="1605.71,-746.2 1605.71,-781.8 1888.68,-781.8 1888.68,-746.2 1605.71,-746.2"/>
<text text-anchor="start" x="1612.71" y="-759.6" font-family="Arial Bold" font-size="18.00">public.similar_artist</text>
<text text-anchor="start" x="1757.19" y="-759.6" font-family="Arial" font-size="14.00">    </text>
<text text-anchor="start" x="1788.31" y="-759.6" font-family="Arial" font-size="14.00" fill="#666666">[BASE TABLE]</text>
<polygon fill="none" stroke="black" points="1605.71,-715.4 1605.71,-746.2 1888.68,-746.2 1888.68,-715.4 1605.71,-715.4"/>
<text text-anchor="start" x="1612.71" y="-727.6" font-family="Arial" font-size="14.00">artist_mbid </text>
<text text-anchor="start" x="1685.07" y="-727.6" font-family="Arial" font-size="14.00" fill="#666666">[text]</text>
<polygon fill="none" stroke="black" points="1605.71,-684.6 1605.71,-715.4 1888.68,-715.4 1888.68,-684.6 1605.71,-684.6"/>
<text text-anchor="start" x="1612.71" y="-696.8" font-family="Arial" font-size="14.00">similar_artist_name </text>
<text text-anchor="start" x="1737.98" y="-696.8" font-family="Arial" font-size="14.00" fill="#666666">[text]</text>
<polygon fill="none" stroke="black" points="1605.71,-653.8 1605.71,-684.6 1888.68,-684.6 1888.68,-653.8 1605.71,-653.8"/>
<text text-anchor="start" x="1612.71" y="-666" font-family="Arial" font-size="14.00">similar_artist_mbid </text>
<text text-anchor="start" x="1733.3" y="-666" font-family="Arial" font-size="14.00" fill="#666666">[text]</text>
<polygon fill="none" stroke="black" points="1605.71,-623 1605.71,-653.8 1888.68,-653.8 1888.68,-623 1605.71,-623"/>
<text text-anchor="start" x="1612.71" y="-635.2" font-family="Arial" font-size="14.00">rank </text>
<text text-anchor="start" x="1643.84" y="-635.2" font-family="Arial" font-size="14.00" fill="#666666">[integer]</text>
<polygon fill="none" stroke="black" points="1605.71,-592.2 1605.71,-623 1888.68,-623 1888.68,-592.2 1605.71,-592.2"/>
<text text-anchor="start" x="1612.71" y="-604.4" font-family="Arial" font-size="14.00">updated_at </text>
<text text-anchor="start" x="1686.67" y="-604.4" font-family="Arial" font-size="14.00" fill="#666666">[timestamp with time zone]</text>
</g>
<!-- public.similar_artist&#45;&gt;public.artist -->
<g id="edge5" class="edge">
<title>public.similar_artist:artist_mbid&#45;&gt;public.artist:mbid</title>
<path fill="none" stroke="black" d="M1594.51,-728.69C1542.77,-705.65 1569.92,-500.55 1553.2,-441.2 1535.95,-380.01 1564.61,-308 1501.04,-308"/>
<polygon fill="black" stroke="black" points="1594.59,-728.71 1603.47,-735.14 1599.82,-729.79 1604.06,-730.66 1604.06,-730.66 1604.06,-730.66 1599.82,-729.79 1605.3,-726.33 1594.59,-728.71"/>
<text text-anchor="start" x="1330.33" y="-714.8" font-family="Arial" font-size="10.00">FOREIGN KEY (artist_mbid) REFERENCES artist(mbid) ON DELETE CASCADE</text>
</g>
<!-- public.artist_genre -->
<g id="node7" class="node">
<title>public.artist_genre</title>
<polygon fill="#efefef" stroke="none" points="1992.72,-730.8 1992.72,-766.4 2265.67,-766.4 2265.67,-730.8 1992.72,-730.8"/>
<polygon fill="none" stroke="black" points="1992.72,-730.8 1992.72,-766.4 2265.67,-766.4 2265.67,-730.8 1992.72,-730.8"/>
<text text-anchor="start" x="1999.72" y="-744.2" font-family="Arial Bold" font-size="18.00">public.artist_genre</text>
<text text-anchor="start" x="2134.18" y="-744.2" font-family="Arial" font-size="14.00">    </text>
<text text-anchor="start" x="2165.3" y="-744.2" font-family="Arial" font-size="14.00" fill="#666666">[BASE TABLE]</text>
<polygon fill="none" stroke="black" points="1992.72,-700 1992.72,-730.8 2265.67,-730.8 2265.67,-700 1992.72,-700"/>
<text text-anchor="start" x="1999.72" y="-712.2" font-family="Arial" font-size="14.00">artist_mbid </text>
<text text-anchor="start" x="2072.08" y="-712.2" font-family="Arial" font-size="14.00" fill="#666666">[text]</text>
<polygon fill="none" stroke="black" points="1992.72,-669.2 1992.72,-700 2265.67,-700 2265.67,-669.2 1992.72,-669.2"/>
<text text-anchor="start" x="1999.72" y="-681.4" font-family="Arial" font-size="14.00">genre </text>
<text text-anchor="start" x="2039.42" y="-681.4" font-family="Arial" font-size="14.00" fill="#666666">[text]</text>
<polygon fill="none" stroke="black" points="1992.72,-638.4 1992.72,-669.2 2265.67,-669.2 2265.67,-638.4 1992.72,-638.4"/>
<text text-anchor="start" x="1999.72" y="-650.6" font-family="Arial" font-size="14.00">count </text>
<text text-anchor="start" x="2037.86" y="-650.6" font-family="Arial" font-size="14.00" fill="#666666">[integer]</text>
<polygon fill="none" stroke="black" points="1992.72,-607.6 1992.72,-638.4 2265.67,-638.4 2265.67,-607.6 1992.72,-607.6"/>
<text text-anchor="start" x="1999.72" y="-619.8" font-family="Arial" font-size="14.00">updated_at </text>
<text text-anchor="start" x="2073.68" y="-619.8" font-family="Arial" font-size="14.00" fill="#666666">[timestamp with time zone]</text>
</g>
<!-- public.artist_genre&#45;&gt;public.artist -->
<g id="edge6" class="edge">
<title>public.artist_genre:artist_mbid&#45;&gt;public.artist:mbid</title>
<path fill="none" stroke="black" d="M1981.54,-714.94C1876.74,-704.82 2021.37,-530.87 1941.2,-441.2 1873.08,-365.02 1603.23,-308 1501.04,-308"/>
<polygon fill="black" stroke="black" points="1981.4,-714.93 1991.19,-719.88 1986.73,-715.17 1991.05,-715.37 1991.05,-715.37 1991.05,-715.37 1986.73,-715.17 1991.59,-710.89 1981.4,-714.93"/>
<text text-anchor="start" x="1998.72" y="-725.4" font-family="Arial" font-size="10.00">FOREIGN KEY (artist_mbid) REFERENCES artist(mbid) ON DELETE CASCADE</text>
</g>
<!-- public.missing_album -->
<g id="node8" class="node">
<title>public.missing_album</title>
<polygon fill="#efefef" stroke="none" points="2370.2,-792.4 2370.2,-828 2668.19,-828 2668.19,-792.4 2370.2,-792.4"/>
<polygon fill="none" stroke="black" points="2370.2,-792.4 2370.2,-828 2668.19,-828 2668.19,-792.4 2370.2,-792.4"/>
<text text-anchor="start" x="2377.2" y="-805.8" font-family="Arial Bold" font-size="18.00">public.missing_album</text>
<text text-anchor="start" x="2536.7" y="-805.8" font-family="Arial" font-size="14.00">    </text>
<text text-anchor="start" x="2567.82" y="-805.8" font-family="Arial" font-size="14.00" fill="#666666">[BASE TABLE]</text>
<polygon fill="none" stroke="black" points="2370.2,-761.6 2370.2,-792.4 2668.19,-792.4 2668.19,-761.6 2370.2,-761.6"/>
<text text-anchor="start" x="2377.2" y="-773.8" font-family="Arial" font-size="14.00">id </text>
<text text-anchor="start" x="2391.99" y="-773.8" font-family="Arial" font-size="14.00" fill="#666666">[bigint]</text>
<polygon fill="none" stroke="black" points="2370.2,-730.8 2370.2,-761.6 2668.19,-761.6 2668.19,-730.8 2370.2,-730.8"/>
<text text-anchor="start" x="2377.2" y="-743" font-family="Arial" font-size="14.00">artist_mbid </text>
<text text-anchor="start" x="2449.56" y="-743" font-family="Arial" font-size="14.00" fill="#666666">[text]</text>
<polygon fill="none" stroke="black" points="2370.2,-700 2370.2,-730.8 2668.19,-730.8 2668.19,-700 2370.2,-700"/>
<text text-anchor="start" x="2377.2" y="-712.2" font-family="Arial" font-size="14.00">release_group_mbid </text>
<text text-anchor="start" x="2508.73" y="-712.2" font-family="Arial" font-size="14.00" fill="#666666">[text]</text>
<polygon fill="none" stroke="black" points="2370.2,-669.2 2370.2,-700 2668.19,-700 2668.19,-669.2 2370.2,-669.2"/>
<text text-anchor="start" x="2377.2" y="-681.4" font-family="Arial" font-size="14.00">title </text>
<text text-anchor="start" x="2402.88" y="-681.4" font-family="Arial" font-size="14.00" fill="#666666">[text]</text>
<polygon fill="none" stroke="black" points="2370.2,-638.4 2370.2,-669.2 2668.19,-669.2 2668.19,-638.4 2370.2,-638.4"/>
<text text-anchor="start" x="2377.2" y="-650.6" font-family="Arial" font-size="14.00">release_date </text>
<text text-anchor="start" x="2462.04" y="-650.6" font-family="Arial" font-size="14.00" fill="#666666">[text]</text>
<polygon fill="none" stroke="black" points="2370.2,-607.6 2370.2,-638.4 2668.19,-638.4 2668.19,-607.6 2370.2,-607.6"/>
<text text-anchor="start" x="2377.2" y="-619.8" font-family="Arial" font-size="14.00">primary_type </text>
<text text-anchor="start" x="2462.01" y="-619.8" font-family="Arial" font-size="14.00" fill="#666666">[text]</text>
<polygon fill="none" stroke="black" points="2370.2,-576.8 2370.2,-607.6 2668.19,-607.6 2668.19,-576.8 2370.2,-576.8"/>
<text text-anchor="start" x="2377.2" y="-589" font-family="Arial" font-size="14.00">musicbrainz_url </text>
<text text-anchor="start" x="2479.13" y="-589" font-family="Arial" font-size="14.00" fill="#666666">[text]</text>
<polygon fill="none" stroke="black" points="2370.2,-546 2370.2,-576.8 2668.19,-576.8 2668.19,-546 2370.2,-546"/>
<text text-anchor="start" x="2377.2" y="-558.2" font-family="Arial" font-size="14.00">updated_at </text>
<text text-anchor="start" x="2451.16" y="-558.2" font-family="Arial" font-size="14.00" fill="#666666">[timestamp with time zone]</text>
</g>
<!-- public.missing_album&#45;&gt;public.artist -->
<g id="edge7" class="edge">
<title>public.missing_album:artist_mbid&#45;&gt;public.artist:mbid</title>
<path fill="none" stroke="black" d="M2359.1,-743.97C2307.4,-718.77 2364.22,-487.04 2318.2,-441.2 2187.83,-311.37 1685.02,-308 1501.04,-308"/>
<polygon fill="black" stroke="black" points="2359.11,-743.98 2367.91,-750.52 2364.32,-745.12 2368.55,-746.06 2368.55,-746.06 2368.55,-746.06 2364.32,-745.12 2369.84,-741.73 2359.11,-743.98"/>
<text text-anchor="start" x="2376.2" y="-756.2" font-family="Arial" font-size="10.00">FOREIGN KEY (artist_mbid) REFERENCES artist(mbid) ON DELETE CASCADE</text>
</g>
</g>
</svg>
