<?xml version="1.0" encoding="UTF-8" standalone="no"?>
<!DOCTYPE svg PUBLIC "-//W3C//DTD SVG 1.1//EN"
 "http://www.w3.org/Graphics/SVG/1.1/DTD/svg11.dtd">
<!-- Generated by graphviz version 12.1.2 (20240928.0832)
 -->
<!-- Title: public.client_session Pages: 1 -->
<svg width="389pt" height="259pt"
 viewBox="0.00 0.00 389.37 259.20" xmlns="http://www.w3.org/2000/svg" xmlns:xlink="http://www.w3.org/1999/xlink">
<g id="graph0" class="graph" transform="scale(1 1) rotate(0) translate(4 255.2)">
<title>public.client_session</title>
<polygon fill="white" stroke="none" points="-4,4 -4,-255.2 385.37,-255.2 385.37,4 -4,4"/>
<!-- public.client_session -->
<g id="node1" class="node">
<title>public.client_session</title>
<polygon fill="#efefef" stroke="none" points="46.2,-169.4 46.2,-205 335.17,-205 335.17,-169.4 46.2,-169.4"/>
<polygon fill="none" stroke="black" points="46.2,-169.4 46.2,-205 335.17,-205 335.17,-169.4 46.2,-169.4"/>
<text text-anchor="start" x="53.2" y="-182.8" font-family="Arial Bold" font-size="18.00">public.client_session</text>
<text text-anchor="start" x="203.68" y="-182.8" font-family="Arial" font-size="14.00">    </text>
<text text-anchor="start" x="234.79" y="-182.8" font-family="Arial" font-size="14.00" fill="#666666">[BASE TABLE]</text>
<polygon fill="none" stroke="black" points="46.2,-138.6 46.2,-169.4 335.17,-169.4 335.17,-138.6 46.2,-138.6"/>
<text text-anchor="start" x="53.2" y="-150.8" font-family="Arial" font-size="14.00">client_id </text>
<text text-anchor="start" x="108.45" y="-150.8" font-family="Arial" font-size="14.00" fill="#666666">[text]</text>
<polygon fill="none" stroke="black" points="46.2,-107.8 46.2,-138.6 335.17,-138.6 335.17,-107.8 46.2,-107.8"/>
<text text-anchor="start" x="53.2" y="-120" font-family="Arial" font-size="14.00">active_renderer_udn </text>
<text text-anchor="start" x="185.51" y="-120" font-family="Arial" font-size="14.00" fill="#666666">[text]</text>
<polygon fill="none" stroke="black" points="46.2,-77 46.2,-107.8 335.17,-107.8 335.17,-77 46.2,-77"/>
<text text-anchor="start" x="53.2" y="-89.2" font-family="Arial" font-size="14.00">active_renderer_id </text>
<text text-anchor="start" x="173.05" y="-89.2" font-family="Arial" font-size="14.00" fill="#666666">[text]</text>
<polygon fill="none" stroke="black" points="46.2,-46.2 46.2,-77 335.17,-77 335.17,-46.2 46.2,-46.2"/>
<text text-anchor="start" x="53.2" y="-58.4" font-family="Arial" font-size="14.00">last_seen_at </text>
<text text-anchor="start" x="136.48" y="-58.4" font-family="Arial" font-size="14.00" fill="#666666">[timestamp with time zone]</text>
<polygon fill="none" stroke="black" stroke-width="3" points="44.7,-44.7 44.7,-206.5 336.67,-206.5 336.67,-44.7 44.7,-44.7"/>
</g>
</g>
</svg>
