<?xml version="1.0" encoding="UTF-8" standalone="no"?>
<!DOCTYPE svg PUBLIC "-//W3C//DTD SVG 1.1//EN"
 "http://www.w3.org/Graphics/SVG/1.1/DTD/svg11.dtd">
<!-- Generated by graphviz version 12.1.2 (20240928.0832)
 -->
<!-- Title: public.similar_artist Pages: 1 -->
<svg width="713pt" height="725pt"
 viewBox="0.00 0.00 713.34 725.20" xmlns="http://www.w3.org/2000/svg" xmlns:xlink="http://www.w3.org/1999/xlink">
<g id="graph0" class="graph" transform="scale(1 1) rotate(0) translate(4 721.2)">
<title>public.similar_artist</title>
<polygon fill="white" stroke="none" points="-4,4 -4,-721.2 709.34,-721.2 709.34,4 -4,4"/>
<!-- public.similar_artist -->
<g id="node1" class="node">
<title>public.similar_artist</title>
<polygon fill="#efefef" stroke="none" points="46.2,-635.4 46.2,-671 329.16,-671 329.16,-635.4 46.2,-635.4"/>
<polygon fill="none" stroke="black" points="46.2,-635.4 46.2,-671 329.16,-671 329.16,-635.4 46.2,-635.4"/>
<text text-anchor="start" x="53.2" y="-648.8" font-family="Arial Bold" font-size="18.00">public.similar_artist</text>
<text text-anchor="start" x="197.67" y="-648.8" font-family="Arial" font-size="14.00">    </text>
<text text-anchor="start" x="228.79" y="-648.8" font-family="Arial" font-size="14.00" fill="#666666">[BASE TABLE]</text>
<polygon fill="none" stroke="black" points="46.2,-604.6 46.2,-635.4 329.16,-635.4 329.16,-604.6 46.2,-604.6"/>
<text text-anchor="start" x="53.2" y="-616.8" font-family="Arial" font-size="14.00">artist_mbid </text>
<text text-anchor="start" x="125.56" y="-616.8" font-family="Arial" font-size="14.00" fill="#666666">[text]</text>
<polygon fill="none" stroke="black" points="46.2,-573.8 46.2,-604.6 329.16,-604.6 329.16,-573.8 46.2,-573.8"/>
<text text-anchor="start" x="53.2" y="-586" font-family="Arial" font-size="14.00">similar_artist_name </text>
<text text-anchor="start" x="178.46" y="-586" font-family="Arial" font-size="14.00" fill="#666666">[text]</text>
<polygon fill="none" stroke="black" points="46.2,-543 46.2,-573.8 329.16,-573.8 329.16,-543 46.2,-543"/>
<text text-anchor="start" x="53.2" y="-555.2" font-family="Arial" font-size="14.00">similar_artist_mbid </text>
<text text-anchor="start" x="173.79" y="-555.2" font-family="Arial" font-size="14.00" fill="#666666">[text]</text>
<polygon fill="none" stroke="black" points="46.2,-512.2 46.2,-543 329.16,-543 329.16,-512.2 46.2,-512.2"/>
<text text-anchor="start" x="53.2" y="-524.4" font-family="Arial" font-size="14.00">rank </text>
<text text-anchor="start" x="84.32" y="-524.4" font-family="Arial" font-size="14.00" fill="#666666">[integer]</text>
<polygon fill="none" stroke="black" points="46.2,-481.4 46.2,-512.2 329.16,-512.2 329.16,-481.4 46.2,-481.4"/>
<text text-anchor="start" x="53.2" y="-493.6" font-family="Arial" font-size="14.00">updated_at </text>
<text text-anchor="start" x="127.16" y="-493.6" font-family="Arial" font-size="14.00" fill="#666666">[timestamp with time zone]</text>
<polygon fill="none" stroke="black" stroke-width="3" points="44.7,-479.9 44.7,-672.5 330.66,-672.5 330.66,-479.9 44.7,-479.9"/>
</g>
<!-- public.artist -->
<g id="node2" class="node">
<title>public.artist</title>
<polygon fill="#efefef" stroke="none" points="60.84,-320.4 60.84,-356 314.52,-356 314.52,-320.4 60.84,-320.4"/>
<polygon fill="none" stroke="black" points="60.84,-320.4 60.84,-356 314.52,-356 314.52,-320.4 60.84,-320.4"/>
<text text-anchor="start" x="82.7" y="-333.8" font-family="Arial Bold" font-size="18.00">public.artist</text>
<text text-anchor="start" x="168.18" y="-333.8" font-family="Arial" font-size="14.00">    </text>
<text text-anchor="start" x="199.3" y="-333.8" font-family="Arial" font-size="14.00" fill="#666666">[BASE TABLE]</text>
<polygon fill="none" stroke="black" points="60.84,-289.6 60.84,-320.4 314.52,-320.4 314.52,-289.6 60.84,-289.6"/>
<text text-anchor="start" x="67.84" y="-301.8" font-family="Arial" font-size="14.00">mbid </text>
<text text-anchor="start" x="102.08" y="-301.8" font-family="Arial" font-size="14.00" fill="#666666">[text]</text>
<polygon fill="none" stroke="black" points="60.84,-258.8 60.84,-289.6 314.52,-289.6 314.52,-258.8 60.84,-258.8"/>
<text text-anchor="start" x="67.84" y="-271" font-family="Arial" font-size="14.00">name </text>
<text text-anchor="start" x="106.75" y="-271" font-family="Arial" font-size="14.00" fill="#666666">[citext]</text>
<polygon fill="none" stroke="black" points="60.84,-228 60.84,-258.8 314.52,-258.8 314.52,-228 60.84,-228"/>
<text text-anchor="start" x="67.84" y="-240.2" font-family="Arial" font-size="14.00">sort_name </text>
<text text-anchor="start" x="137.88" y="-240.2" font-family="Arial" font-size="14.00" fill="#666666">[text]</text>
<polygon fill="none" stroke="black" points="60.84,-197.2 60.84,-228 314.52,-228 314.52,-197.2 60.84,-197.2"/>
<text text-anchor="start" x="67.84" y="-209.4" font-family="Arial" font-size="14.00">bio </text>
<text text-anchor="start" x="90.41" y="-209.4" font-family="Arial" font-size="14.00" fill="#666666">[text]</text>
<polygon fill="none" stroke="black" points="60.84,-166.4 60.84,-197.2 314.52,-197.2 314.52,-166.4 60.84,-166.4"/>
<text text-anchor="start" x="67.84" y="-178.6" font-family="Arial" font-size="14.00">image_url </text>
<text text-anchor="start" x="133.21" y="-178.6" font-family="Arial" font-size="14.00" fill="#666666">[text]</text>
<polygon fill="none" stroke="black" points="60.84,-135.6 60.84,-166.4 314.52,-166.4 314.52,-135.6 60.84,-135.6"/>
<text text-anchor="start" x="67.84" y="-147.8" font-family="Arial" font-size="14.00">image_source </text>
<text text-anchor="start" x="159.67" y="-147.8" font-family="Arial" font-size="14.00" fill="#666666">[text]</text>
<polygon fill="none" stroke="black" points="60.84,-104.8 60.84,-135.6 314.52,-135.6 314.52,-104.8 60.84,-104.8"/>
<text text-anchor="start" x="67.84" y="-117" font-family="Arial" font-size="14.00">artwork_id </text>
<text text-anchor="start" x="136.31" y="-117" font-family="Arial" font-size="14.00" fill="#666666">[bigint]</text>
<polygon fill="none" stroke="black" points="60.84,-74 60.84,-104.8 314.52,-104.8 314.52,-74 60.84,-74"/>
<text text-anchor="start" x="67.84" y="-86.2" font-family="Arial" font-size="14.00">letter </text>
<text text-anchor="start" x="102.85" y="-86.2" font-family="Arial" font-size="14.00" fill="#666666">[text]</text>
<polygon fill="none" stroke="black" points="60.84,-43.2 60.84,-74 314.52,-74 314.52,-43.2 60.84,-43.2"/>
<text text-anchor="start" x="67.84" y="-55.4" font-family="Arial" font-size="14.00">updated_at </text>
<text text-anchor="start" x="141.8" y="-55.4" font-family="Arial" font-size="14.00" fill="#666666">[timestamp with time zone]</text>
</g>
<!-- public.similar_artist&#45;&gt;public.artist -->
<g id="edge1" class="edge">
<title>public.similar_artist:artist_mbid&#45;&gt;public.artist:mbid</title>
<path fill="none" stroke="black" d="M340.19,-617.65C398.61,-588.82 382.04,-305 315.52,-305"/>
<polygon fill="black" stroke="black" points="340.22,-617.64 329.46,-615.54 335.03,-618.86 330.82,-619.85 330.82,-619.85 330.82,-619.85 335.03,-618.86 331.52,-624.3 340.22,-617.64"/>
<text text-anchor="start" x="337.16" y="-630" font-family="Arial" font-size="10.00">FOREIGN KEY (artist_mbid) REFERENCES artist(mbid) ON DELETE CASCADE</text>
</g>
</g>
</svg>
